<?xml version="1.0" encoding="UTF-8" standalone="no"?>
<svg
   xmlns:dc="http://purl.org/dc/elements/1.1/"
   xmlns:cc="http://creativecommons.org/ns#"
   xmlns:rdf="http://www.w3.org/1999/02/22-rdf-syntax-ns#"
   xmlns:svg="http://www.w3.org/2000/svg"
   xmlns="http://www.w3.org/2000/svg"
   xmlns:sodipodi="http://sodipodi.sourceforge.net/DTD/sodipodi-0.dtd"
   xmlns:inkscape="http://www.inkscape.org/namespaces/inkscape"
   version="1.1"
   id="svg2"
   width="322.65692"
   height="324.47647"
   viewBox="0 0 322.65691 324.47647"
   sodipodi:docname="asesoramiento-y-est-espec.svg"
   inkscape:version="1.0.1 (3bc2e813f5, 2020-09-07)">
  <metadata
     id="metadata8">
    <rdf:RDF>
      <cc:Work
         rdf:about="">
        <dc:format>image/svg+xml</dc:format>
        <dc:type
           rdf:resource="http://purl.org/dc/dcmitype/StillImage" />
        <dc:title></dc:title>
      </cc:Work>
    </rdf:RDF>
  </metadata>
  <defs
     id="defs6" />
  <sodipodi:namedview
     pagecolor="#ffffff"
     bordercolor="#666666"
     borderopacity="1"
     objecttolerance="10"
     gridtolerance="10"
     guidetolerance="10"
     inkscape:pageopacity="0"
     inkscape:pageshadow="2"
     inkscape:window-width="1920"
     inkscape:window-height="1017"
     id="namedview4"
     showgrid="false"
     fit-margin-top="0"
     fit-margin-left="0"
     fit-margin-right="0"
     fit-margin-bottom="0"
     inkscape:zoom="0.75735985"
     inkscape:cx="529.80848"
     inkscape:cy="188.76727"
     inkscape:window-x="-8"
     inkscape:window-y="-8"
     inkscape:window-maximized="1"
     inkscape:current-layer="g10"
     inkscape:document-rotation="0" />
  <g
     inkscape:groupmode="layer"
     inkscape:label="Image"
     id="g10"
     transform="translate(388.47355,60.889894)">
    <path
       style="fill:#2ec1da;stroke:none"
       d="m -346.00095,-59.567762 c -5.7352,4.1293 2.5823,13.745399 8.6663,9 6.009,-4.686701 -2.803,-13.221801 -8.6663,-9 m 50.8333,82.499997 c 0.298,-11.326 0,-22.39550038 0,-33.999997 0,-5.2263 -1.529,-13.420501 1.5,-18 3.005,-4.542501 7.481,-6.2205 9.167,-12 4.699,-16.1117 -18.83,-26.115301 -28.334,-13 -3.985,5.5003 -3.302,14.9153 1,20 1.851,2.1875 5.55,3.193199 6.5,6 1.039,3.0687 0.167,7.7659 0.167,11 V 8.9322346 c 0,3.0770004 -1.34,10.2780004 0.5,12.8330004 1.598,2.22 7.08,1.167 9.5,1.167 m 42,-72.999997 c 0,-2.293101 0.89,-6.9028 -0.5,-8.8333 -4.357,-6.051901 -15.924,3.1572 -9.167,8.3333 1.981,1.5173 7.263,0.5 9.667,0.5 m -48.833,1.1667 c 5.245,-1.9235 9.956,5.31 4.833,8.3333 -5.551,3.2762 -11.401,-5.9253 -4.833,-8.3333 m -44.0003,10.3333 c -1.4414,1.037799 -1.1453,2.958299 -1.1667,4.5 -0.0499,3.594499 -1.5247,12.141999 1.1667,14.833299 1.7023,1.7025 4.6463,1.166701 6.8333,1.166701 h 16 c 1.777,0 5.155,0.6581 6.667,-0.5 2.085,-1.597 2.085,-8.403001 0,-10 -4.283,-3.280501 -12.978,1.766999 -17.667,-1 -3.593,-2.120501 -0.246,-6.8973 -3.167,-9 -1.452,-1.0457 -7.214,-1.0457 -8.6663,0 m 81.8333,9.5 h -13 l -5.833,0.5 -1.167,12.5 v 38.999997 h 10 V -6.0677625 l 1.167,-10.8332995 8.833,-1.1667 V 2.9322346 c 0,2.6599 -0.679,6.692 1.333,8.8330004 1.624,1.728 4.542,1.167 6.667,1.167 h 17 c 2.38,0 5.558,0.706 6.667,-2 0.354,-0.865 0.316,-2.0860004 0.333,-3.0000004 0.213,-11.5196971 -12.541,-2.688 -19,-6.5 -3.186,-1.88049998 -3.351,-15.8156976 -0.833,-18.3332966 1.702,-1.702401 4.646,-1.1667 6.833,-1.1667 h 16 c 2.123,0 5.05,-0.5175 7,0.5 5.158,2.691 6.496,7.8115985 13,9.1666995 7.695,1.603 17.087,-3.4455995 18,-11.6666995 1.315,-11.837901 -8.118,-23.688401 -21,-18.5 -4.644,1.870499 -6.559,7.557699 -11,9.166699 -5.981,2.166801 -15.649,0.333301 -22,0.333301 -2.187,0 -5.131,0.5357 -6.833,-1.166701 -2.003,-2.002799 -1.167,-6.236999 -1.167,-8.833299 l -9.667,0.5 -1.333,9.5 m 120,119.999997 -0.167,19.999995 -7.833,6.833 -8.667,6.5 -11.333,-3 -24,-6.666 -15,-3.667 V 68.932235 l -1.333,-14.5 -9.667,-0.5 h -19 l -9,-0.333 -13,-10.167 -19,10.5 -1.833,-14 -1.334,-5.667 -6.833,-1.333 -21.833,1.333 -2.167,7.667 -2,12 c -6.922,-0.729 -12.145,-10.5 -19,-10.5 -2.129,0 -3.643,2.162 -5,3.5 -2.976,2.935 -5.863,6.403 -10,7.667 -10.862,3.319 -20.1963,5.554 -27.6667,15.333 -9.2472,12.106 -8.3333,25.604 -8.3333,39.999995 v 62 39 c 0,12.197 -0.2942,23.613 7.1667,34 11.4649,15.961 29.768,18 47.8333,18 h 85 c 15.325,0 31.964,1.77 47,-1 v -28 c 0,-2.958 -1.044,-8.383 0.5,-11 1.232,-2.087 3.389,-1.971 5.5,-2 4.93,-0.068 12.319,-1.348 17,0.167 4.093,1.324 3,6.426 3,9.833 v 22 c 0,2.508 -0.859,6.762 1.167,8.667 3.634,3.416 15.123,1.333 19.833,1.333 h 46 c 5.349,0 14.022004,1.674 19.000008,-0.333 2.217,-0.894 2.792,-3.524 3,-5.667 0.539,-5.547 0,-11.423 0,-17 v -72 c 0,-15.641 0.421,-31.203 -5.333004,-46 -3.51,-9.026 -13.933004,-18.475 -12.000004,-28.666995 0.749,-3.952 7.490004,-6.249 10.333004,-8.5 7.974004,-6.312 15.221004,-13.609 19.833004,-22.833 5.853,-11.704 7.167,-23.094 7.167,-36 0,-5.701 0.979,-12.441 -0.333,-18.0000004 -4.6,-19.4819966 -17.623,-35.6556966 -37.667008,-40.6666976 -6.287,-1.5718 -13.521,-1.9632 -20,-1.333299 -11.7,1.1375 -24.095,7.365799 -32,16 -3.631,3.9662 -5.866,10.6032995 -10,13.8332985 -3.663,2.8617981 -10.643,0.682601 -15,1.1667011 -10.288,1.143199 -10.911,12.798997 -10,20.9999974 0.438,3.946 3.096,8.311 7,9.667 2.596,0.901 8.108,-1.066 9.333,2.333 0.608,1.684 -1.041,4.349 -1.5,6 -1.601,5.765 -3.251,12.016 -3.833,18 -0.293,3.013 -1.435,13.627 1.167,15.5 2.945,2.121 6.779,-0.957 9.5,2.5 2.312,2.938 3.143,7.018 5.666,10 4.82,5.696 12.479,8.432 19.667,9 m -64,-118.833297 c 6.659,-2.154401 9.819,6.8419 3,8.666599 -5.429,1.4529 -8.562,-6.8673 -3,-8.666599 m 55,23.8332995 c 12.195,-22.0666995 43.335,-25.4141005 62.000004,-10.1667005 6.909004,5.6437005 11.428004,13.59259762 13.333004,22.1666976 0.454,2.043 1.93,4.8800004 1.334,7.0000004 -0.715,2.54 -3.472,2.909 -5.667,3 -6.149,0.256 -17.309004,1.999 -23.000008,-0.333 -3.446,-1.413 -1.678,-6.77 -2,-9.6670004 -0.47,-4.2256 -3.28,-7.98489998 -7,-9.999997 -3.41,-1.8468011 -8.229,-1 -12,-1 -8.642,0 -18.706,1.400997 -27,-1.0000001 m -173,6.9999971 c 0,5.126 -1.566,13.1960004 0.167,18.0000004 0.906,2.514 7.469,3.055 9.5,1.5 1.78,-1.364 1.333,-4.572 1.333,-6.5 V -1.0677654 c 0,-1.924497 0.649,-5.1924971 -1.167,-6.4999971 -2.083,-1.5003 -7.36,-0.5 -9.833,-0.5 h -20 c -2.7631,0 -6.3578,0.596999 -9,-0.3333 -2.9095,-1.0245 -3.96,-3.6266995 -6,-5.6666995 -4.1438,-4.1438 -11.3362,-5.3279 -17,-3.8333 -8.7555,2.310399 -12.6718,14.1562985 -8.8333,21.8332966 4.4658,8.9320004 15.8462,11.2910004 23.8333,5.667 2.3444,-1.651 3.5563,-4.8136 6,-6.167 2.3134,-1.2813 6.4366,-0.5 9,-0.5 h 22 m -47,-10.8332971 c 6.1618,-0.6076 6.9874,9.0762971 1,9.6665971 -6.5364,0.6445 -7.6629,-9.0096971 -1,-9.6665971 m 153,10.1665971 c -6.566,2.691 0.466,15.6817004 7.667,10.1667004 2.085,-1.597 2.085,-8.4030004 0,-10.0000004 -1.444,-1.1059 -6.076,-0.8188 -7.667,-0.1667 m 102,14.6667004 -31,1 -31,-1 V 7.9322346 l 46,-1 15.5,1.333 0.5,8.6670004 m -15,74 c 2.671,0 6.69,0.681 8.833,-1.333 2.152,-2.023 1.723,-7.658 -0.833,-9.167 -2.032,-1.199 -5.732,-0.5 -8,-0.5 -6.368,0 -13.404,1.154 -19,-2.333 -3.071,-1.914 -5.605,-5.192 -6.667,-8.667 -0.93,-3.044 0.746,-7.45 -2.5,-9.5 -1.927,-1.217 -5.632,-0.5 -7.833,-0.5 0,-7.897 1.406,-15.53 4,-23 0.795,-2.288 2.011,-6.162 4.167,-7.5 1.753,-1.088 4.859,-0.5 6.833,-0.5 h 17 c 4.073,0 14.505,-1.896 17.833,0.5 4.29,3.089 -0.888,14.17 1.667,18.5 2.084,3.531 7.719,0.763 9.333,5.167 2.984,8.137 -8.538,11.062 -9.666,17.833 -0.398,2.385 1.043,5.652 1.5,8 0.893,4.597 0.765,9.362 1.666,14 0.495,2.544 1.79,7.443 0.167,9.832995 -1.863,2.743 -15.705,7.188 -18,4 -2.071,-2.876 -0.5,-11.331995 -0.5,-14.832995 m 28,-12 c -4.688,-9.376 6.103004,-13.102 7.833004,-22 2.363,-12.153 -13.861004,-15.37 -9.666004,-27 0.905,-2.509 3.646,-2 5.833,-2 h 17.000008 c 1.777,0 5.155,-0.658 6.667,0.5 3.459,2.65 0.448,11.191 -0.334,14.5 -3.409,14.439 -12.74,30.624 -27.333008,36 m -52,-39.5 c -4.92,2.903 -0.702,12.019 5,9 6.474,-3.427 1.241,-12.683 -5,-9 m -86,55.5 v 11.999995 c -7.321,0.578 -24.514,1.209 -24.333,11.667 0.046,2.687 3.017,5.333 3.333,8.333 h -26 c 1.981,-3.152 5.258,-4.593 8,-7.167 3.679,-3.452 7.438,-9.771 8,-14.833 0.497,-4.47 0.087,-8.927995 -1.667,-12.999995 -3.965,-9.211 -12.143,-16.009 -22.333,-17 -14.598,-1.419 -29.423,13.368 -28,27.999995 0.622,6.394 4.343,12.737 9,17 2.709,2.48 5.542,3.599 7,7 h -25 c 0.245,-3.1 3.155,-6.106 2.833,-9 -1.389,-12.505 -16.8838,-6.21 -23.6663,-11.5 -2.4287,-1.894 -1.1667,-8.689995 -1.1667,-11.499995 6.8719,-0.543 26.175,-1.264 24.833,-12 -0.968,-7.75 -16.1832,-14.05 -8.833,-22 0.839,-0.908 1.938,-2.017 3,-2.667 3.435,-2.099 6.307,0.852 9,2.834 5.007,3.686 10.661,9.974 17,5.5 8.939,-6.31 -0.93,-25.135 15,-22.667 8.109,1.256 3.012,17.145 8.167,21.667 11.308,9.92 18.865,-14.134 28.833,-6.334 11.16,8.734 -7.179,15.408 -7.333,24.334 -0.173,9.999 17.309,10.778 24.333,11.333 m -11,24.999995 c 5.509,-1.595 15.502,-0.868 20,-4.333 4.345,-3.348 2,-16.597995 2,-21.666995 0,-2.205 0.526,-5.107 -1.167,-6.833 -4.677,-4.771 -25.35,-0.084 -17.5,-11.167 1.211,-1.71 2.576,-3.323 3.834,-5 1.405,-1.873 2.676,-4.375 4.833,-5.5 3.607,-1.882 10.978,-0.556 15,-0.5 1.542,0.021 3.462,-0.275 4.5,1.167 1.614,2.242 0.5,8.158 0.5,10.833 v 28.999995 14 c 0,1.639 0.522,4.413 -0.5,5.833 -1.595,2.215 -7.103,1.167 -9.5,1.167 -8.484,0 -18.276,2.434 -22,-7 m -92,0 c -4.1494,14.334 -21.9658,-0.093 -26.6667,-7 -7.4646,-10.968 -6.7086,-26.749995 1.8334,-36.999995 2.9001,-3.48 10.8694,-11.575 15.8333,-7.833 1.6027,1.208 2.5325,3.232 3.6667,4.833 0.9588,1.354 2.3282,2.585 3.1666,4 5.6207,9.486 -14.65,5.989 -18.5,10.167 -1.6377,1.777 -1.3333,4.627 -1.3333,6.833 0,5.127 -2.321,18.114995 2.1667,21.499995 4.6571,3.513 14.2509,2.884 19.8333,4.5 m 42,-33.832995 c 2.71,-0.527 7.363,-0.749 10,0.166 16.458,5.715 10.352,28.627995 -5,30.333995 -17.74,1.971 -22.629,-27.071995 -5,-30.499995 m 187,28.832995 c -1.53,5.284 -9.622,11.868 -15,13 l -3,-8 18,-5 m -73,95 v -20 h 37 l 17.667,-3 12.5,-23 3.166,-8 -8.333,-5 c -1.906,7.242 -6.986,15.376 -10.667,22 -1.142,2.057 -1.951,4.736 -4.333,5.667 -2.803,1.095 -7.033,0.333 -10,0.333 -2.541,0 -8.825,1.16 -10.5,-1.167 -1.614,-2.242 -0.5,-8.158 -0.5,-10.833 0,-11.157 1.898,-22.029 9,-31 1.994,-2.518 5.33,-8.34 9,-8.5 3.95,-0.172 6.646,9.732 8.167,12.5 0.983,1.79 2.37,4.332 4.833,3.5 2.012,-0.68 4.338,-3.328 6,-4.667 4.752,-3.828 9.507,-7.715 14,-11.833 1.854,-1.7 6.148,-6.614 9,-5.5 4.604004,1.799 5.370004,13.419 6.333004,17.5 5.092,21.563 -4.020004,48.499 -20.333004,63 -8.957,7.961 -20.743,8 -32,8 h -40 m 23,-75 -7,17 -19,-5 -6.833,-2.333 -3.167,-17.167 -8,-0.5 v -5 l 21,5.667 23,7.333 m -209,-10 c 16.0074,14.744 35.646,13 56,13 h 108 v 41 c -6.424,0.507 -13.622,4.169 -16.833,10 -1.412,2.564 -2.631,9.79 -5.334,10.833 -2.179,0.841 -6.78,0.624 -7.666,-1.833 -1.545,-4.283 -0.167,-11.439 -0.167,-16 0,-11.428 -0.109,-22.719 -1,-34 h -41 v 38 c 0,3.111 1.452,11.367 -1.333,13.5 -4.283,3.28 -12.978,-1.767 -17.667,1 -3.148,1.858 -2,7.429 -2,10.5 v 29 c 0,3.395 1.539,11.22 -3,12 -6.245,1.073 -13.65,0 -20,0 -18.0096,0 -37.8086,1.111 -46.8333,-18 -3.7647,-7.972 -3.1667,-16.415 -3.1667,-25 v -36 -35 c 0,-4.244 -1.1111,-10.024 2,-13 m 175,32 18,3.667 7.5,3.333 0.5,6 -1.167,7.833 -18.833,1.167 -5.5,-1.167 -0.5,-5.833 v -15 m -94,12 c 0,-2.566 1.166,-8.821 -1.167,-10.5 -2.399,-1.727 -8.957,-0.5 -11.833,-0.5 h -26 c -2.958,0 -8.383,-1.044 -11,0.5 -2.5446,1.502 -3.138,8.107 -0.6667,10 2.8427,2.177 12.1357,0.5 15.6667,0.5 h 14 21 m 25,-10.833 c 3.65,-0.771 14.25,-1.563 16.5,2 1.096,1.735 0.5,4.873 0.5,6.833 v 15 c 0,3.719 1.947,16.245 -2.167,17.833 -1.873,0.724 -4.84,0.167 -6.833,0.167 -2.57,0 -8.547,1.124 -10.667,-0.5 -1.78,-1.364 -1.333,-4.572 -1.333,-6.5 v -18 c 0,-4.985 -2.324,-15.497 4,-16.833 m -25,20.833 h -21 -14 c -3.531,0 -12.824,-1.677 -15.6667,0.5 -2.4713,1.893 -1.8779,8.498 0.6667,10 2.617,1.544 8.042,0.5 11,0.5 h 26 c 2.96,0 9.322,1.206 11.833,-0.5 3.368,-2.288 1.412,-7.391 1.167,-10.5 m 81,11.167 c 2.524,-0.526 10.847,-1.296 12.5,1 0.889,1.234 0.5,3.418 0.5,4.833 0,3.199 1.628,12.525 -2,13.833 -4.718,1.702 -13.712,0.353 -16.667,-3.833 -3.922,-5.557 -1.279,-14.386 5.667,-15.833 m 116.000004,4.833 c 1.753,4.164 1,9.416 1,14 v 29 c 0,3.111 1.452,11.367 -1.333,13.5 -2.699004,2.067 -11.328004,0.5 -14.667004,0.5 h -36 c -3.276,0 -11.123,1.452 -13.833,-0.5 -1.816,-1.307 -1.167,-4.576 -1.167,-6.5 v -17 c 0,-1.924 -0.649,-5.193 1.167,-6.5 2.242,-1.614 8.158,-0.5 10.833,-0.5 7.932,0 16.41,0.197 24,-2.333 8.195,-2.732 16.136,-7.55 22,-14 2.785,-3.064 4.962,-7.097 8.000004,-9.667 m -247.833304,5.5 c -3.0052,2.164 -1.1419,8.671 1.8333,9.833 5.787,2.261 14.829,0.753 21,0.667 2.137,-0.03 5.093,-0.003 6.833,-1.5 2.093,-1.8 1.99,-8.315 -0.833,-9.333 -5.825,-2.101 -15.782,-0.167 -22,-0.167 -1.854,0 -5.24,-0.647 -6.8333,0.5 m 133.8333,51.5 h -82 v -41 h 46 l 19,0.5 7,5.833 9.5,4 1.5,9.667 -1,21 m -133.8333,-30.5 c -2.341,1.685 -1.6465,8.312 1.0003,9.333 5.605,2.164 15.79,0.167 21.833,0.167 1.777,0 5.155,0.658 6.667,-0.5 2.277,-1.744 2.129,-8.325 -0.667,-9.333 -5.825,-2.101 -15.782,-0.167 -22,-0.167 -1.854,0 -5.24,-0.647 -6.8333,0.5 m 63.0003,10 c -5.337,3.842 1.095,14.732 7.666,10 5.337,-3.842 -1.095,-14.732 -7.666,-10 m 20.166,0 c -5.774,4.423 2.397,14.394 8.5,10 5.882,-4.234 -2.021,-14.962 -8.5,-10 m 21,0 c -5.809,4.45 2.302,14.62 8.334,10 6.014,-4.607 -1.945,-14.893 -8.334,-10 z"
       id="path68" />
  </g>
</svg>
