<?xml version="1.0" encoding="UTF-8" standalone="no"?>
<svg
   xmlns:dc="http://purl.org/dc/elements/1.1/"
   xmlns:cc="http://creativecommons.org/ns#"
   xmlns:rdf="http://www.w3.org/1999/02/22-rdf-syntax-ns#"
   xmlns:svg="http://www.w3.org/2000/svg"
   xmlns="http://www.w3.org/2000/svg"
   xmlns:sodipodi="http://sodipodi.sourceforge.net/DTD/sodipodi-0.dtd"
   xmlns:inkscape="http://www.inkscape.org/namespaces/inkscape"
   version="1.1"
   id="svg2"
   width="291.81616"
   height="313.0878"
   viewBox="0 0 291.81615 313.0878"
   sodipodi:docname="capacitaciones.svg"
   inkscape:version="1.0.1 (3bc2e813f5, 2020-09-07)">
  <metadata
     id="metadata8">
    <rdf:RDF>
      <cc:Work
         rdf:about="">
        <dc:format>image/svg+xml</dc:format>
        <dc:type
           rdf:resource="http://purl.org/dc/dcmitype/StillImage" />
        <dc:title></dc:title>
      </cc:Work>
    </rdf:RDF>
  </metadata>
  <defs
     id="defs6" />
  <sodipodi:namedview
     pagecolor="#ffffff"
     bordercolor="#666666"
     borderopacity="1"
     objecttolerance="10"
     gridtolerance="10"
     guidetolerance="10"
     inkscape:pageopacity="0"
     inkscape:pageshadow="2"
     inkscape:window-width="1920"
     inkscape:window-height="1017"
     id="namedview4"
     showgrid="false"
     fit-margin-top="0"
     fit-margin-left="0"
     fit-margin-right="0"
     fit-margin-bottom="0"
     inkscape:zoom="0.75735985"
     inkscape:cx="-312.34126"
     inkscape:cy="264.73301"
     inkscape:window-x="-8"
     inkscape:window-y="-8"
     inkscape:window-maximized="1"
     inkscape:current-layer="g10"
     inkscape:document-rotation="0" />
  <g
     inkscape:groupmode="layer"
     inkscape:label="Image"
     id="g10"
     transform="translate(-453.67619,136.85563)">
    <path
       style="fill:#2fc1da;stroke:none"
       d="m 517.84062,108.52988 10.667,48 3.666,17 16.667,2 6,-0.5 2.667,-4.5 0.333,-19 v -36 l -2,-12 h 48 c 0,9.854 -4.682,14.843 -9.667,23 -5.325,8.714 -10.666,17.499 -16.333,26 -3.209,4.814 -8.037,10.414 -9.667,16 -1.594,5.467 4.136,9.373 8.667,5.833 4.078,-3.186 9.603,-13.005 11,-17.833 l 22,8.833 21,-8.833 c 1.244,4.726 4.946,8.919 7.667,13 1.198,1.797 2.368,4.412 4.333,5.5 4.695,2.6 9.045,-1.775 7.667,-6.5 -1.63,-5.586 -6.458,-11.186 -9.667,-16 -5.674,-8.512 -10.755,-17.455 -16.333,-26 -5.183,-7.939 -9.667,-13.301 -9.667,-23 h 94 24 c 2.809,0 7.286,0.357 9.667,-1.5 1.828,-1.426 2.244,-4.374999 2.333,-6.499999 0.223,-5.355 2.236,-18.762 -2.167,-22.667 -4.497,-3.988 -15.107,2.133 -18.333,-3.333 -1.769,-2.998 -0.5,-9.590001 -0.5,-13.000001 V 24.529881 -59.470118 c 0,-13.1336 -2.007,-28.0442 0,-41.000002 1.425,-9.1999 13.848,-2.0304 18.667,-5.5 1.513,-1.09 2.141,-3.7757 2.333,-5.5 0.576,-5.1869 0,-10.7765 0,-16 0,-2.3058 0.243,-4.9216 -1.333,-6.8333 -3.117,-3.7798 -11.299,-2.1667 -15.667,-2.1667 h -43 -155 -39 c -3.9367,0 -11.6712,-1.4708 -14.8333,1.3333 -4.3111,3.823 -2.6809,18.3781 -2.1667,23.6667 0.2083,2.1426 0.7827,4.7726 3,5.6667 5.057,2.0391 14.1422,-2.6362 17.5,3.3333 3.7339,6.638102 -2.7056,11.672902 -4.3333,17.000002 -2.3131,7.5699 -0.1667,19.0565 -0.1667,27 0,2.195 1.057,6.032 0.3333,8 -0.911,2.477999 -4.1715,3.418999 -6.3333,4.499999 -5.2483,2.624 -10.9071,5.155 -15,9.5 -9.1825,9.748 -10.0649,26.5109995 -12.6667,38.9999995 -1.4229,6.83 -3.02,13.9370005 -2.3333,21.0000005 0.7147,7.351 3.8786,14.848 5.6667,21.999999 1.4133,5.653 1.6166,12.874 4.5,18.000001 2.2265,3.958 8.2014,1.738 9.6666,6 0.9586,2.789 0.1667,7.059 0.1667,10 0,7.217 0.6979,14.822 0,21.999999 -0.6644,6.834 -3.097,13.352 -4.6667,20 -2.3491,9.949 -4.1743,20.031 -6.6666,30 -1.436,5.744 -5.4047,15.113 -3.5,21 0.6356,1.965 1.8543,2.693 3.8333,3 4.5928,0.712 13.5755,1.204 18,-0.167 5.6609,-1.754 8.802,-12.968 11.1667,-17.833 5.082,-10.454 10.4928,-20.652 15.6666,-31 3.0637,-6.128 5.4507,-12.879 10.1667,-18 m -31,-233.8333 c 4.5398,-1.6373 12.1624,-0.1667 17,-0.1667 h 40 134 46 c 5.071,0 9.882,-1.3609 10,5 0.02,1.0938 0.227,2.7177 -0.5,3.6667 -2.299,3.0012 -12.098,1.3333 -15.5,1.3333 h -44 -146 c -12.769,0 -27.4191,2.0351 -40,0 -3.8275,-0.6191 -4.6514,-8.5164 -1,-9.8333 m 55,154.833301 c 8.578,0 17.284,1 26,1 4.508,0 10.699,-1.1 15,0.333 4.248,1.416 7.731,4.851 12,6.334 8.171,2.837 17.328,4.175999 26,3.333 8.006,-0.778 16.083,-4.324 23,-8.167 2.816,-1.564 6.597,-6.641 10,-6.5 3.78,0.158 6.983,6.364 10,8.334 2.443,1.594 5.218,1.333 8,1.333 5.446,0 11.628,0.832 17,0 2.43,-0.377 3.654,-1.543 4,-4 0.883,-6.271 -4.49,-6 -9,-6 -7.607,0 -17.424,1.385 -21.5,-7 -1.696,-3.489 1.95,-7.138 3.5,-10.0000005 3.347,-6.18 4.032,-12.308 5.333,-18.9999995 0.833,-4.28 1.326,-8.506 -3.333,-10.667 -6.19,-2.871 -15.316,-1.426 -22,-1.333 -2.761,0.038 -5.765,0.316 -8,2.167 -4.012,3.322 -2.807,9.478 -5.167,13.8329995 -6.319,11.667 -20.268,13.345 -30.833,6.50000002 -10.434,-6.76000002 -10.281,-23.21899952 -2,-31.49999952 3.029,-3.029 6.889,-4.81 11,-5.667 2.094,-0.436 4.216,-0.106 6,-1.5 5.556,-4.34 3,-17.537999 3,-23.832999 0,-2.6297 0.252,-5.5714 -1,-8 -1.976,-3.8325 -6.416,-3.2489 -10,-3 -6.81,0.4729 -14.031,2.684 -20,6 -2.846,1.5813 -6.805,5.09 -10,5.667 -3.876,0.699 -6.538,-5.1317 -10,-6.3337 -7.392,-2.5667 -19.17,-0.3333 -27,-0.3333 v 10 c 6.341,0.167 12.651,0.147 19,0.5 2.568,0.143 6.007,0.2 7.667,2.5 2.939,4.075 -3.725,10.448999 -5.5,13.999999 -6.097,12.194 -5.167,23.951 -5.167,36.9999995 -11.165,-5.7329995 -14.771,-20.2499995 -21,-29.9999995 -2.29,-3.585 -7.878,-8.594 -8,-13 -0.068,-2.439999 1.73,-4.573999 2,-6.999999 0.767,-6.899 -0.402,-14.0657 0,-21 0.211,-3.632 0.754,-8.4419 -0.333,-12 -3.188,-10.4322 -14.216,-13.735902 -23.667,-11 -2.6765,-6.356602 2.83,-7.000002 8,-7.000002 h 33 124 30 c 2.955,0 8.532,-0.7311 10.5,2.1667 1.479,2.1767 0.5,7.290902 0.5,9.833302 v 26 98.999999 28.999999 c 0,2.541001 1.16,8.825001 -1.167,10.500001 -2.083,1.5 -7.36,0.5 -9.833,0.5 h -27 -94 -24 c -2.542,0 -7.657,0.979 -9.833,-0.5 -2.644,-1.796 -2.808,-6.732 -3.5,-9.5 -2.593,-10.369001 -1.667,-21.275 -1.667,-32 m 91,-123.499999 c -2.368,1.3319 -2.898,4.0444 -3,6.5 -0.263,6.3083 0,12.6854 0,19 0,2.6423 -0.376,5.745 1.333,8 2.454,3.237 6.318,2.31 9.667,3.333 2.792,0.854 5.862,2.684 8,4.667 2.71,2.513 5.578,6.437999 6.667,9.999999 0.817,2.675 -0.417,5.661 1.5,8 2.009,2.451 5.007,2 7.833,2 h 17 c 2.311,0 5.912,0.674 8,-0.5 6.791,-3.82 0.97,-20.043999 -1,-25.499999 -5.947,-16.4684 -19.78,-27.9266 -36,-33.3333 -4.908,-1.6362 -14.911,-5.0295 -20,-2.1667 m -112,14.5 h -20 c 1.6689,-5.7654 13.607,-13.5665 18.667,-7 1.533,1.9896 1.333,4.6483 1.333,7 m 41,1 0.5,-9.8333 -4.5,-1.1667 -14.833,0.5 v 10 l 8.833,0.5 h 10 m 21,-11 c -2.293,0 -6.903,-0.89 -8.833,0.5 -1.951,1.4044 -1.951,8.5956 0,10 1.014,0.7303 2.671,0.5215 3.833,0.5 6.882,-0.1274 5.96,-5.7884 5,-11 m 60,6.1667 c 2.767,-0.6804 7.528,1.4356 10,2.5 10.598,4.5629 19.119,11.9495 24.167,22.3333 1.55,3.19 7.263,13.440999 1.833,15.666999 -13.476,5.523 -16.685,-12.981999 -25,-19.333999 -3.32,-2.5354 -10.473,-3.7301 -12.5,-7.333 -1.307,-2.3243 -1.605,-13.0698 1.5,-13.8333 m -140.8333,15 c 3.5738,-1.3794 9.9933,-0.22 13.8333,-0.1667 1.542,0.0214 3.462,-0.2747 4.5,1.1667 1.022,1.4199 0.5,4.1943 0.5,5.8333 0,6.685 -1.874,11.885 -9,13.666999 -7.7399,1.935 -12,-7.660999 -12,-13.666999 0,-2.3216 -0.4708,-5.8154 2.1667,-6.8333 m 102.8333,6.0003 c 5.497,-0.542 5.847,9.139 4,12.833 -1.521,3.042999 -5.284,3.453999 -8,4.999999 -4.426,2.52 -8.572,5.948 -11.667,10 -1.869,2.447 -2.88,5.611 -6.333,6 -2.57,0.29 -11.155,-0.998 -11.833,-4 -0.611,-2.705 2.705,-7.852 4.166,-10 6.384,-9.380999 17.995,-18.682999 29.667,-19.832999 m -94,66.8329985 8.833,-1.167 1.167,-10.833 V -27.470119 l -2,-11 c 5.555,1.201 10.775,9.556 11.833,15 1.093,5.622 0.167,12.268 0.167,17.9999995 V 29.529881 h -41 c 0,-7.802 1.5911,-13.778 4.5,-21.0000005 1.1703,-2.906 5.4696,-8.75699998 4,-12 -1.0693,-2.36 -6.1445,-4.485 -8.3333,-2.833 -1.6578,1.25 -2.2576,3.99 -3,5.83300002 -2.632,6.53499998 -5.8615,13.23900048 -7.8334,20.00000048 -1.3867,4.754 -0.3333,11.065 -0.3333,16 -2.965,0 -8.5695,1.097 -10.8333,-1.167 -2.3796,-2.379 -3.8073,-11.459 -3.6667,-14.833 0.4414,-10.5940005 3.7412,-21.7270005 6.1667,-32 1.3274,-5.622 1.701,-11.313 5.6666,-16 5.5181,-6.521 23.4379,-16.862 30.5,-8 3.8567,4.84 3.3427,13.162 3.6667,19 0.402,7.232 0.308,14.6929995 0.5,21.9999995 m 58,-24.9999995 c 2.928,0.231 11.626,0.953 13.5,3.333 0.991,1.259 0.951,4.139 1.333,5.667 0.975,3.8969995 2.448,7.5629995 4.5,10.99999952 2.988,5.00299998 7.443,9.22199998 12.667,11.83300048 2.177,1.089 5.988,1.279 7.5,3.334 2.174,2.954 1.997,14.568 -2.5,14.833 -3.95,0.232 -14.441,-3.735 -16.5,-7.167 -2.046,-3.41 0.286,-7.311 -2.667,-10.833 -3.297,-3.9340005 -8.835,-4.3940005 -12.833,-7.3330005 -6.032,-4.43599998 -6.904,-18.0889995 -5,-24.6669995 m 91,9 c 0,15.5339995 -9.454,28.662 -23,36 -2.885,1.563 -13.906,7.436 -16.5,3.833 -1.591,-2.21 -1.142,-11.749 0.667,-13.666 1.624,-1.723 4.793,-2.257 6.833,-3.334 4.911,-2.5920005 9.733,-6.6540005 13,-11.16600048 2.157,-2.97900002 2.331,-9.00600002 5.333,-11.16699952 2.705,-1.948 10.388,-0.5 13.667,-0.5 m -117,7.9999995 c 2.502,1.573 3.941,3.96000002 6.167,6 1.794,1.644 4.978,2.301 6.333,4.333 2.716,4.0740005 -1.68,13.0020005 -6.5,12.6670005 -8.619,-0.599 -7,-8.784 -7,-15.0000005 0,-2.793 -0.504,-5.932 1,-8 m 34,21.0000005 v 1 l -12,1 c 0,-9.5830005 6.461,-5.499 12,-2 m -106,146.999999 c 0.15,-5.699 2.2897,-11.492 3.6667,-17 2.4809,-9.924 4.4476,-20.014 6.6666,-30 1.1742,-5.284 3.1396,-10.578 3.6667,-16 0.7613,-7.830999 0,-16.126999 0,-23.999999 0,-2.732 -0.6345,-6.378 0.1667,-9 0.7707,-2.522 3.1923,-3.718 4.3333,-6 2.8266,-5.653001 -2.6547,-15.757001 1,-20.833001 1.5087,-2.095999 6.2528,-1.166999 8.5,-1.166999 h 23 c 2.247,0 6.991,-0.929 8.5,1.166999 1.147,1.593 0.5,4.979 0.5,6.833 0,10.749 -8.111,16.490001 -13.667,25.000001 -5.12,7.844 -6.728,19.185 -9.6663,27.999999 -4.8659,14.598 -13.6617,28.323 -20.5,42 l -7,14 c -0.9288,1.857 -1.7356,5.23 -3.5,6.5 -1.3945,1.004 -4.0572,0.5 -5.6667,0.5 m 83,-118.667 c -2.721,1.116 -3.175,8.481 -0.833,10.167 1.234,0.889 3.418,0.5 4.833,0.5 3.276,0 11.123,1.452 13.833,-0.5 1.951,-1.404 1.951,-8.596 0,-10 -1.234,-0.889 -3.418,-0.5 -4.833,-0.5 -3.728,0 -9.516,-1.095 -13,0.333 m 31,0 c -6.581,2.697 0.401,15.518001 7.833,10.167 1.951,-1.404 1.951,-8.596 0,-10 -1.503,-1.082 -6.183,-0.843 -7.833,-0.167 m 68,0 c -5.955,2.441 -0.659,14.899001 6.833,10.167 6.568,-4.148 -0.089,-12.931 -6.833,-10.167 m 21,0 c -2.721,1.116 -3.175,8.481 -0.833,10.167 1.234,0.889 3.418,0.5 4.833,0.5 3.41,0 10.002,1.269 13,-0.5 2.789,-1.646 3.265,-8.829 0,-10.167 -3.291,-1.349 -13.709,-1.349 -17,0 m -195,0.667 c 0,2.293 0.89,6.903 -0.5,8.833 -4.3167,5.996001 -7.3096,-6.422 -7.5,-8.833 h 8 m 56,23.000001 c 2.264,12.288 6.348,25.047 10,36.999999 2.428,7.948 2,15.74 2,24 0,9.663 0.134,19.338 0,29 -0.039,2.819 -1.922,7.368 -5.667,4.5 -2.157,-1.652 -2.044,-8.866 -2.666,-11.5 -2.947,-12.478 -4.202,-25.408 -7,-38 -1.658,-7.459 -9.925,-15.362999 -9.5,-22.999999 0.425,-7.651 5.51,-19.031 12.833,-22 m 17,13.167 c 3.511,-1.267 9.267,-0.167 13,-0.167 h 29 100 26 c 3.456,0 8.746,-1.007 12,0.167 2.419,0.872 3.013,6.525 1.5,8.5 -1.955,2.552 -8.692,1.333 -11.5,1.333 h -32 -111 -17 c -2.379,0 -5.738,0.611 -8,-0.167 -3.035,-1.043 -6.112,-8.183 -2,-9.666 m 64,50.832999 c 2.805,5.076 11.455,12.338 3,16.167 -1.437,0.651 -2.452,0.711 -4,0.833 l 1,-17 m -12,1 v 16 c -1.548,-0.122 -2.563,-0.182 -4,-0.833 -8.018,-3.631 -0.577,-10.013 2,-15.167 z"
       id="path84" />
  </g>
</svg>
