<?xml version="1.0" encoding="UTF-8" standalone="no"?>
<svg
   xmlns:dc="http://purl.org/dc/elements/1.1/"
   xmlns:cc="http://creativecommons.org/ns#"
   xmlns:rdf="http://www.w3.org/1999/02/22-rdf-syntax-ns#"
   xmlns:svg="http://www.w3.org/2000/svg"
   xmlns="http://www.w3.org/2000/svg"
   xmlns:sodipodi="http://sodipodi.sourceforge.net/DTD/sodipodi-0.dtd"
   xmlns:inkscape="http://www.inkscape.org/namespaces/inkscape"
   width="128.05569mm"
   height="95.027939mm"
   viewBox="0 0 128.0557 95.027939"
   version="1.1"
   id="svg8"
   inkscape:version="1.0.1 (3bc2e813f5, 2020-09-07)"
   sodipodi:docname="Guarda-completa.svg">
  <defs
     id="defs2">
    <clipPath
       clipPathUnits="userSpaceOnUse"
       id="clipPath28">
      <path
         d="M 0,595.2756 H 841.8898 V 0 H 0 Z"
         clip-rule="evenodd"
         id="path26" />
    </clipPath>
    <clipPath
       clipPathUnits="userSpaceOnUse"
       id="clipPath38">
      <path
         d="M -50.4,0 H 944.4107 V 664.202 H -50.4 Z"
         clip-rule="evenodd"
         id="path36" />
    </clipPath>
    <clipPath
       clipPathUnits="userSpaceOnUse"
       id="clipPath52">
      <path
         d="m -586.2107,-0.3475 h 17.5289 c 57.5252,0 57.5252,0 90.6693,57.5249 L -234.2911,480.2088 9.4385,57.1774 C 42.5784,-0.3433 42.5744,-0.3475 100.0998,-0.3475 h 17.5247 c 57.5254,0 57.5254,0 90.6692,57.5249 L 518.3152,595.275 h -132.5795 -611.2604 -17.5289 c -57.5212,0 -58.0016,0.2775 -91.3736,-57.5249 L -472.866,297.47 c -33.1398,-57.5249 -33.1398,-57.5249 -90.6652,-57.5249 l -218.6436,-0.004 105.2988,-182.7635 c 33.1399,-57.5249 33.1399,-57.5249 90.6653,-57.5249"
         id="path50" />
    </clipPath>
    <clipPath
       clipPathUnits="userSpaceOnUse"
       id="clipPath547">
      <path
         d="M 0,595.2756 H 841.8898 V 0 H 0 Z"
         clip-rule="evenodd"
         id="path545" />
    </clipPath>
    <clipPath
       clipPathUnits="userSpaceOnUse"
       id="clipPath557">
      <path
         d="M -50.4,0 H 944.4107 V 664.202 H -50.4 Z"
         clip-rule="evenodd"
         id="path555" />
    </clipPath>
    <clipPath
       clipPathUnits="userSpaceOnUse"
       id="clipPath571">
      <path
         d="m -586.2107,-0.3475 h 17.5289 c 57.5252,0 57.5252,0 90.6693,57.5249 L -234.2911,480.2088 9.4385,57.1774 C 42.5784,-0.3433 42.5744,-0.3475 100.0998,-0.3475 h 17.5247 c 57.5254,0 57.5254,0 90.6692,57.5249 L 518.3152,595.275 h -132.5795 -611.2604 -17.5289 c -57.5212,0 -58.0016,0.2775 -91.3736,-57.5249 L -472.866,297.47 c -33.1398,-57.5249 -33.1398,-57.5249 -90.6652,-57.5249 l -218.6436,-0.004 105.2988,-182.7635 c 33.1399,-57.5249 33.1399,-57.5249 90.6653,-57.5249"
         id="path569" />
    </clipPath>
  </defs>
  <sodipodi:namedview
     id="base"
     pagecolor="#ffffff"
     bordercolor="#666666"
     borderopacity="1.0"
     inkscape:pageopacity="0.0"
     inkscape:pageshadow="2"
     inkscape:zoom="16"
     inkscape:cx="433.68838"
     inkscape:cy="48.479749"
     inkscape:document-units="mm"
     inkscape:current-layer="layer2"
     inkscape:document-rotation="0"
     showgrid="false"
     fit-margin-top="0"
     fit-margin-left="0"
     fit-margin-right="0"
     fit-margin-bottom="0"
     inkscape:window-width="1920"
     inkscape:window-height="1017"
     inkscape:window-x="-8"
     inkscape:window-y="-8"
     inkscape:window-maximized="1" />
  <metadata
     id="metadata5">
    <rdf:RDF>
      <cc:Work
         rdf:about="">
        <dc:format>image/svg+xml</dc:format>
        <dc:type
           rdf:resource="http://purl.org/dc/dcmitype/StillImage" />
        <dc:title />
      </cc:Work>
    </rdf:RDF>
  </metadata>
  <g
     inkscape:groupmode="layer"
     id="layer2"
     inkscape:label="Capa 2"
     transform="translate(221.75683,-56.640691)">
    <g
       id="g539"
       transform="matrix(0.35277777,0,0,-0.35277777,-264.09017,224.69363)" />
    <g
       id="g1722"
       transform="translate(-221.75427,56.643497)"
       style="fill:#23c1dd;fill-opacity:1">
      <path
         style="fill:#23c1dd;fill-opacity:1;fill-rule:evenodd;stroke-width:0.122736"
         d="M 21.073098,35.419395 C 20.815488,35.325428 20.491,35.146638 20.352017,35.022086 19.905905,34.622297 18.961974,33.1268 17.023467,29.748568 15.982302,27.934132 14.730749,25.759204 14.242237,24.915395 13.281913,23.256624 8.6684547,15.252709 3.8073558,6.8118627 2.1356846,3.9091604 -1.0300624e-6,7.6165921e-7 -1.0300624e-6,7.6165921e-7 v 0 H 2.1554377 7.0106906 8.4408159 L 13.656438,9.0517673 c 2.868593,4.9784707 5.286159,9.1898437 5.372368,9.3586057 0.30136,0.589933 1.411198,1.944519 1.776261,2.167972 0.333754,0.204287 0.684025,0.225376 3.743443,0.225376 3.059417,0 3.409688,-0.02109 3.743442,-0.225376 0.399424,-0.244485 1.487715,-1.598998 1.84048,-2.290708 0.120494,-0.236266 1.114787,-1.976047 2.209539,-3.866179 1.094753,-1.89013 2.861335,-4.9554575 3.925738,-6.8118371 C 40.072926,0.97310587 40.42214,0.38955427 41.405705,0.12470784 41.725598,0.03856984 43.313413,-0.00235268 44.878437,0 c 1.565025,0.002353 3.107259,0.0479805 3.335988,0.13494304 0.580843,0.2208355 1.124209,0.83816848 1.550316,1.50577566 0.521044,0.8163492 3.106421,5.2546612 6.694254,11.4920133 1.572609,2.733941 3.068596,5.333239 3.324415,5.776218 0.355689,0.587214 0.715668,1.30621 1.352998,1.655049 0.440539,0.174252 1.619977,0.16424 1.619977,0.16424 0.76975,0.0066 4.442376,-0.04703 8.080932,-0.01223 3.638556,0.03479 6.655101,0 6.655101,0 -0.03164,0.06252 -1.516041,3.018006 -4.86681,8.801956 -2.907824,5.019357 -3.400128,5.687986 -4.382826,5.9526 -0.33513,0.09024 -1.580946,0.12474 -3.600917,0.09972 -2.991331,-0.03706 -3.103042,-0.07507 -3.550452,-0.353239 C 60.290048,34.718803 60.332584,34.78865 51.848515,20.039536 45.676136,9.3091704 44.823727,7.9768048 44.754694,7.8659523 c -0.07492,0.1198191 -1.072464,1.7072866 -2.255345,3.7661797 -1.182881,2.058893 -3.808056,6.615461 -5.833721,10.125705 -2.025666,3.510244 -4.39892,7.624963 -5.2739,9.143818 -1.806935,3.136618 -2.338441,3.928132 -3.00101,4.340048 -0.456142,0.283581 -0.542028,0.303393 -3.659139,0.33182 -2.478759,0.02261 -3.294657,-0.0214 -3.658481,-0.154152 z"
         id="path1389"
         sodipodi:nodetypes="csssssccccsssssssssssssccsscssssscssssscc" />
      <path
         style="fill:#23c1dd;fill-opacity:1;fill-rule:evenodd;stroke-width:0.122736"
         d="m 121.10204,0.1597479 c 0.25761,0.094 0.5821,0.27275 0.72108,0.3973 0.44611,0.39979 1.39004,1.89529 3.32854,5.27353 1.04116,1.81444 2.29271,3.98937 2.78122,4.8331701 0.96032,1.65878 5.57376,9.66271 10.43483,18.10357 1.67167,2.9027 3.80735,6.81187 3.80735,6.81187 v 0 l -2.15544,-1e-5 -4.85526,-10e-6 h -1.43012 l -5.2156,-9.05179 c -2.86858,-4.97847 -5.28614,-9.18985 -5.37235,-9.35861 -0.30136,-0.58994 -1.24583,-1.961056 -1.61089,-2.184516 -0.33376,-0.20428 -0.84939,-0.208844 -3.90881,-0.208844 -3.05942,-1e-5 -3.50891,-0.02851 -3.84265,0.175751 -0.39944,0.24449 -1.38851,1.648599 -1.74127,2.340309 -0.1205,0.23627 -1.11479,1.97605 -2.20955,3.86618 -1.09476,1.89013 -2.86135,4.95545 -3.92576,6.81183 -3.80525,6.6365 -4.15446,7.22006 -5.13804,7.4849 -0.31989,0.0861 -1.907701,0.12705 -3.472731,0.1247 -1.56502,-0.002 -3.10726,-0.048 -3.33599,-0.13495 -0.58084,-0.22084 -1.124198,-0.83817 -1.550306,-1.50578 -0.521048,-0.81636 -3.106408,-5.25467 -6.694232,-11.49203 -1.572594,-2.73394 -3.068577,-5.33325 -3.324396,-5.77623 -0.472617,-0.528747 -0.816645,-1.409207 -1.477362,-1.699573 -0.440542,-0.174248 -1.495614,-0.119687 -1.495614,-0.119687 -0.76975,-0.007 -4.44237,0.047 -8.08093,0.0122 -3.63855,-0.0348 -6.6551,-10e-6 -6.6551,-10e-6 0.0316,-0.0625 1.516058,-3.01801 4.866832,-8.8019501 2.907842,-5.01934 3.400143,-5.68797 4.382844,-5.95259 0.33513,-0.0902 1.58094,-0.12474 3.60091,-0.0997 2.99133,0.0371 3.10305,0.0751 3.55045,0.35325 0.801368,0.49825 0.758828,0.4284 9.242862,15.1775301 6.172354,10.73039 7.024761,12.06276 7.093791,12.17361 0.0749,-0.11982 1.072474,-1.70729 2.255355,-3.76618 1.182887,-2.05889 3.808097,-6.61545 5.833777,-10.12569 2.02568,-3.51024 4.39894,-7.6249501 5.27392,-9.1438101 1.80695,-3.13661 2.33846,-3.92812 3.00102,-4.34003 0.45615,-0.28358 0.54203,-0.3034 3.65914,-0.33181 2.47876,-0.0226 3.29466,0.0214 3.65848,0.15416 z"
         id="path1389-7"
         sodipodi:nodetypes="csssssccccsssssssssssssccsscssssscssssscc" />
    </g>
  </g>
</svg>
