<?xml version="1.0" encoding="UTF-8" standalone="no"?>
<svg
   xmlns:dc="http://purl.org/dc/elements/1.1/"
   xmlns:cc="http://creativecommons.org/ns#"
   xmlns:rdf="http://www.w3.org/1999/02/22-rdf-syntax-ns#"
   xmlns:svg="http://www.w3.org/2000/svg"
   xmlns="http://www.w3.org/2000/svg"
   xmlns:sodipodi="http://sodipodi.sourceforge.net/DTD/sodipodi-0.dtd"
   xmlns:inkscape="http://www.inkscape.org/namespaces/inkscape"
   width="459.90451mm"
   height="116.15693mm"
   viewBox="0 0 459.90451 116.15693"
   version="1.1"
   id="svg8"
   inkscape:version="1.0.1 (3bc2e813f5, 2020-09-07)"
   sodipodi:docname="guarda-mw.svg">
  <defs
     id="defs2" />
  <sodipodi:namedview
     id="base"
     pagecolor="#ffffff"
     bordercolor="#666666"
     borderopacity="1.0"
     inkscape:pageopacity="0.0"
     inkscape:pageshadow="2"
     inkscape:zoom="0.46914961"
     inkscape:cx="1008.2395"
     inkscape:cy="117.03679"
     inkscape:document-units="mm"
     inkscape:current-layer="layer1"
     inkscape:document-rotation="0"
     showgrid="false"
     inkscape:window-width="1920"
     inkscape:window-height="1017"
     inkscape:window-x="-8"
     inkscape:window-y="-8"
     inkscape:window-maximized="1"
     fit-margin-top="0"
     fit-margin-left="0"
     fit-margin-right="0"
     fit-margin-bottom="0" />
  <metadata
     id="metadata5">
    <rdf:RDF>
      <cc:Work
         rdf:about="">
        <dc:format>image/svg+xml</dc:format>
        <dc:type
           rdf:resource="http://purl.org/dc/dcmitype/StillImage" />
        <dc:title></dc:title>
      </cc:Work>
    </rdf:RDF>
  </metadata>
  <g
     inkscape:label="Capa 1"
     inkscape:groupmode="layer"
     id="layer1"
     transform="translate(112.66173,-50.122214)">
    <path
       style="opacity:1;fill:#1382a9;fill-opacity:1;fill-rule:evenodd;stroke-width:1.50721"
       d="m -167.02811,624.39243 c -3.16348,-1.15393 -7.14822,-3.34949 -8.85495,-4.879 -5.47831,-4.90945 -17.06989,-23.27432 -40.87497,-64.75939 -12.78562,-22.28148 -28.15484,-48.98984 -34.15382,-59.35191 -11.79289,-20.36989 -68.44667,-118.65887 -128.14151,-222.31341 -20.52831,-35.64551 -39.44607,-68.60179 -42.03948,-73.23619 l -4.71529,-8.42618 32.79008,-0.99018 c 18.03455,-0.54461 41.35674,-0.99185 51.82709,-0.99388 l 19.03701,-0.004 64.04843,111.15671 c 35.22664,61.13618 64.91462,112.85231 65.97328,114.92473 3.70073,7.24444 17.32967,23.87891 21.81268,26.62294 4.09854,2.50867 8.39991,2.76764 45.9699,2.76764 37.569982,0 41.871348,-0.25897 45.969888,-2.76764 4.904972,-3.0023 18.269309,-19.63588 22.601301,-28.13015 1.479687,-2.90138 13.689713,-24.26608 27.133389,-47.47711 13.443692,-23.21102 35.137517,-60.85358 48.208506,-83.65013 46.728486,-81.49715 50.712267,-87.23837 62.790562,-90.49072 7.856631,-2.11557 77.994194,-2.01013 83.611844,0.12569 7.13281,2.71189 14.11002,8.86795 19.34266,17.06624 6.39848,10.02486 38.1472,64.52783 82.20619,141.12322 19.31182,33.5731 37.68271,65.49277 40.82419,70.9326 3.14149,5.43984 8.71425,12.65817 12.38391,16.04075 l 6.67212,6.15014 17.16526,0.86818 c 9.44089,0.4775 53.72318,1.21775 98.40505,1.64503 44.68188,0.42727 81.54969,1.08676 81.92846,1.46552 0.6373,0.63731 -17.70335,33.08271 -58.85116,104.11026 -35.70841,61.63827 -41.75396,69.84911 -53.8216,73.0986 -4.11544,1.10817 -19.41419,1.53182 -44.21966,1.22453 -36.73388,-0.45507 -38.10571,-0.58083 -43.59996,-3.99679 -9.84085,-6.11842 -9.3185,-5.26069 -113.50382,-186.38147 -75.79751,-131.77009 -85.98729,-149.21375 -87.16368,-149.21375 -0.67891,0 -13.11922,20.68645 -27.645131,45.96989 -14.525913,25.28344 -46.763347,81.2386 -71.638741,124.34479 -24.87540921,43.10619 -54.019236,93.6354 -64.764088,112.28711 -22.189365,38.51803 -28.716321,47.89688 -36.852736,52.95525 -5.601484,3.48241 -6.643478,3.5734 -44.921944,3.92249 -30.43944,0.2776 -40.47146,-0.11093 -44.93926,-1.74071 z m 85.350789,-8.36019 c 7.17269,-3.60414 12.838532,-12.96548 107.67457,-177.90407 100.623831,-175.00472 97.120081,-169.08116 98.904031,-167.21055 0.92618,0.97116 18.25859,30.94417 46.14136,79.79239 13.48555,23.62551 29.45558,51.43353 35.48899,61.7956 28.57396,49.07438 66.85525,115.36874 83.5516,144.69212 26.74904,46.97865 36.0423,58.98692 47.28216,61.09552 2.80227,0.52572 20.28156,0.72611 38.84289,0.44535 28.32499,-0.42845 34.50539,-0.92431 38.46225,-3.08583 4.3097,-2.35429 8.56365,-7.85978 18.96361,-24.54283 6.31358,-10.12789 78.05864,-134.77436 78.05864,-135.61537 0,-0.4329 -25.60372,-0.84942 -56.89716,-0.92559 -31.29344,-0.0761 -72.49678,-0.58486 -91.56299,-1.13041 -34.35217,-0.98294 -34.73011,-1.02971 -41.7721,-5.16923 -4.47248,-2.62909 -9.56663,-7.65664 -13.74459,-13.56489 -3.65106,-5.16315 -24.76512,-40.92592 -46.92013,-79.47281 -74.37551,-129.40392 -79.72676,-138.48489 -85.77879,-145.56517 -3.3166,-3.88009 -8.25414,-7.98394 -10.97232,-9.11966 -7.04675,-2.94432 -72.342247,-2.95292 -79.384563,-0.0104 C 74.545374,204.76257 69.918226,211.62669 27.11581,285.9 14.933999,307.03862 1.0450027,331.11629 -3.748617,339.40594 c -4.7936349,8.28966 -14.676634,25.58489 -21.962214,38.43385 -18.214869,32.12398 -34.757805,58.55743 -40.404943,64.5618 -9.366674,9.95919 -9.552785,9.99472 -55.219476,10.53987 -27.69096,0.33058 -43.33254,-0.0672 -47.12528,-1.19839 -7.29119,-2.17464 -14.95427,-8.94975 -22.09137,-19.53151 -7.16983,-10.63029 -73.84501,-125.74999 -120.72356,-208.43823 l -14.28668,-25.20004 -42.57867,-0.0457 c -30.01456,-0.0322 -42.57868,0.44398 -42.57868,1.61384 0,1.99386 5.27442,11.29629 67.42526,118.9172 26.56927,46.00758 73.08256,126.71865 103.36286,179.35794 30.2803,52.6393 58.33035,100.1164 62.33345,105.50467 11.35948,15.29016 11.30596,15.27577 54.75546,14.71629 28.041971,-0.36108 37.946433,-0.98793 41.165139,-2.60527 z"
       id="path1389"
       transform="scale(0.26458333)" />
    <path
       style="opacity:1;fill:#1382a9;fill-opacity:1;fill-rule:evenodd;stroke-width:1.50721"
       d="m 1205.6398,620.33376 c -19.055,-33.32528 -76.7859,-133.52795 -114.094,-198.03129 -20.072,-34.70314 -26.4043,-43.31758 -34.846,-47.40412 -5.9141,-2.86299 -9.1569,-3.0874 -44.6134,-3.0874 -35.75596,0 -38.65959,0.20517 -44.77071,3.16351 -9.03744,4.37495 -14.17291,12.06657 -51.72588,77.4722 -90.43531,157.51031 -93.6801,162.81763 -103.77558,169.74069 -5.12839,3.51685 -6.00656,3.59776 -44.03322,4.05691 -24.28184,0.2932 -41.03554,-0.13338 -44.77365,-1.13991 -7.48712,-2.01608 -16.90789,-11.50698 -25.6452,-25.83609 -5.8219,-9.54789 -76.795,-132.42855 -100.28555,-173.63136 -5.09836,-8.94261 -14.01746,-23.52486 -19.82021,-32.40501 -9.12773,-13.96842 -11.36348,-16.4336 -16.57931,-18.28064 -5.57038,-1.97258 -56.06633,-3.2103 -183.5334,-4.49867 l -14.72592,-0.14884 3.23279,-6.40564 c 1.77804,-3.5231 17.49642,-31.16156 34.92974,-61.41879 59.16118,-102.68005 59.18518,-102.71665 71.14754,-108.50753 6.3468,-3.07243 9.00038,-3.27544 44.37276,-3.39472 37.18007,-0.12536 37.70743,-0.083 44.86741,3.5998 11.99932,6.17205 10.60569,3.94958 101.46404,161.80839 100.37493,174.39304 101.27809,175.91886 102.99045,173.993 1.14741,-1.29048 53.06623,-91.00224 98.95031,-170.97858 78.84129,-137.42099 87.05364,-151.02175 96.63985,-160.04858 8.2945,-7.81048 10.9922,-8.24993 51.07374,-8.31974 46.574,-0.0811 48.549,0.5574 61.8163,19.98557 5.1635,7.56131 42.0965,71.28991 134.0345,231.27927 42.0769,73.22165 51.4055,89.39312 76.9458,133.38805 11.7904,20.30965 23.0627,39.76682 25.0495,43.23815 1.9869,3.47133 2.9882,6.69735 2.2252,7.16894 -0.763,0.47157 -23.9967,1.28669 -51.6303,1.81135 l -50.243,0.95394 z m -402.58802,-3.38459 c 9.88344,-4.12958 18.12674,-16.69179 69.48006,-105.88271 78.20373,-135.82503 78.70573,-136.63462 88.61462,-142.91297 4.65851,-2.95166 7.44712,-3.15222 50.27714,-3.61605 l 45.3451,-0.49105 6.6726,5.06469 c 10.4169,7.90674 19.7659,21.76366 47.3033,70.1125 14.0572,24.68096 31.4538,55.04815 38.659,67.48263 7.2052,12.43448 23.8993,41.25986 37.0979,64.0564 13.1986,22.79655 24.9602,42.97432 26.1368,44.83949 2.1378,3.38893 2.1687,3.39122 45.5884,3.39122 h 43.4492 l -2.8925,-4.14483 c -1.5909,-2.27965 -12.4012,-20.76181 -24.023,-41.07146 -40.9275,-71.52291 -195.9667,-340.00282 -202.2742,-350.2763 -15.3931,-25.07184 -13.2607,-24.11201 -55.0171,-24.76418 -44.16383,-0.68976 -44.87544,-0.56141 -54.82927,9.88925 -4.39904,4.61862 -9.40467,11.17767 -11.12361,14.57566 -1.71896,3.398 -24.85717,43.82074 -51.41828,89.82831 -26.56111,46.00758 -66.75465,115.86674 -89.319,155.24259 -22.56434,39.37585 -42.32544,73.21209 -43.91356,75.19164 l -2.88747,3.59919 -4.66336,-7.36721 c -2.56485,-4.05197 -13.64036,-22.96683 -24.61224,-42.03303 -10.97188,-19.0662 -26.20947,-45.51773 -33.86132,-58.78118 -7.65184,-13.26344 -25.76309,-44.8018 -40.24722,-70.08524 -14.48414,-25.28344 -32.82459,-57.16092 -40.75656,-70.83885 -7.93198,-13.67793 -21.87221,-37.7556 -30.97827,-53.50594 -18.63968,-32.24021 -26.3292,-42.08967 -34.66758,-44.40555 -7.2369,-2.00995 -66.85,-1.95718 -75.63493,0.067 -8.93697,2.05918 -10.50662,3.67479 -22.52513,23.18463 -17.72609,28.77508 -80.19271,138.25977 -79.3596,139.09288 0.43772,0.43773 38.96589,1.07778 85.61817,1.42236 46.65229,0.34457 89.1635,1.23868 94.46938,1.98689 10.59146,1.49355 14.38253,4.16997 23.45892,16.56151 4.40114,6.00867 35.2845,59.10897 99.9323,171.82189 22.6322,39.45906 30.34045,51.04673 39.40368,59.23481 l 6.17107,5.5752 h 36.2171 c 27.07729,0 37.45175,-0.51587 41.10946,-2.04415 z"
       id="path1391"
       transform="scale(0.26458333)" />
  </g>
</svg>
