<?xml version="1.0" encoding="UTF-8" standalone="no"?>
<svg
   xmlns:dc="http://purl.org/dc/elements/1.1/"
   xmlns:cc="http://creativecommons.org/ns#"
   xmlns:rdf="http://www.w3.org/1999/02/22-rdf-syntax-ns#"
   xmlns:svg="http://www.w3.org/2000/svg"
   xmlns="http://www.w3.org/2000/svg"
   xmlns:sodipodi="http://sodipodi.sourceforge.net/DTD/sodipodi-0.dtd"
   xmlns:inkscape="http://www.inkscape.org/namespaces/inkscape"
   width="1200"
   height="800"
   viewBox="0 0 317.49999 211.66667"
   version="1.1"
   id="svg847"
   inkscape:version="1.0.1 (3bc2e813f5, 2020-09-07)"
   sodipodi:docname="guarda tuneable.svg">
  <defs
     id="defs841">
    <clipPath
       clipPathUnits="userSpaceOnUse"
       id="clipPath28">
      <path
         d="M 0,595.2756 H 841.8898 V 0 H 0 Z"
         clip-rule="evenodd"
         id="path26" />
    </clipPath>
    <clipPath
       clipPathUnits="userSpaceOnUse"
       id="clipPath38">
      <path
         d="M -50.4,0 H 944.4107 V 664.202 H -50.4 Z"
         clip-rule="evenodd"
         id="path36" />
    </clipPath>
    <clipPath
       clipPathUnits="userSpaceOnUse"
       id="clipPath52">
      <path
         d="m -586.2107,-0.3475 h 17.5289 c 57.5252,0 57.5252,0 90.6693,57.5249 L -234.2911,480.2088 9.4385,57.1774 C 42.5784,-0.3433 42.5744,-0.3475 100.0998,-0.3475 h 17.5247 c 57.5254,0 57.5254,0 90.6692,57.5249 L 518.3152,595.275 h -132.5795 -611.2604 -17.5289 c -57.5212,0 -58.0016,0.2775 -91.3736,-57.5249 L -472.866,297.47 c -33.1398,-57.5249 -33.1398,-57.5249 -90.6652,-57.5249 l -218.6436,-0.004 105.2988,-182.7635 c 33.1399,-57.5249 33.1399,-57.5249 90.6653,-57.5249"
         id="path50" />
    </clipPath>
    <clipPath
       clipPathUnits="userSpaceOnUse"
       id="clipPath547">
      <path
         d="M 0,595.2756 H 841.8898 V 0 H 0 Z"
         clip-rule="evenodd"
         id="path545" />
    </clipPath>
    <clipPath
       clipPathUnits="userSpaceOnUse"
       id="clipPath557">
      <path
         d="M -50.4,0 H 944.4107 V 664.202 H -50.4 Z"
         clip-rule="evenodd"
         id="path555" />
    </clipPath>
    <clipPath
       clipPathUnits="userSpaceOnUse"
       id="clipPath571">
      <path
         d="m -586.2107,-0.3475 h 17.5289 c 57.5252,0 57.5252,0 90.6693,57.5249 L -234.2911,480.2088 9.4385,57.1774 C 42.5784,-0.3433 42.5744,-0.3475 100.0998,-0.3475 h 17.5247 c 57.5254,0 57.5254,0 90.6692,57.5249 L 518.3152,595.275 h -132.5795 -611.2604 -17.5289 c -57.5212,0 -58.0016,0.2775 -91.3736,-57.5249 L -472.866,297.47 c -33.1398,-57.5249 -33.1398,-57.5249 -90.6652,-57.5249 l -218.6436,-0.004 105.2988,-182.7635 c 33.1399,-57.5249 33.1399,-57.5249 90.6653,-57.5249"
         id="path569" />
    </clipPath>
  </defs>
  <sodipodi:namedview
     id="base"
     pagecolor="#ffffff"
     bordercolor="#666666"
     borderopacity="1.0"
     inkscape:pageopacity="0.0"
     inkscape:pageshadow="2"
     inkscape:zoom="2"
     inkscape:cx="211.87436"
     inkscape:cy="28.604939"
     inkscape:document-units="mm"
     inkscape:current-layer="layer1"
     inkscape:document-rotation="0"
     showgrid="false"
     units="px"
     inkscape:snap-bbox="true"
     inkscape:object-paths="true"
     inkscape:snap-intersection-paths="true"
     inkscape:bbox-paths="true"
     inkscape:bbox-nodes="true"
     inkscape:snap-bbox-edge-midpoints="true"
     inkscape:snap-bbox-midpoints="true"
     inkscape:snap-smooth-nodes="true"
     inkscape:snap-midpoints="true"
     inkscape:snap-object-midpoints="true"
     inkscape:snap-center="true"
     inkscape:snap-text-baseline="true"
     inkscape:snap-page="true"
     inkscape:object-nodes="true"
     inkscape:snap-nodes="true"
     inkscape:window-width="1920"
     inkscape:window-height="1017"
     inkscape:window-x="-8"
     inkscape:window-y="-8"
     inkscape:window-maximized="1" />
  <metadata
     id="metadata844">
    <rdf:RDF>
      <cc:Work
         rdf:about="">
        <dc:format>image/svg+xml</dc:format>
        <dc:type
           rdf:resource="http://purl.org/dc/dcmitype/StillImage" />
        <dc:title></dc:title>
      </cc:Work>
    </rdf:RDF>
  </metadata>
  <g
     inkscape:label="Capa 1"
     inkscape:groupmode="layer"
     id="layer1"
     style="display:inline">
    <g
       id="g1722"
       transform="translate(1.0300624e-6,9.5889619e-5)"
       style="fill:#23c1dd;fill-opacity:1">
      <path
         style="fill:#23c1dd;fill-opacity:1;fill-rule:evenodd;stroke-width:0.122736"
         d="M 21.073098,35.419395 C 20.815488,35.325428 20.491,35.146638 20.352017,35.022086 19.905905,34.622297 18.961974,33.1268 17.023467,29.748568 15.982302,27.934132 14.730749,25.759204 14.242237,24.915395 13.281913,23.256624 8.6684547,15.252709 3.8073558,6.8118627 2.1356846,3.9091604 -1.0300624e-6,7.6165921e-7 -1.0300624e-6,7.6165921e-7 v 0 H 2.1554377 7.0106906 8.4408159 L 13.656438,9.0517673 c 2.868593,4.9784707 5.286159,9.1898437 5.372368,9.3586057 0.30136,0.589933 1.411198,1.944519 1.776261,2.167972 0.333754,0.204287 0.684025,0.225376 3.743443,0.225376 3.059417,0 3.409688,-0.02109 3.743442,-0.225376 0.399424,-0.244485 1.487715,-1.598998 1.84048,-2.290708 0.120494,-0.236266 1.114787,-1.976047 2.209539,-3.866179 1.094753,-1.89013 2.861335,-4.9554575 3.925738,-6.8118371 C 40.072926,0.97310587 40.42214,0.38955427 41.405705,0.12470784 41.725598,0.03856984 43.313413,-0.00235268 44.878437,0 c 1.565025,0.002353 3.107259,0.0479805 3.335988,0.13494304 0.580843,0.2208355 1.124209,0.83816848 1.550316,1.50577566 0.521044,0.8163492 3.106421,5.2546612 6.694254,11.4920133 1.572609,2.733941 3.068596,5.333239 3.324415,5.776218 0.255819,0.44298 0.709623,1.030786 1.008452,1.306238 l 0.543328,0.500821 1.421195,0.01223 c 0.76975,0.0066 4.442376,-0.04703 8.080932,-0.01223 3.638556,0.03479 6.655101,0 6.655101,0 -0.03164,0.06252 -1.516041,3.018006 -4.86681,8.801956 -2.907824,5.019357 -3.400128,5.687986 -4.382826,5.9526 -0.33513,0.09024 -1.580946,0.12474 -3.600917,0.09972 -2.991331,-0.03706 -3.103042,-0.07507 -3.550452,-0.353239 C 60.290048,34.718803 60.332584,34.78865 51.848515,20.039536 45.676136,9.3091704 44.823727,7.9768048 44.754694,7.8659523 c -0.07492,0.1198191 -1.072464,1.7072866 -2.255345,3.7661797 -1.182881,2.058893 -3.808056,6.615461 -5.833721,10.125705 -2.025666,3.510244 -4.39892,7.624963 -5.2739,9.143818 -1.806935,3.136618 -2.338441,3.928132 -3.00101,4.340048 -0.456142,0.283581 -0.542028,0.303393 -3.659139,0.33182 -2.478759,0.02261 -3.294657,-0.0214 -3.658481,-0.154152 z m 6.950326,-0.680791 c 0.58409,-0.293494 1.045474,-1.055811 8.768207,-14.48717 8.194049,-14.2510679 7.817224,-13.46641 7.97215,-13.6894508 0.137022,0.2274497 1.568693,2.592942 3.839256,6.5707738 1.098162,1.923884 2.398641,4.18836 2.889957,5.032169 2.326848,3.996248 5.444189,9.394762 6.803814,11.782638 2.17824,3.825588 2.935014,4.803451 3.850303,4.97516 0.228196,0.04281 1.651578,0.05913 3.163073,0.03627 2.306574,-0.03489 2.80986,-0.07527 3.132077,-0.251287 0.350949,-0.191716 0.697359,-0.640041 1.544253,-1.998584 0.514131,-0.824739 6.388614,-11.292118 6.430923,-11.367494 -0.100337,0.0023 -2.059668,0.02678 -4.60797,0.02058 -2.548303,-0.0062 -5.769368,0.01079 -7.415606,0.0074 -2.798521,-0.0058 -2.968475,0.04477 -3.541922,-0.29232 C 60.487734,20.863162 60.072905,20.453756 59.732683,19.972632 59.435368,19.552184 57.715998,16.639933 55.911861,13.500964 49.855278,2.9632823 49.419513,2.2237964 48.926681,1.6472316 48.656602,1.3312663 48.279331,0.88105027 48.057983,0.78856577 47.484148,0.54880249 42.166976,0.54810599 41.593501,0.78771888 40.769833,1.1318694 40.368226,1.8068572 36.882719,7.855117 c -0.991995,1.7213703 -2.123011,3.682075 -2.513367,4.357121 -0.390358,0.675048 -1.195155,2.083441 -1.788438,3.129764 -1.483282,2.615936 -2.830414,4.768477 -3.290274,5.257428 -0.762752,0.811001 -0.777907,0.813894 -4.496659,0.858287 -2.254944,0.02692 -3.528677,-0.0055 -3.837529,-0.09759 -0.593739,-0.177087 -1.217763,-0.728801 -1.798955,-1.5905 C 18.57364,18.903979 13.144115,9.5294967 9.3266783,2.7959882 L 8.1632785,0.74388647 4.6959919,0.740165 C 2.2518318,0.737543 1.1886796,0.739121 1.0591552,0.745884 c 0.075865,0.14709647 0.5990582,1.0455851 5.6601553,9.809423 2.1636015,3.746511 5.9512945,10.319013 8.4170945,14.605561 2.465799,4.286549 4.749985,8.152727 5.075967,8.591507 0.925031,1.245116 0.919638,1.256346 4.457839,1.210786 2.283527,-0.0294 3.091106,-0.09285 3.353213,-0.224555 z"
         id="path1389"
         sodipodi:nodetypes="csssssccccssssssssssssssscsscssssscsssssccsscssssssscsssssssssssssssscccssssss" />
      <path
         style="fill:#23c1dd;fill-opacity:1;fill-rule:evenodd;stroke-width:0.122736"
         d="m 121.10204,0.1597479 c 0.25761,0.094 0.5821,0.27275 0.72108,0.3973 0.44611,0.39979 1.39004,1.89529 3.32854,5.27353 1.04116,1.81444 2.29271,3.98937 2.78122,4.8331701 0.96032,1.65878 5.57376,9.66271 10.43483,18.10357 1.67167,2.9027 3.80735,6.81187 3.80735,6.81187 v 0 l -2.15544,-1e-5 -4.85526,-10e-6 h -1.43012 l -5.2156,-9.05179 c -2.86858,-4.97847 -5.28614,-9.18985 -5.37235,-9.35861 -0.30136,-0.58994 -1.41119,-1.94452 -1.77625,-2.16798 -0.33376,-0.20428 -0.68403,-0.22538 -3.74345,-0.22538 -3.05942,-1e-5 -3.40969,0.0211 -3.74343,0.22536 -0.39944,0.24449 -1.48773,1.59899 -1.84049,2.2907 -0.1205,0.23627 -1.11479,1.97605 -2.20955,3.86618 -1.09476,1.89013 -2.86135,4.95545 -3.92576,6.81183 -3.80525,6.6365 -4.15446,7.22006 -5.13804,7.4849 -0.31989,0.0861 -1.907701,0.12705 -3.472731,0.1247 -1.56502,-0.002 -3.10726,-0.048 -3.33599,-0.13495 -0.58084,-0.22084 -1.124198,-0.83817 -1.550306,-1.50578 -0.521048,-0.81636 -3.106408,-5.25467 -6.694232,-11.49203 -1.572594,-2.73394 -3.068577,-5.33325 -3.324396,-5.77623 -0.255819,-0.44298 -0.709618,-1.03079 -1.008447,-1.30624 l -0.543329,-0.50082 -1.4212,-0.0122 c -0.76975,-0.007 -4.44237,0.047 -8.08093,0.0122 -3.63855,-0.0348 -6.6551,-10e-6 -6.6551,-10e-6 0.0316,-0.0625 1.516058,-3.01801 4.866832,-8.8019501 2.907842,-5.01934 3.400143,-5.68797 4.382844,-5.95259 0.33513,-0.0902 1.58094,-0.12474 3.60091,-0.0997 2.99133,0.0371 3.10305,0.0751 3.55045,0.35325 0.801368,0.49825 0.758828,0.4284 9.242862,15.1775301 6.172354,10.73039 7.024761,12.06276 7.093791,12.17361 0.0749,-0.11982 1.072474,-1.70729 2.255355,-3.76618 1.182887,-2.05889 3.808097,-6.61545 5.833777,-10.12569 2.02568,-3.51024 4.39894,-7.6249501 5.27392,-9.1438101 1.80695,-3.13661 2.33846,-3.92812 3.00102,-4.34003 0.45615,-0.28358 0.54203,-0.3034 3.65914,-0.33181 2.47876,-0.0226 3.29466,0.0214 3.65848,0.15416 z m -6.95032,0.68076 c -0.58409,0.2935 -1.04548,1.05582 -8.76824,14.4871601 -8.194117,14.25104 -7.817295,13.46639 -7.972215,13.68943 -0.13702,-0.22745 -1.568694,-2.59295 -3.839244,-6.57079 -1.098156,-1.92388 -2.39863,-4.18837 -2.889948,-5.03218 -2.32683,-3.99624 -5.444157,-9.3947701 -6.803781,-11.7826601 -2.178231,-3.82558 -2.934999,-4.80345 -3.850288,-4.97515 -0.2282,-0.0428 -1.65158,-0.0591 -3.16308,-0.0363 -2.30657,0.0349 -2.80986,0.0753 -3.132071,0.25127 -0.35095,0.19172 -0.697361,0.64004 -1.544265,1.99859 -0.514132,0.82473 -6.388637,11.2921001 -6.430947,11.3674701 0.10034,-0.002 2.05967,-0.0268 4.60797,-0.0206 2.54831,0.006 5.76937,-0.0108 7.41561,-0.007 2.79852,0.006 2.96847,-0.0448 3.541919,0.29233 0.364209,0.21413 0.779028,0.62353 1.119257,1.10466 0.297309,0.42045 2.016672,3.33271 3.820805,6.47168 6.056554,10.5377 6.492322,11.27718 6.985151,11.85375 0.270079,0.31596 0.647348,0.76618 0.868698,0.85867 0.573829,0.23976 5.890999,0.24046 6.464479,8.6e-4 0.82368,-0.34415 1.22528,-1.01914 4.71083,-7.06739 0.99199,-1.72137 2.12301,-3.68207 2.51338,-4.35712 0.39035,-0.67505 1.19515,-2.08343 1.78843,-3.12975 1.4833,-2.61594 2.83043,-4.76848 3.2903,-5.25742 0.76275,-0.811 0.77791,-0.81389 4.49666,-0.85828 2.25494,-0.0269 3.52867,0.005 3.83752,0.0976 0.59374,0.17709 1.21777,0.7288 1.79896,1.5905 0.58385,0.86565 6.01335,10.24014 9.83077,16.97366 l 1.1634,2.05211 3.46728,0.004 c 2.44416,0.003 3.50732,0.001 3.63684,-0.006 -0.0759,-0.14709 -0.59905,-1.04558 -5.66013,-9.80943 -2.16359,-3.74651 -5.95127,-10.31902 -8.41706,-14.60558 -2.46579,-4.2865601 -4.74996,-8.1527401 -5.07595,-8.5915201 -0.92502,-1.24511 -0.91963,-1.25634 -4.45783,-1.21079 -2.28353,0.0294 -3.09111,0.0928 -3.35321,0.22454 z"
         id="path1389-7"
         sodipodi:nodetypes="csssssccccssssssssssssssscsscssssscsssssccsscssssssscsssssssssssssssscccssssss" />
    </g>
  </g>
</svg>
