<?xml version="1.0" encoding="UTF-8" standalone="no"?>
<svg
   xmlns:dc="http://purl.org/dc/elements/1.1/"
   xmlns:cc="http://creativecommons.org/ns#"
   xmlns:rdf="http://www.w3.org/1999/02/22-rdf-syntax-ns#"
   xmlns:svg="http://www.w3.org/2000/svg"
   xmlns="http://www.w3.org/2000/svg"
   xmlns:sodipodi="http://sodipodi.sourceforge.net/DTD/sodipodi-0.dtd"
   xmlns:inkscape="http://www.inkscape.org/namespaces/inkscape"
   xml:space="preserve"
   width="90.288902mm"
   height="50.597301mm"
   version="1.1"
   style="clip-rule:evenodd;fill-rule:evenodd;image-rendering:optimizeQuality;shape-rendering:geometricPrecision;text-rendering:geometricPrecision"
   viewBox="0 0 9028.8902 5059.7301"
   id="svg29"
   sodipodi:docname="Logo-MW-logotipo.svg"
   inkscape:version="1.0.1 (3bc2e813f5, 2020-09-07)"><metadata
   id="metadata33"><rdf:RDF><cc:Work
       rdf:about=""><dc:format>image/svg+xml</dc:format><dc:type
         rdf:resource="http://purl.org/dc/dcmitype/StillImage" /><dc:title></dc:title></cc:Work></rdf:RDF></metadata><sodipodi:namedview
   pagecolor="#ffffff"
   bordercolor="#666666"
   borderopacity="1"
   objecttolerance="10"
   gridtolerance="10"
   guidetolerance="10"
   inkscape:pageopacity="0"
   inkscape:pageshadow="2"
   inkscape:window-width="1920"
   inkscape:window-height="1017"
   id="namedview31"
   showgrid="false"
   fit-margin-top="0"
   fit-margin-left="0"
   fit-margin-right="0"
   fit-margin-bottom="0"
   inkscape:zoom="1.7464507"
   inkscape:cx="170.6245"
   inkscape:cy="95.616759"
   inkscape:window-x="-8"
   inkscape:window-y="-8"
   inkscape:window-maximized="1"
   inkscape:current-layer="svg29" />
 <defs
   id="defs4">
  <style
   type="text/css"
   id="style2">
   <![CDATA[
    .fil0 {fill:#10171F;fill-rule:nonzero}
    .fil1 {fill:#10171F;fill-rule:nonzero}
    .fil2 {fill:#14C1DE;fill-rule:nonzero}
   ]]>
  </style>
 </defs>
 <g
   id="Capa_x0020_1"
   transform="translate(-2985.56,-2470.1399)">
  <metadata
   id="CorelCorpID_0Corel-Layer" />
  <g
   id="_2172489393760">
   <polygon
   class="fil0"
   points="12014.45,5662.79 2985.56,5662.79 2985.56,5627.09 12014.45,5627.09 "
   id="polygon7" />
   <g
   id="g13">
    <path
   class="fil1"
   d="m 7163.24,2470.15 h -64.86 c -212.83,0 -212.83,0 -335.45,212.83 L 5861.22,4248.09 4959.48,2682.98 c -122.61,-212.81 -122.6,-212.83 -335.43,-212.83 h -64.83 c -212.83,0 -212.83,0 -335.46,212.83 l -1147,1990.83 h 490.51 L 4202.05,3572 c 122.81,-212.72 122.61,-212.83 335.44,-212.83 h 108.21 c 212.83,0 212.83,0 335.44,212.83 l 512.19,888.98 c 122.67,212.81 122.64,212.83 335.46,212.83 h 64.85 c 212.81,0 214.59,1.03 338.06,-212.83 L 6743.89,3572 c 122.61,-212.83 122.61,-212.83 335.44,-212.83 l 808.93,-0.01 -389.58,-676.18 c -122.61,-212.83 -122.61,-212.83 -335.44,-212.83 z"
   id="path9" />
    <path
   class="fil2"
   d="m 7836.77,4673.79 h 64.85 c 212.83,0 212.83,0 335.46,-212.82 l 901.71,-1565.12 901.74,1565.12 c 122.61,212.81 122.59,212.82 335.42,212.82 h 64.84 c 212.83,0 212.83,0 335.45,-212.82 l 1147.01,-1990.83 h -490.51 l -634.79,1101.8 c -122.8,212.72 -122.61,212.83 -335.44,212.83 h -108.21 c -212.83,0 -212.83,0 -335.43,-212.83 l -512.19,-888.98 c -122.67,-212.81 -122.64,-212.82 -335.46,-212.82 h -64.85 c -212.82,0 -214.59,-1.03 -338.06,212.82 l -512.19,888.98 c -122.61,212.83 -122.61,212.83 -335.44,212.83 l -808.93,0.02 389.58,676.18 c 122.61,212.82 122.61,212.82 335.44,212.82 z"
   id="path11" />
   </g>
   <g
   id="g25">
    <g
   id="g19">
     <path
   class="fil2"
   d="m 5496.1,6608.55 h 179.46 c 18.54,0 34.12,4.22 46.55,12.64 12.43,8.64 20.43,19.8 24.22,33.91 l 126.38,483.83 c 4.22,15.8 8.43,32.65 12.64,50.34 4.22,17.91 7.37,36.65 9.48,56.03 4.21,-20.01 8.85,-38.75 13.9,-56.24 5.06,-17.69 9.9,-34.33 14.54,-50.13 L 6072.4,6655.1 c 3.79,-12 12,-22.75 24.43,-32.22 12.43,-9.48 27.38,-14.33 45.08,-14.33 h 63.19 c 18.53,0 33.91,4.22 45.91,12.43 12.01,8.21 20.23,19.59 24.86,34.12 l 147.87,484.04 c 4.63,14.75 9.47,30.54 14.53,47.39 5.05,16.86 9.48,34.76 13.27,53.93 3.37,-18.75 6.95,-36.65 10.53,-53.5 3.58,-17.07 7.16,-33.07 10.95,-47.82 l 126.39,-484.04 c 3.37,-12.42 11.37,-23.17 24.01,-32.43 12.64,-9.48 27.8,-14.12 45.49,-14.12 H 6837 l -284.36,921.32 h -193.36 l -173.14,-562.18 c -2.95,-8.85 -5.9,-18.33 -9.06,-28.65 -3.16,-10.32 -6.32,-21.49 -9.27,-33.07 -2.94,11.58 -5.89,22.75 -9.05,33.07 -3.16,10.32 -6.32,19.8 -9.27,28.65 l -175.67,562.18 h -193.36 z"
   id="path15" />
     <path
   class="fil1"
   d="m 4148.58,7529.67 h 179.46 c 18.54,0 34.12,-4.22 46.55,-12.64 12.43,-8.64 20.43,-19.8 24.22,-33.91 l 126.38,-483.83 c 4.22,-15.8 8.43,-32.65 12.64,-50.34 4.22,-17.91 7.37,-36.65 9.48,-56.03 4.21,20.01 8.85,38.75 13.9,56.24 5.06,17.69 9.9,34.33 14.54,50.13 l 149.13,483.83 c 3.79,12 12,22.75 24.43,32.22 12.43,9.48 27.38,14.33 45.08,14.33 h 63.19 c 18.53,0 33.91,-4.22 45.91,-12.43 12.01,-8.21 20.23,-19.59 24.86,-34.12 l 147.87,-484.04 c 4.63,-14.75 9.47,-30.54 14.53,-47.39 5.05,-16.86 9.48,-34.76 13.27,-53.93 3.37,18.75 6.95,36.65 10.53,53.5 3.58,17.07 7.16,33.07 10.95,47.82 l 126.39,484.04 c 3.37,12.42 11.37,23.17 24.01,32.43 12.64,9.48 27.8,14.12 45.49,14.12 h 168.09 l -284.36,-921.32 h -193.36 l -173.14,562.18 c -2.95,8.85 -5.9,18.33 -9.06,28.65 -3.16,10.32 -6.32,21.49 -9.27,33.07 -2.94,-11.58 -5.89,-22.75 -9.05,-33.07 -3.16,-10.32 -6.32,-19.8 -9.27,-28.65 L 4626.3,6608.35 h -193.36 z"
   id="path17" />
    </g>
    <path
   class="fil1"
   d="m 7328.59,6670.32 c -1.66,2.78 -3.41,4.81 -5.26,6.19 -1.85,1.39 -4.25,2.13 -7.21,2.13 -3.14,0 -6.74,-1.57 -10.9,-4.71 -4.16,-3.14 -9.43,-6.66 -15.8,-10.44 -6.38,-3.79 -14.05,-7.21 -23.01,-10.35 -8.96,-3.14 -19.86,-4.71 -32.61,-4.71 -12.01,0 -22.64,1.57 -31.88,4.8 -9.24,3.23 -16.91,7.67 -23.1,13.21 -6.19,5.55 -10.9,12.01 -14.04,19.5 -3.14,7.48 -4.71,15.61 -4.71,24.3 0,11.09 2.77,20.23 8.22,27.53 5.45,7.3 12.66,13.58 21.62,18.76 8.96,5.17 19.12,9.61 30.49,13.4 11.36,3.78 23.01,7.76 34.92,11.82 11.92,4.07 23.57,8.59 34.93,13.68 11.36,5.08 21.53,11.55 30.49,19.31 8.96,7.76 16.17,17.27 21.62,28.55 5.45,11.27 8.13,25.13 8.13,41.57 0,17.37 -2.96,33.64 -8.87,48.88 -5.91,15.25 -14.5,28.55 -25.87,39.82 -11.36,11.28 -25.32,20.15 -41.85,26.61 -16.54,6.47 -35.39,9.7 -56.46,9.7 -25.68,0 -49.06,-4.71 -70.22,-14.04 -21.16,-9.33 -39.27,-21.99 -54.23,-37.97 l 15.52,-25.5 c 1.48,-2.13 3.33,-3.79 5.45,-5.18 2.13,-1.38 4.44,-2.12 7.02,-2.12 3.88,0 8.32,2.12 13.31,6.28 4.99,4.16 11.27,8.68 18.75,13.67 7.49,4.99 16.54,9.61 27.17,13.77 10.62,4.16 23.56,6.19 38.9,6.19 12.75,0 24.11,-1.75 34.09,-5.27 9.98,-3.51 18.48,-8.5 25.41,-14.87 6.93,-6.38 12.19,-13.95 15.89,-22.82 3.7,-8.87 5.54,-18.76 5.54,-29.66 0,-12.01 -2.68,-21.9 -8.13,-29.57 -5.45,-7.67 -12.65,-14.04 -21.52,-19.22 -8.87,-5.17 -18.95,-9.61 -30.31,-13.21 -11.37,-3.6 -23.01,-7.3 -34.93,-11.09 -11.91,-3.78 -23.56,-8.13 -34.92,-13.12 -11.37,-4.99 -21.53,-11.45 -30.4,-19.4 -8.87,-7.94 -15.98,-17.92 -21.43,-29.84 -5.46,-11.92 -8.23,-26.61 -8.23,-44.17 0,-14.04 2.77,-27.62 8.23,-40.74 5.45,-13.12 13.3,-24.77 23.65,-34.93 10.35,-10.16 23.19,-18.29 38.43,-24.39 15.25,-6.1 32.71,-9.15 52.49,-9.15 22.17,0 42.4,3.51 60.7,10.63 18.29,7.02 34.28,17.28 47.95,30.67 z m 335.12,-62.36 v 43.79 h -190.7 v 131.94 h 154.39 v 42.13 h -154.39 v 135.82 h 190.7 v 43.8 h -244.75 v -397.48 z m 136.38,231.72 v 166.04 h -53.5 v -397.76 h 112.26 c 25.14,0 46.85,2.58 65.14,7.67 18.3,5.08 33.45,12.38 45.37,21.99 11.92,9.6 20.69,21.25 26.42,34.83 5.73,13.67 8.6,28.83 8.6,45.64 0,14.14 -2.22,27.26 -6.66,39.45 -4.43,12.2 -10.81,23.2 -19.21,32.9 -8.41,9.7 -18.67,18.01 -30.77,24.85 -12.11,6.84 -25.87,12.01 -41.21,15.52 6.65,3.88 12.57,9.52 17.74,16.91 l 115.86,158 h -47.67 c -9.8,0 -17,-3.79 -21.62,-11.37 l -103.12,-142.19 c -3.14,-4.44 -6.56,-7.58 -10.25,-9.52 -3.7,-1.94 -9.24,-2.96 -16.63,-2.96 z m 0,-39.36 h 56.27 c 15.71,0 29.57,-1.84 41.48,-5.63 11.92,-3.79 21.9,-9.15 29.94,-16.08 8.04,-6.93 14.04,-15.15 18.11,-24.76 4.07,-9.61 6.1,-20.24 6.1,-31.79 0,-23.65 -7.76,-41.48 -23.38,-53.4 -15.61,-12.01 -38.9,-18.02 -69.76,-18.02 h -58.76 z m 251.96,-192.36 h 42.96 c 4.81,0 8.69,1.2 11.64,3.6 2.96,2.4 5.18,5.45 6.66,9.15 l 112.26,281.25 c 2.58,6.28 4.98,13.21 7.11,20.6 2.12,7.39 4.16,15.06 6.19,23.1 1.66,-8.04 3.51,-15.71 5.45,-23.1 1.94,-7.39 4.16,-14.32 6.75,-20.6 l 111.7,-281.25 c 1.3,-3.14 3.51,-6.01 6.65,-8.69 3.15,-2.68 7.03,-4.06 11.65,-4.06 h 43.24 l -161.88,397.48 h -48.51 z m 486.73,397.48 h -53.77 v -397.48 h 53.77 z m 386.4,-82.32 c 2.95,0 5.63,1.2 8.04,3.6 l 21.06,23.19 c -16.26,18.85 -35.94,33.63 -59.13,44.17 -23.19,10.53 -51.19,15.79 -83.9,15.79 -28.64,0 -54.6,-4.98 -77.88,-14.87 -23.29,-9.89 -43.15,-23.75 -59.6,-41.58 -16.45,-17.83 -29.2,-39.27 -38.25,-64.21 -9.06,-24.95 -13.58,-52.39 -13.58,-82.42 0,-29.94 4.89,-57.38 14.6,-82.32 9.7,-24.95 23.28,-46.39 40.83,-64.4 17.56,-17.93 38.62,-31.79 63.11,-41.67 24.48,-9.89 51.46,-14.88 81.03,-14.88 29.2,0 54.42,4.53 75.58,13.68 21.16,9.14 39.91,21.52 56.36,37.23 l -17.46,24.3 c -1.3,1.85 -2.77,3.33 -4.44,4.53 -1.66,1.11 -4.06,1.75 -7.2,1.75 -2.41,0 -4.9,-0.92 -7.58,-2.68 -2.68,-1.75 -5.91,-3.88 -9.61,-6.46 -3.7,-2.59 -8.04,-5.36 -13.03,-8.32 -4.99,-2.96 -10.9,-5.73 -17.74,-8.31 -6.83,-2.59 -14.78,-4.81 -23.84,-6.56 -9.05,-1.76 -19.49,-2.59 -31.32,-2.59 -21.25,0 -40.65,3.6 -58.3,10.9 -17.65,7.3 -32.89,17.74 -45.64,31.23 -12.75,13.49 -22.64,29.94 -29.75,49.34 -7.12,19.4 -10.72,41.12 -10.72,65.14 0,24.76 3.6,46.84 10.72,66.25 7.11,19.4 16.81,35.75 29.1,49.15 12.29,13.4 26.8,23.65 43.61,30.67 16.82,7.03 34.93,10.54 54.33,10.54 11.83,0 22.45,-0.74 31.88,-2.13 9.42,-1.38 18.2,-3.51 26.24,-6.46 8.04,-2.96 15.52,-6.75 22.45,-11.28 6.93,-4.52 13.86,-9.88 20.88,-16.17 3.14,-2.77 6.19,-4.15 9.15,-4.15 z m 163.53,82.32 h -53.77 v -397.48 h 53.77 z m 475.37,-198.46 c 0,29.75 -4.71,57.1 -14.13,82.04 -9.43,24.86 -22.73,46.29 -39.92,64.22 -17.18,17.92 -37.79,31.87 -61.9,41.76 -24.12,9.89 -50.82,14.87 -80.02,14.87 -29.19,0 -55.8,-4.98 -79.83,-14.87 -24.02,-9.89 -44.62,-23.84 -61.81,-41.76 -17.18,-17.93 -30.49,-39.36 -39.91,-64.22 -9.43,-24.94 -14.14,-52.29 -14.14,-82.04 0,-29.76 4.71,-57.1 14.14,-82.05 9.42,-24.86 22.73,-46.29 39.91,-64.4 17.19,-18.02 37.79,-32.06 61.81,-42.04 24.03,-9.98 50.64,-14.97 79.83,-14.97 29.2,0 55.9,4.99 80.02,14.97 24.11,9.98 44.72,24.02 61.9,42.04 17.19,18.11 30.49,39.54 39.92,64.4 9.42,24.95 14.13,52.29 14.13,82.05 z m -55.16,0 c 0,-24.4 -3.32,-46.39 -9.98,-65.79 -6.65,-19.5 -16.07,-35.85 -28.27,-49.34 -12.19,-13.4 -26.98,-23.74 -44.35,-30.95 -17.37,-7.21 -36.77,-10.81 -58.21,-10.81 -21.25,0 -40.56,3.6 -57.93,10.81 -17.37,7.21 -32.15,17.55 -44.44,30.95 -12.29,13.49 -21.81,29.84 -28.46,49.34 -6.65,19.4 -9.98,41.39 -9.98,65.79 0,24.39 3.33,46.29 9.98,65.69 6.65,19.31 16.17,35.66 28.46,49.15 12.29,13.4 27.07,23.66 44.44,30.77 17.37,7.11 36.68,10.72 57.93,10.72 21.44,0 40.84,-3.61 58.21,-10.72 17.37,-7.11 32.16,-17.37 44.35,-30.77 12.2,-13.49 21.62,-29.84 28.27,-49.15 6.66,-19.4 9.98,-41.3 9.98,-65.69 z m 332.07,-136.66 c -1.66,2.78 -3.41,4.81 -5.26,6.19 -1.85,1.39 -4.25,2.13 -7.21,2.13 -3.14,0 -6.74,-1.57 -10.9,-4.71 -4.16,-3.14 -9.43,-6.66 -15.8,-10.44 -6.38,-3.79 -14.05,-7.21 -23.01,-10.35 -8.96,-3.14 -19.86,-4.71 -32.61,-4.71 -12.01,0 -22.64,1.57 -31.88,4.8 -9.24,3.23 -16.91,7.67 -23.1,13.21 -6.19,5.55 -10.9,12.01 -14.04,19.5 -3.14,7.48 -4.71,15.61 -4.71,24.3 0,11.09 2.77,20.23 8.22,27.53 5.45,7.3 12.66,13.58 21.62,18.76 8.96,5.17 19.12,9.61 30.49,13.4 11.36,3.78 23.01,7.76 34.92,11.82 11.92,4.07 23.57,8.59 34.93,13.68 11.36,5.08 21.53,11.55 30.49,19.31 8.96,7.76 16.17,17.27 21.62,28.55 5.45,11.27 8.13,25.13 8.13,41.57 0,17.37 -2.96,33.64 -8.87,48.88 -5.91,15.25 -14.5,28.55 -25.87,39.82 -11.36,11.28 -25.32,20.15 -41.85,26.61 -16.54,6.47 -35.39,9.7 -56.46,9.7 -25.68,0 -49.06,-4.71 -70.22,-14.04 -21.16,-9.33 -39.27,-21.99 -54.23,-37.97 l 15.52,-25.5 c 1.48,-2.13 3.33,-3.79 5.45,-5.18 2.13,-1.38 4.44,-2.12 7.02,-2.12 3.88,0 8.32,2.12 13.31,6.28 4.99,4.16 11.27,8.68 18.75,13.67 7.49,4.99 16.54,9.61 27.17,13.77 10.62,4.16 23.56,6.19 38.9,6.19 12.75,0 24.11,-1.75 34.09,-5.27 9.98,-3.51 18.48,-8.5 25.41,-14.87 6.93,-6.38 12.19,-13.95 15.89,-22.82 3.7,-8.87 5.54,-18.76 5.54,-29.66 0,-12.01 -2.68,-21.9 -8.13,-29.57 -5.45,-7.67 -12.65,-14.04 -21.52,-19.22 -8.87,-5.17 -18.95,-9.61 -30.31,-13.21 -11.37,-3.6 -23.01,-7.3 -34.93,-11.09 -11.91,-3.78 -23.56,-8.13 -34.92,-13.12 -11.37,-4.99 -21.53,-11.45 -30.4,-19.4 -8.87,-7.94 -15.98,-17.92 -21.43,-29.84 -5.46,-11.92 -8.23,-26.61 -8.23,-44.17 0,-14.04 2.77,-27.62 8.23,-40.74 5.45,-13.12 13.3,-24.77 23.65,-34.93 10.35,-10.16 23.19,-18.29 38.43,-24.39 15.25,-6.1 32.71,-9.15 52.49,-9.15 22.17,0 42.4,3.51 60.7,10.63 18.29,7.02 34.28,17.28 47.95,30.67 z"
   id="path21" />
    <path
   class="fil1"
   d="m 7145.08,7524.88 h -53.77 V 7127.4 h 53.77 z m 134.16,-397.48 c 4.8,0 8.41,0.55 10.72,1.75 2.31,1.2 4.89,3.7 7.85,7.39 l 230.06,299.36 c -0.55,-4.8 -0.92,-9.51 -1.11,-14.04 -0.18,-4.53 -0.27,-8.87 -0.27,-13.12 V 7127.4 h 47.12 v 397.48 h -27.16 c -4.26,0 -7.77,-0.74 -10.63,-2.22 -2.86,-1.48 -5.73,-3.97 -8.5,-7.48 L 7297.53,7216.1 c 0.37,4.62 0.65,9.14 0.83,13.58 0.19,4.43 0.28,8.5 0.28,12.19 v 283.01 h -47.12 V 7127.4 Z m 735.64,198.83 c 0,29.84 -4.71,56.92 -14.13,81.31 -9.43,24.39 -22.73,45.27 -39.92,62.73 -17.18,17.37 -37.79,30.77 -61.81,40.29 -24.02,9.52 -50.63,14.32 -79.83,14.32 H 7670.62 V 7127.4 h 148.57 c 29.2,0 55.81,4.8 79.83,14.32 24.02,9.51 44.63,23 61.81,40.47 17.19,17.46 30.49,38.43 39.92,62.83 9.42,24.39 14.13,51.46 14.13,81.21 z m -55.16,0 c 0,-24.3 -3.32,-46.1 -9.97,-65.32 -6.66,-19.22 -16.08,-35.48 -28.28,-48.69 -12.19,-13.31 -26.98,-23.47 -44.35,-30.5 -17.37,-7.02 -36.68,-10.53 -57.93,-10.53 h -94.52 v 309.89 h 94.52 c 21.25,0 40.56,-3.51 57.93,-10.53 17.37,-7.02 32.16,-17.09 44.35,-30.3 12.2,-13.22 21.62,-29.39 28.28,-48.6 6.65,-19.22 9.97,-41.03 9.97,-65.42 z m 282.73,155.96 c 16.45,0 31.14,-2.77 44.07,-8.31 12.94,-5.55 23.93,-13.31 32.9,-23.29 8.96,-9.97 15.8,-21.89 20.51,-35.75 4.71,-13.86 7.02,-29.11 7.02,-45.74 v -241.43 h 53.5 v 241.62 c 0,22.91 -3.61,44.16 -10.9,63.75 -7.3,19.59 -17.74,36.59 -31.33,50.91 -13.58,14.32 -30.21,25.59 -49.8,33.72 -19.59,8.13 -41.58,12.2 -65.97,12.2 -24.39,0 -46.38,-4.07 -65.97,-12.2 -19.59,-8.13 -36.22,-19.4 -49.89,-33.72 -13.68,-14.32 -24.12,-31.32 -31.42,-50.91 -7.29,-19.59 -10.99,-40.84 -10.99,-63.75 v -241.62 h 53.5 v 241.15 c 0,16.64 2.4,31.88 7.11,45.74 4.71,13.86 11.55,25.78 20.51,35.76 8.96,9.98 19.96,17.74 32.99,23.37 13.03,5.64 27.72,8.5 44.16,8.5 z m 453.75,-292.43 c -1.66,2.78 -3.41,4.81 -5.26,6.19 -1.85,1.39 -4.25,2.13 -7.21,2.13 -3.14,0 -6.74,-1.57 -10.9,-4.71 -4.16,-3.14 -9.43,-6.66 -15.8,-10.44 -6.38,-3.79 -14.05,-7.21 -23.01,-10.35 -8.96,-3.14 -19.86,-4.71 -32.61,-4.71 -12.01,0 -22.64,1.57 -31.88,4.8 -9.24,3.23 -16.91,7.67 -23.1,13.21 -6.19,5.55 -10.9,12.01 -14.04,19.5 -3.14,7.48 -4.71,15.61 -4.71,24.3 0,11.09 2.77,20.23 8.22,27.53 5.45,7.3 12.66,13.58 21.62,18.76 8.96,5.17 19.12,9.61 30.49,13.4 11.36,3.78 23.01,7.76 34.92,11.82 11.92,4.07 23.57,8.59 34.93,13.68 11.36,5.08 21.53,11.55 30.49,19.31 8.96,7.76 16.17,17.27 21.62,28.55 5.45,11.27 8.13,25.13 8.13,41.57 0,17.37 -2.96,33.64 -8.87,48.88 -5.91,15.25 -14.5,28.55 -25.87,39.82 -11.36,11.28 -25.32,20.15 -41.85,26.61 -16.54,6.47 -35.39,9.7 -56.46,9.7 -25.68,0 -49.06,-4.71 -70.22,-14.04 -21.16,-9.33 -39.27,-21.99 -54.23,-37.97 l 15.52,-25.5 c 1.48,-2.13 3.33,-3.79 5.45,-5.18 2.13,-1.38 4.44,-2.12 7.02,-2.12 3.88,0 8.32,2.12 13.31,6.28 4.99,4.16 11.27,8.68 18.75,13.67 7.49,4.99 16.54,9.61 27.17,13.77 10.62,4.16 23.56,6.19 38.9,6.19 12.75,0 24.11,-1.75 34.09,-5.27 9.98,-3.51 18.48,-8.5 25.41,-14.87 6.93,-6.38 12.19,-13.95 15.89,-22.82 3.7,-8.87 5.54,-18.76 5.54,-29.66 0,-12.01 -2.68,-21.9 -8.13,-29.57 -5.45,-7.67 -12.65,-14.04 -21.52,-19.22 -8.87,-5.17 -18.95,-9.61 -30.31,-13.21 -11.37,-3.6 -23.01,-7.3 -34.93,-11.09 -11.91,-3.78 -23.56,-8.13 -34.92,-13.12 -11.37,-4.99 -21.53,-11.45 -30.4,-19.4 -8.87,-7.94 -15.98,-17.92 -21.43,-29.84 -5.46,-11.92 -8.23,-26.61 -8.23,-44.17 0,-14.04 2.77,-27.62 8.23,-40.74 5.45,-13.12 13.3,-24.77 23.65,-34.93 10.35,-10.16 23.19,-18.29 38.43,-24.39 15.25,-6.1 32.71,-9.15 52.49,-9.15 22.17,0 42.4,3.51 60.7,10.63 18.29,7.02 34.28,17.28 47.95,30.67 z m 360.9,-62.92 v 45.46 h -128.33 v 352.3 h -53.78 V 7172.3 H 8746.1 v -45.46 z m 115.59,232.28 v 166.04 h -53.5 V 7127.4 h 112.26 c 25.14,0 46.85,2.58 65.14,7.67 18.3,5.08 33.45,12.38 45.37,21.99 11.92,9.6 20.69,21.25 26.42,34.83 5.73,13.67 8.6,28.83 8.6,45.64 0,14.14 -2.22,27.26 -6.66,39.45 -4.43,12.2 -10.81,23.2 -19.21,32.9 -8.41,9.7 -18.67,18.01 -30.77,24.85 -12.11,6.84 -25.87,12.01 -41.21,15.52 6.65,3.88 12.57,9.52 17.74,16.91 l 115.86,158 h -47.67 c -9.8,0 -17,-3.79 -21.62,-11.37 L 9240.32,7371.6 c -3.14,-4.44 -6.56,-7.58 -10.25,-9.52 -3.7,-1.94 -9.24,-2.96 -16.63,-2.96 z m 0,-39.36 h 56.27 c 15.71,0 29.57,-1.84 41.48,-5.63 11.92,-3.79 21.9,-9.15 29.94,-16.08 8.04,-6.93 14.04,-15.15 18.11,-24.76 4.07,-9.61 6.1,-20.24 6.1,-31.79 0,-23.65 -7.76,-41.48 -23.38,-53.4 -15.61,-12.01 -38.9,-18.02 -69.76,-18.02 h -58.76 z m 361.72,205.12 h -53.77 V 7127.4 h 53.77 z m 433.24,0 h -41.58 c -4.8,0 -8.68,-1.2 -11.64,-3.6 -2.95,-2.41 -5.17,-5.45 -6.65,-9.15 l -37.14,-95.91 h -178.23 l -37.15,95.91 c -1.29,3.33 -3.51,6.28 -6.65,8.87 -3.14,2.59 -7.02,3.88 -11.64,3.88 h -41.58 l 158.83,-397.48 h 54.6 z m -260.28,-147.19 h 148.3 l -62.37,-161.78 c -4.06,-9.98 -8.04,-22.45 -11.92,-37.42 -2.03,7.58 -3.97,14.51 -5.91,20.88 -1.94,6.38 -3.88,12.01 -5.73,16.82 z m 364.22,101.73 h 171.86 v 45.46 h -225.63 V 7127.4 h 53.77 z m 475.93,-352.02 v 43.79 h -190.7 v 131.94 h 154.39 v 42.13 h -154.39 v 135.82 h 190.7 v 43.8 h -244.75 V 7127.4 Z m 280.79,62.36 c -1.66,2.78 -3.41,4.81 -5.26,6.19 -1.85,1.39 -4.25,2.13 -7.21,2.13 -3.14,0 -6.74,-1.57 -10.9,-4.71 -4.16,-3.14 -9.43,-6.66 -15.8,-10.44 -6.38,-3.79 -14.05,-7.21 -23.01,-10.35 -8.96,-3.14 -19.86,-4.71 -32.61,-4.71 -12.01,0 -22.64,1.57 -31.88,4.8 -9.24,3.23 -16.91,7.67 -23.1,13.21 -6.19,5.55 -10.9,12.01 -14.04,19.5 -3.14,7.48 -4.71,15.61 -4.71,24.3 0,11.09 2.77,20.23 8.22,27.53 5.45,7.3 12.66,13.58 21.62,18.76 8.96,5.17 19.12,9.61 30.49,13.4 11.36,3.78 23.01,7.76 34.92,11.82 11.92,4.07 23.57,8.59 34.93,13.68 11.36,5.08 21.53,11.55 30.49,19.31 8.96,7.76 16.17,17.27 21.62,28.55 5.45,11.27 8.13,25.13 8.13,41.57 0,17.37 -2.96,33.64 -8.87,48.88 -5.91,15.25 -14.5,28.55 -25.87,39.82 -11.36,11.28 -25.32,20.15 -41.85,26.61 -16.54,6.47 -35.39,9.7 -56.46,9.7 -25.68,0 -49.06,-4.71 -70.22,-14.04 -21.16,-9.33 -39.27,-21.99 -54.23,-37.97 l 15.52,-25.5 c 1.48,-2.13 3.33,-3.79 5.45,-5.18 2.13,-1.38 4.44,-2.12 7.02,-2.12 3.88,0 8.32,2.12 13.31,6.28 4.99,4.16 11.27,8.68 18.75,13.67 7.49,4.99 16.54,9.61 27.17,13.77 10.62,4.16 23.56,6.19 38.9,6.19 12.75,0 24.11,-1.75 34.09,-5.27 9.98,-3.51 18.48,-8.5 25.41,-14.87 6.93,-6.38 12.19,-13.95 15.89,-22.82 3.7,-8.87 5.54,-18.76 5.54,-29.66 0,-12.01 -2.68,-21.9 -8.13,-29.57 -5.45,-7.67 -12.65,-14.04 -21.52,-19.22 -8.87,-5.17 -18.95,-9.61 -30.31,-13.21 -11.37,-3.6 -23.01,-7.3 -34.93,-11.09 -11.91,-3.78 -23.56,-8.13 -34.92,-13.12 -11.37,-4.99 -21.53,-11.45 -30.4,-19.4 -8.87,-7.94 -15.98,-17.92 -21.43,-29.84 -5.46,-11.92 -8.23,-26.61 -8.23,-44.17 0,-14.04 2.77,-27.62 8.23,-40.74 5.45,-13.12 13.3,-24.77 23.65,-34.93 10.35,-10.16 23.19,-18.29 38.43,-24.39 15.25,-6.1 32.71,-9.15 52.49,-9.15 22.17,0 42.4,3.51 60.7,10.63 18.29,7.02 34.28,17.28 47.95,30.67 z"
   id="path23" />
   </g>
  </g>
 </g>
</svg>
