<?xml version="1.0" encoding="UTF-8" standalone="no"?>
<svg
   xmlns:dc="http://purl.org/dc/elements/1.1/"
   xmlns:cc="http://creativecommons.org/ns#"
   xmlns:rdf="http://www.w3.org/1999/02/22-rdf-syntax-ns#"
   xmlns:svg="http://www.w3.org/2000/svg"
   xmlns="http://www.w3.org/2000/svg"
   xmlns:sodipodi="http://sodipodi.sourceforge.net/DTD/sodipodi-0.dtd"
   xmlns:inkscape="http://www.inkscape.org/namespaces/inkscape"
   xml:space="preserve"
   width="90mm"
   height="23mm"
   version="1.1"
   style="clip-rule:evenodd;fill-rule:evenodd;image-rendering:optimizeQuality;shape-rendering:geometricPrecision;text-rendering:geometricPrecision"
   viewBox="0 0 9000 2300"
   id="svg37"
   sodipodi:docname="Logo-MW.svg"
   inkscape:version="1.0.1 (3bc2e813f5, 2020-09-07)"><metadata
   id="metadata41"><rdf:RDF><cc:Work
       rdf:about=""><dc:format>image/svg+xml</dc:format><dc:type
         rdf:resource="http://purl.org/dc/dcmitype/StillImage" /><dc:title></dc:title></cc:Work></rdf:RDF></metadata><sodipodi:namedview
   pagecolor="#ffffff"
   bordercolor="#666666"
   borderopacity="1"
   objecttolerance="10"
   gridtolerance="10"
   guidetolerance="10"
   inkscape:pageopacity="0"
   inkscape:pageshadow="2"
   inkscape:window-width="1920"
   inkscape:window-height="1017"
   id="namedview39"
   showgrid="false"
   inkscape:zoom="2.1881042"
   inkscape:cx="283.46457"
   inkscape:cy="78.584482"
   inkscape:window-x="-8"
   inkscape:window-y="-8"
   inkscape:window-maximized="1"
   inkscape:current-layer="svg37"
   inkscape:document-rotation="0" />
 <defs
   id="defs12">
  <style
   type="text/css"
   id="style10">
   <![CDATA[
    .fil0 {fill:#10171F;fill-rule:nonzero}
    .fil1 {fill:#10171F;fill-rule:nonzero}
    .fil2 {fill:#14C1DE;fill-rule:nonzero}
   ]]>
  </style>
 </defs>
 <g
   id="Capa_x0020_1"
   transform="translate(-3006.3335,-2413.8305)">
  <metadata
   id="CorelCorpID_0Corel-Layer" />
  <g
   id="_2172489393760">
   
   <g
   id="g21">
    <path
   class="fil1"
   d="m 7163.24,2470.15 h -64.86 c -212.83,0 -212.83,0 -335.45,212.83 L 5861.22,4248.09 4959.48,2682.98 c -122.61,-212.81 -122.6,-212.83 -335.43,-212.83 h -64.83 c -212.83,0 -212.83,0 -335.46,212.83 l -1147,1990.83 h 490.51 L 4202.05,3572 c 122.81,-212.72 122.61,-212.83 335.44,-212.83 h 108.21 c 212.83,0 212.83,0 335.44,212.83 l 512.19,888.98 c 122.67,212.81 122.64,212.83 335.46,212.83 h 64.85 c 212.81,0 214.59,1.03 338.06,-212.83 L 6743.89,3572 c 122.61,-212.83 122.61,-212.83 335.44,-212.83 l 808.93,-0.01 -389.58,-676.18 c -122.61,-212.83 -122.61,-212.83 -335.44,-212.83 z"
   id="path17" />
    <path
   class="fil2"
   d="m 7836.77,4673.79 h 64.85 c 212.83,0 212.83,0 335.46,-212.82 l 901.71,-1565.12 901.74,1565.12 c 122.61,212.81 122.59,212.82 335.42,212.82 h 64.84 c 212.83,0 212.83,0 335.45,-212.82 l 1147.01,-1990.83 h -490.51 l -634.79,1101.8 c -122.8,212.72 -122.61,212.83 -335.44,212.83 h -108.21 c -212.83,0 -212.83,0 -335.43,-212.83 l -512.19,-888.98 c -122.67,-212.81 -122.64,-212.82 -335.46,-212.82 h -64.85 c -212.82,0 -214.59,-1.03 -338.06,212.82 l -512.19,888.98 c -122.61,212.83 -122.61,212.83 -335.44,212.83 l -808.93,0.02 389.58,676.18 c 122.61,212.82 122.61,212.82 335.44,212.82 z"
   id="path19" />
   </g>
   <g
   id="g33">
    <g
   id="g27">
     
     
    </g>
    
    
   </g>
  </g>
 </g>
</svg>
