<?xml version="1.0" encoding="UTF-8" standalone="no"?>
<svg
   xmlns:dc="http://purl.org/dc/elements/1.1/"
   xmlns:cc="http://creativecommons.org/ns#"
   xmlns:rdf="http://www.w3.org/1999/02/22-rdf-syntax-ns#"
   xmlns:svg="http://www.w3.org/2000/svg"
   xmlns="http://www.w3.org/2000/svg"
   xmlns:sodipodi="http://sodipodi.sourceforge.net/DTD/sodipodi-0.dtd"
   xmlns:inkscape="http://www.inkscape.org/namespaces/inkscape"
   xml:space="preserve"
   width="149mm"
   height="38mm"
   version="1.1"
   style="clip-rule:evenodd;fill-rule:evenodd;image-rendering:optimizeQuality;shape-rendering:geometricPrecision;text-rendering:geometricPrecision"
   viewBox="0 0 14900 3800"
   id="svg37"
   sodipodi:docname="Logo-MW-fondo-oscuro.svg"
   inkscape:version="1.0.1 (3bc2e813f5, 2020-09-07)"><metadata
   id="metadata41"><rdf:RDF><cc:Work
       rdf:about=""><dc:format>image/svg+xml</dc:format><dc:type
         rdf:resource="http://purl.org/dc/dcmitype/StillImage" /><dc:title></dc:title></cc:Work></rdf:RDF></metadata><sodipodi:namedview
   pagecolor="#ffffff"
   bordercolor="#666666"
   borderopacity="1"
   objecttolerance="10"
   gridtolerance="10"
   guidetolerance="10"
   inkscape:pageopacity="0"
   inkscape:pageshadow="2"
   inkscape:window-width="1920"
   inkscape:window-height="1017"
   id="namedview39"
   showgrid="false"
   inkscape:zoom="1.5472233"
   inkscape:cx="361.05566"
   inkscape:cy="139.727"
   inkscape:window-x="-8"
   inkscape:window-y="-8"
   inkscape:window-maximized="1"
   inkscape:current-layer="svg37"
   inkscape:document-rotation="0"
   inkscape:lockguides="false" />
 <defs
   id="defs12">
  <style
   type="text/css"
   id="style10">
   <![CDATA[
    .fil0 {fill:#10171F;fill-rule:nonzero}
    .fil1 {fill:#10171F;fill-rule:nonzero}
    .fil2 {fill:#14C1DE;fill-rule:nonzero}
   ]]>
  </style>
 </defs>
 <g
   id="Capa_x0020_1"
   transform="matrix(1.6707612,0,0,1.6707612,-5054.7484,-4056.824)">
  <metadata
   id="CorelCorpID_0Corel-Layer" />
  <g
   id="_2172489393760">
   
   <g
   id="g21">
    <path
   class="fil1"
   d="m 7163.24,2470.15 h -64.86 c -212.83,0 -212.83,0 -335.45,212.83 L 5861.22,4248.09 4959.48,2682.98 c -122.61,-212.81 -122.6,-212.83 -335.43,-212.83 h -64.83 c -212.83,0 -212.83,0 -335.46,212.83 l -1147,1990.83 h 490.51 L 4202.05,3572 c 122.81,-212.72 122.61,-212.83 335.44,-212.83 h 108.21 c 212.83,0 212.83,0 335.44,212.83 l 512.19,888.98 c 122.67,212.81 122.64,212.83 335.46,212.83 h 64.85 c 212.81,0 214.59,1.03 338.06,-212.83 L 6743.89,3572 c 122.61,-212.83 122.61,-212.83 335.44,-212.83 l 808.93,-0.01 -389.58,-676.18 c -122.61,-212.83 -122.61,-212.83 -335.44,-212.83 z"
   id="path17"
   style="fill:#ffffff" />
    <path
   class="fil2"
   d="m 7836.77,4673.79 h 64.85 c 212.83,0 212.83,0 335.46,-212.82 l 901.71,-1565.12 901.74,1565.12 c 122.61,212.81 122.59,212.82 335.42,212.82 h 64.84 c 212.83,0 212.83,0 335.45,-212.82 l 1147.01,-1990.83 h -490.51 l -634.79,1101.8 c -122.8,212.72 -122.61,212.83 -335.44,212.83 h -108.21 c -212.83,0 -212.83,0 -335.43,-212.83 l -512.19,-888.98 c -122.67,-212.81 -122.64,-212.82 -335.46,-212.82 h -64.85 c -212.82,0 -214.59,-1.03 -338.06,212.82 l -512.19,888.98 c -122.61,212.83 -122.61,212.83 -335.44,212.83 l -808.93,0.02 389.58,676.18 c 122.61,212.82 122.61,212.82 335.44,212.82 z"
   id="path19" />
   </g>
   <g
   id="g33">
    <g
   id="g27">
     
     
    </g>
    
    
   </g>
  </g>
 </g>
<path
   style="fill:#ffffff;stroke-width:10.1013"
   d="M 121.26836,3703.4178 C 134.94825,3679.806 585.88599,2896.8261 1123.3527,1963.4624 1660.8189,1030.0986 2112.136,250.52814 2126.2791,231.08294 c 44.1627,-60.7179 86.7437,-101.9604 128.6723,-124.6265 38.3456,-20.729504 55.4705,-22.006504 335.9786,-25.053304 328.926,-3.5726 370.2365,1.9292 438.3613,58.383504 20.3186,16.8376 57.121,61.3134 81.7833,98.8352 24.6623,37.5216 398.2435,681.8775 830.1804,1431.90176 431.9366,750.0242 788.4557,1366.9893 792.2645,1371.0332 3.8104,4.0448 345.2741,-580.0658 758.8122,-1298.0214 906.0119,-1572.95476 866.7075,-1506.02036 919.5087,-1565.90676 81.1001,-91.982604 83.6024,-92.553704 421.6512,-96.225504 352.0403,-3.8237 380.0384,0.9094 455.7426,77.040104 54.9642,55.2739 58.6585,61.3829 494.2729,817.3245 l 333.0823,578.01346 -804.4878,2.8114 c -914.7946,3.2006 -851.5377,-2.9175 -935.4806,90.4486 -53.8486,59.8924 -44.2286,43.6888 -640.6181,1079.07 -260.8127,452.7923 -496.1791,852.7253 -523.0358,888.7399 -37.4425,50.2097 -62.7971,72.5896 -108.716,95.9628 l -59.8852,30.4815 H 4740.6029 4436.84 l -57.0221,-26.7341 c -66.2796,-31.0744 -111.2097,-82.9181 -194.0478,-223.9066 -29.99,-51.0423 -244.3117,-422.3606 -476.2706,-825.1515 -549.8124,-954.737 -551.2748,-957.1935 -605.5662,-1017.5792 -78.723,-87.5588 -84.0873,-88.5173 -495.4351,-88.5173 h -353.5468 l -53.7035,29.7495 c -36.6195,20.286 -68.7539,49.9898 -101.0133,93.375 -26.0207,34.9936 -306.3556,513.6677 -622.9669,1063.7201 L 901.61143,3746.3463 H 499.00352 96.396114 Z"
   id="path15" /></svg>
