<?xml version="1.0" encoding="UTF-8" standalone="no"?>
<svg
   xmlns:dc="http://purl.org/dc/elements/1.1/"
   xmlns:cc="http://creativecommons.org/ns#"
   xmlns:rdf="http://www.w3.org/1999/02/22-rdf-syntax-ns#"
   xmlns:svg="http://www.w3.org/2000/svg"
   xmlns="http://www.w3.org/2000/svg"
   xmlns:sodipodi="http://sodipodi.sourceforge.net/DTD/sodipodi-0.dtd"
   xmlns:inkscape="http://www.inkscape.org/namespaces/inkscape"
   width="42.090199mm"
   height="23.602936mm"
   viewBox="0 0 42.090199 23.602936"
   version="1.1"
   id="svg695"
   inkscape:version="1.0.1 (3bc2e813f5, 2020-09-07)"
   sodipodi:docname="Logo-MW-logotipo-dark.svg">
  <defs
     id="defs689" />
  <sodipodi:namedview
     id="base"
     pagecolor="#ffffff"
     bordercolor="#666666"
     borderopacity="1.0"
     inkscape:pageopacity="0.0"
     inkscape:pageshadow="2"
     inkscape:zoom="3.8551137"
     inkscape:cx="52.577363"
     inkscape:cy="49.658024"
     inkscape:document-units="mm"
     inkscape:current-layer="layer1"
     inkscape:document-rotation="0"
     showgrid="false"
     fit-margin-top="0"
     fit-margin-left="0"
     fit-margin-right="0"
     fit-margin-bottom="0"
     inkscape:window-width="1920"
     inkscape:window-height="1017"
     inkscape:window-x="-8"
     inkscape:window-y="-8"
     inkscape:window-maximized="1" />
  <metadata
     id="metadata692">
    <rdf:RDF>
      <cc:Work
         rdf:about="">
        <dc:format>image/svg+xml</dc:format>
        <dc:type
           rdf:resource="http://purl.org/dc/dcmitype/StillImage" />
        <dc:title></dc:title>
      </cc:Work>
    </rdf:RDF>
  </metadata>
  <g
     inkscape:label="Capa 1"
     inkscape:groupmode="layer"
     id="layer1"
     transform="translate(-227.62085,-167.40951)">
    <g
       id="g477"
       transform="matrix(0.35277777,0,0,-0.35277777,100.16595,298.98472)"
       style="display:inline">
      <path
         d="m 361.2895,331.2522 h 119.3108 v -0.4717 H 361.2895 Z"
         style="fill:#fefefe;fill-opacity:1;fill-rule:nonzero;stroke:none"
         id="path479" />
      <g
         id="g481">
        <path
           d="m 416.4948,372.9691 h -0.8569 c -2.8126,0 -2.8126,0 -4.4329,-2.8126 l -11.9154,-20.6818 -11.916,20.6818 c -1.6203,2.8123 -1.62,2.8126 -4.4325,2.8126 h -0.8567 c -2.8125,0 -2.8125,0 -4.4328,-2.8126 L 362.4948,343.849 h 6.4817 l 8.3883,14.5596 c 1.6228,2.8111 1.6202,2.8126 4.4325,2.8126 h 1.4298 c 2.8125,0 2.8125,0 4.4328,-2.8126 l 6.7683,-11.747 c 1.6208,-2.8123 1.6206,-2.8126 4.4328,-2.8126 h 0.8569 c 2.8123,0 2.8358,-0.0136 4.4671,2.8126 l 6.7683,11.747 c 1.6203,2.8126 1.6203,2.8126 4.4326,2.8126 h 10.6894 l -5.148,8.9353 c -1.62,2.8126 -1.62,2.8126 -4.4325,2.8126"
           style="fill:#fefefe;fill-opacity:1;fill-rule:nonzero;stroke:none"
           id="path483" />
        <path
           d="m 425.395,343.8493 h 0.8572 c 2.8122,0 2.8122,0 4.4328,2.8123 l 11.9154,20.6821 11.9158,-20.6821 c 1.6202,-2.8123 1.62,-2.8123 4.4325,-2.8123 h 0.8569 c 2.8123,0 2.8123,0 4.4328,2.8123 l 15.1569,26.3075 h -6.482 l -8.3883,-14.5596 c -1.6225,-2.8109 -1.62,-2.8123 -4.4325,-2.8123 h -1.4298 c -2.8126,0 -2.8126,0 -4.4326,2.8123 l -6.7682,11.7473 c -1.6212,2.8123 -1.6206,2.8123 -4.4329,2.8123 h -0.8569 c -2.8122,0 -2.8358,0.0136 -4.4674,-2.8123 l -6.7683,-11.7473 c -1.6202,-2.8123 -1.6202,-2.8123 -4.4325,-2.8123 l -10.6894,-3e-4 5.148,-8.9353 c 1.6202,-2.8123 1.6202,-2.8123 4.4325,-2.8123"
           style="fill:#3cbbdb;fill-opacity:1;fill-rule:nonzero;stroke:none"
           id="path485" />
      </g>
      <g
         id="g487">
        <g
           id="g489">
          <text
             transform="matrix(1,0,0,-1,394.3811,306.108)"
             style="font-variant:normal;font-weight:900;font-size:16.699px;font-family:Lato;-inkscape-font-specification:Lato-Black;writing-mode:lr-tb;fill:#3cbbdb;fill-opacity:1;fill-rule:nonzero;stroke:none"
             id="text493"><tspan
               x="0"
               y="0"
               id="tspan491">W</tspan></text>
          <text
             transform="translate(376.5745,318.2854)"
             style="font-variant:normal;font-weight:900;font-size:16.699px;font-family:Lato;-inkscape-font-specification:Lato-Black;writing-mode:lr-tb;fill:#fefefe;fill-opacity:1;fill-rule:nonzero;stroke:none"
             id="text497"><tspan
               x="0"
               y="0"
               id="tspan495">W</tspan></text>
        </g>
        <text
           transform="matrix(1,0,0,-1,415.3541,313.0381)"
           style="font-variant:normal;font-weight:normal;font-size:7.324px;font-family:Lato;-inkscape-font-specification:Lato-Regular;writing-mode:lr-tb;fill:#fefefe;fill-opacity:1;fill-rule:nonzero;stroke:none"
           id="text501"><tspan
             x="0 3.8817201 8.1369638 12.85362 17.833941 20.082409 25.099348 27.347816 33.192368 37.074089"
             y="0"
             sodipodi:role="line"
             id="tspan499">SERVICIOS</tspan></text>
        <text
           transform="matrix(1,0,0,-1,414.775,306.174)"
           style="font-variant:normal;font-weight:normal;font-size:7.324px;font-family:Lato;-inkscape-font-specification:Lato-Regular;writing-mode:lr-tb;fill:#fefefe;fill-opacity:1;fill-rule:nonzero;stroke:none"
           id="text505"><tspan
             x="0 2.2484679 7.7854118 13.300384 18.646904 22.528624 26.849785 31.566441 33.814907 38.795227 42.559765 46.815006"
             y="0"
             sodipodi:role="line"
             id="tspan503">INDUSTRIALES</tspan></text>
      </g>
    </g>
  </g>
</svg>
