<?xml version="1.0" encoding="UTF-8" standalone="no"?>
<svg
   xmlns:dc="http://purl.org/dc/elements/1.1/"
   xmlns:cc="http://creativecommons.org/ns#"
   xmlns:rdf="http://www.w3.org/1999/02/22-rdf-syntax-ns#"
   xmlns:svg="http://www.w3.org/2000/svg"
   xmlns="http://www.w3.org/2000/svg"
   xmlns:sodipodi="http://sodipodi.sourceforge.net/DTD/sodipodi-0.dtd"
   xmlns:inkscape="http://www.inkscape.org/namespaces/inkscape"
   version="1.1"
   id="svg2"
   width="1148.2633"
   height="1359.8497"
   viewBox="0 0 1148.2633 1359.8497"
   sodipodi:docname="nuestros-conocimientos.svg"
   inkscape:version="1.0.1 (3bc2e813f5, 2020-09-07)">
  <metadata
     id="metadata8">
    <rdf:RDF>
      <cc:Work
         rdf:about="">
        <dc:format>image/svg+xml</dc:format>
        <dc:type
           rdf:resource="http://purl.org/dc/dcmitype/StillImage" />
        <dc:title></dc:title>
      </cc:Work>
    </rdf:RDF>
  </metadata>
  <defs
     id="defs6" />
  <sodipodi:namedview
     pagecolor="#ffffff"
     bordercolor="#666666"
     borderopacity="1"
     objecttolerance="10"
     gridtolerance="10"
     guidetolerance="10"
     inkscape:pageopacity="0"
     inkscape:pageshadow="2"
     inkscape:window-width="1920"
     inkscape:window-height="1017"
     id="namedview4"
     showgrid="false"
     fit-margin-top="0"
     fit-margin-left="0"
     fit-margin-right="0"
     fit-margin-bottom="0"
     inkscape:zoom="0.38700475"
     inkscape:cx="755.66796"
     inkscape:cy="752.52333"
     inkscape:window-x="-8"
     inkscape:window-y="-8"
     inkscape:window-maximized="1"
     inkscape:current-layer="g10"
     inkscape:snap-bbox="true"
     inkscape:snap-center="false"
     inkscape:snap-object-midpoints="false"
     inkscape:snap-page="true"
     inkscape:snap-text-baseline="false"
     inkscape:snap-others="false"
     inkscape:snap-bbox-midpoints="true"
     inkscape:snap-bbox-edge-midpoints="true"
     inkscape:bbox-nodes="true"
     inkscape:bbox-paths="true" />
  <g
     inkscape:groupmode="layer"
     inkscape:label="Image"
     id="g10"
     transform="translate(-374.72868,546.75658)">
    <g
       id="g55"
       transform="matrix(1.9617212,0,0,1.9617212,-760.83434,-477.50471)">
      <path
         style="fill:#2fc1da;fill-opacity:1;fill-rule:evenodd;stroke-width:0.913563"
         d="m 816.99023,656.76836 c -4.41717,-1.995 -7.12175,-4.71886 -9.68475,-9.75378 -2.23997,-4.40034 -20.08394,-62.73414 -22.71771,-74.26652 -1.73684,-7.60504 -4.70171,-13.22923 -7.82019,-14.83443 -1.77982,-0.91614 -9.79352,-1.04199 -37.43677,-0.58793 -30.27215,0.49723 -36.35685,0.36958 -43.67566,-0.91628 -25.74136,-4.52258 -41.70115,-18.00171 -49.34189,-41.67264 -4.68045,-14.49998 -5.19074,-20.07204 -5.18719,-56.64093 l 0.003,-34.25863 -10.05252,-0.0669 c -12.08913,-0.0805 -20.217,-2.23162 -28.36171,-7.50633 -17.86212,-11.56794 -26.99441,-32.75525 -22.87698,-53.07559 3.44855,-17.01927 10.96279,-33.39361 32.52641,-70.87852 19.48214,-33.8666 20.51507,-37.1842 21.90959,-70.37018 1.3116,-31.21269 2.33874,-41.43531 5.4312,-54.05414 14.85248,-60.60575 50.70483,-115.575464 99.03644,-151.84515 29.28022,-21.9728639 67.24662,-38.778218 104.30878,-46.170976 34.45988,-6.873686 72.81479,-6.895402 106.90053,-0.06052 24.34473,4.881605 43.65373,11.528866 67.55979,23.2579341 26.7789,13.138569 47.3257,27.6593469 68.3793,48.3248099 43.0328,42.239397 68.7738,95.031332 76.8978,157.708972 1.6577,12.78895 1.904,43.15522 0.4558,56.18415 -2.3984,21.57711 -7.8411,45.18691 -15.0578,65.31977 -8.9439,24.95101 -26.433,56.56126 -40.3751,72.97517 -13.9334,16.40348 -13.8862,15.9042 -4.1077,43.50418 2.0472,5.77829 9.0822,28.18343 15.6332,49.7892 6.5511,21.60578 12.9286,42.04733 14.1722,45.4257 3.369,9.15228 4.2834,16.18638 2.8317,21.78306 -1.3365,5.15215 -5.4284,10.06604 -10.5722,12.69569 -4.8598,2.48457 -24.7677,8.77377 -68.0604,21.50131 -75.96326,22.33231 -108.99982,32.33249 -153.93547,46.59632 -72.70241,23.0778 -80.05319,24.93224 -86.782,21.89319 z m 26.48682,-43.82792 c 14.36199,-2.07747 34.6229,-8.32066 74.9122,-23.08343 28.8771,-10.58112 44.12806,-15.10803 60.52358,-17.9651 1.88422,-0.32834 3.42586,-1.05488 3.42586,-1.61452 0,-0.55965 -1.57729,-3.11042 -3.50508,-5.66838 -4.57162,-6.06602 -5.63055,-8.1375 -5.63055,-11.01439 0,-5.36046 5.81512,-4.00651 12.38231,2.88301 6.74807,7.07927 9.15616,8.49197 14.48763,8.49912 4.211,0.005 22.7062,-5.48912 24.6303,-7.31748 1.2479,-1.18571 -2.4993,-5.9403 -13.7347,-17.42737 -10.6094,-10.847 -12.19112,-13.70137 -9.0412,-16.31558 2.4194,-2.00789 7.2967,1.51623 18.2648,13.19726 15.8764,16.90841 19.4117,17.91051 38.6357,10.95142 8.8386,-3.19955 9.2898,-3.48732 8.3689,-5.33679 -0.5354,-1.07517 -12.4367,-13.35062 -26.4473,-27.27876 -24.314,-24.17076 -27.4216,-27.88801 -26.1294,-31.25524 2.7841,-7.2553 14.9553,1.03194 35.0302,23.85173 15.7197,17.86906 24.8256,26.99813 28.8206,28.89388 5.7684,2.73729 14.409,1.53818 14.409,-1.99964 0,-3.1802 -5.4275,-18.46312 -8.918,-25.1117 -5.2532,-10.00611 -12.6604,-19.37074 -27.1524,-34.32814 -13.3123,-13.73963 -14.9347,-16.28 -12.1658,-19.0489 3.1954,-3.19542 8.4129,-0.0671 21.5144,12.89938 5.1502,5.09716 9.3641,8.66863 9.3641,7.9366 0,-1.48616 -9.7699,-33.75965 -16.1805,-53.4502 -3.2274,-9.91294 -4.1827,-14.22836 -4.2473,-19.18483 -0.1063,-8.16297 1.43,-11.14683 11.3031,-21.95238 25.2922,-27.68086 45.4644,-65.93752 53.3818,-101.23848 15.3603,-68.48675 -1.2171,-141.31328 -44.3156,-194.68332 C 1017.2984,14.750487 913.73082,-14.987935 823.83543,14.525625 790.14577,25.586279 762.1663,43.156544 737.03275,69.03508 c -31.71802,32.6582 -52.10774,71.38834 -61.81364,117.41459 -1.93482,9.17512 -2.0917,12.18047 -2.11479,40.51463 l -0.0249,30.60438 -3.00456,8.63534 c -3.98825,11.46256 -11.63872,27.30321 -22.80323,47.21511 -16.71569,29.81243 -27.55623,50.89114 -28.62203,55.6536 -1.46614,6.55144 -0.0156,10.66922 4.90549,13.92593 3.69742,2.44688 3.882,2.46998 20.6984,2.58956 19.29915,0.13724 23.34367,0.91282 28.35101,5.43666 7.28481,6.58139 9.45571,16.3641 8.54651,38.51304 l -0.56511,13.76689 10.87282,-0.14137 c 12.28533,-0.15975 15.45769,0.93487 19.32019,6.66644 2.59897,3.85662 2.59685,6.27414 -0.009,10.18639 -3.52665,5.2948 -7.7994,6.75424 -19.40116,6.62684 -6.59209,-0.0723 -10.2801,0.24556 -10.72038,0.92419 -0.36916,0.569 -0.67748,7.43479 -0.68518,15.25734 -0.0173,17.56679 1.09418,22.10563 6.8137,27.82515 7.2377,7.2377 6.92545,7.20048 61.68957,7.35381 42.80528,0.11985 48.35498,0.30044 51.61634,1.67967 4.75987,2.01295 8.34941,5.48756 10.9342,10.58409 2.99484,5.90507 20.13475,61.28652 23.82307,76.97567 1.30197,5.53829 1.97894,7.00105 3.09614,6.69007 0.78639,-0.21889 3.27978,-0.66559 5.54085,-0.99266 z"
         id="path39" />
      <path
         style="fill:#2fc1da;fill-opacity:1;fill-rule:evenodd;stroke-width:0.913563"
         d="m 947.91784,375.94009 c -18.01869,-4.88018 -31.91731,-16.05537 -40.23782,-32.35322 l -3.33791,-6.53817 -0.62884,-18.5681 -0.62884,-18.56809 -3.08196,-3.19575 c -4.12209,-4.27428 -13.38003,-9.93775 -27.6252,-16.8995 -10.11825,-4.94488 -12.47004,-5.74817 -16.90512,-5.7742 -4.71441,-0.0277 -5.9845,0.46241 -14.96073,5.77295 -13.0825,7.73987 -18.25749,9.2765 -31.146,9.24827 -12.34944,-0.027 -16.24973,-0.84906 -25.73551,-5.42389 -13.34568,-6.4364 -24.43034,-18.89682 -29.44537,-33.09995 -1.81252,-5.13324 -2.4544,-9.02874 -2.77873,-16.86362 -0.79987,-19.32254 3.99362,-32.08776 16.82557,-44.80699 12.01742,-11.91186 23.71215,-16.71934 40.67175,-16.71934 13.04148,0 19.32984,2.04984 34.36617,11.20247 9.97815,6.07371 14.1629,6.57863 22.43625,2.70706 7.28376,-3.40848 25.71575,-15.55171 31.32662,-20.63838 4.90017,-4.44236 5.72205,-7.37575 5.79361,-20.67805 0.0697,-12.95327 1.38796,-19.52929 5.67114,-28.28954 6.82477,-13.95849 21.34947,-25.87349 37.23665,-30.54622 6.72685,-1.9785 23.58783,-1.9709 30.27276,0.0136 16.58343,4.92308 29.79707,16.92247 37.77297,34.30183 4.3744,9.53168 5.377,15.10515 4.9123,27.30631 -0.4743,12.45245 -2.3322,18.41054 -8.6142,27.62469 -5.6818,8.33383 -13.86525,15.49136 -22.71411,19.86659 -10.78728,5.33366 -17.18736,6.68027 -29.23403,6.15097 -11.82958,-0.51974 -16.70428,-2.18347 -30.04259,-10.25344 -10.71512,-6.48288 -13.9907,-7.07415 -21.1167,-3.81176 -10.48159,4.79863 -31.97067,17.58712 -36.27257,21.58637 l -4.42213,4.11104 0.71939,18.89751 c 0.7002,18.39348 0.77994,18.96247 2.98951,21.33292 5.1199,5.49265 39.84592,23.58893 45.31503,23.6144 1.92586,0.009 6.40397,-2.12029 13.82937,-6.57557 16.7612,-10.05683 29.56962,-12.45381 45.19423,-8.45771 21.31489,5.45143 37.1361,20.67803 43.2159,41.59161 2.3549,8.10076 1.5507,26.09725 -1.5574,34.84825 -5.9361,16.71359 -21.32011,31.62162 -38.21043,37.02812 -8.63873,2.76521 -21.44863,3.13273 -29.85303,0.85649 z m 30.22228,-24.6199 c 6.82591,-3.36039 11.68284,-8.37697 15.03785,-15.5322 2.18183,-4.65319 2.40739,-6.16139 2.40739,-16.097 0,-9.98155 -0.21915,-11.43031 -2.4484,-16.18658 -3.01349,-6.42947 -9.74753,-13.7757 -15.82287,-17.26133 -4.40983,-2.53005 -4.99608,-2.621 -16.94994,-2.62928 -11.42801,-0.008 -12.73987,0.16971 -17.02484,2.305 -6.50361,3.24088 -13.23163,10.64636 -15.76384,17.35112 -2.76223,7.3138 -2.81069,18.50945 -0.11716,27.0682 3.32726,10.57243 12.64148,20.71884 21.72035,23.66095 1.40561,0.4555 7.18542,0.68477 12.84402,0.50948 9.34528,-0.2895 10.82269,-0.58176 16.11744,-3.18836 z M 817.5011,266.16843 c 10.59315,-1.93984 19.25175,-8.77892 23.98616,-18.94572 2.14669,-4.60985 2.41543,-6.29865 2.42415,-15.23381 0.009,-9.41914 -0.17358,-10.43719 -2.91515,-16.23752 -5.75365,-12.17292 -16.88752,-20.3801 -28.64985,-21.11882 -17.04024,-1.07019 -29.60449,5.36976 -35.73051,18.31411 -9.67493,20.4432 2.15301,48.42983 22.55332,53.36445 4.2136,1.01923 12.3319,0.95604 18.33188,-0.14269 z m 151.20591,-87.6366 c 18.62462,-3.53209 29.94378,-20.24515 27.21465,-40.18318 -1.55552,-11.36405 -10.36874,-24.43259 -19.30888,-28.63189 -9.00549,-4.22999 -23.96857,-4.04555 -33.28084,0.41022 -21.11165,10.10161 -24.53029,41.6176 -6.46318,59.58316 8.74574,8.69656 18.3971,11.37075 31.83825,8.82169 z"
         id="path51" />
    </g>
  </g>
</svg>
