<?xml version="1.0" encoding="UTF-8" standalone="no"?>
<svg
   xmlns:dc="http://purl.org/dc/elements/1.1/"
   xmlns:cc="http://creativecommons.org/ns#"
   xmlns:rdf="http://www.w3.org/1999/02/22-rdf-syntax-ns#"
   xmlns:svg="http://www.w3.org/2000/svg"
   xmlns="http://www.w3.org/2000/svg"
   xmlns:sodipodi="http://sodipodi.sourceforge.net/DTD/sodipodi-0.dtd"
   xmlns:inkscape="http://www.inkscape.org/namespaces/inkscape"
   version="1.1"
   id="svg2"
   width="1148.2633"
   height="828.21155"
   viewBox="0 0 1148.2633 828.21153"
   sodipodi:docname="nuestros-valores.svg"
   inkscape:version="1.0.1 (3bc2e813f5, 2020-09-07)">
  <metadata
     id="metadata8">
    <rdf:RDF>
      <cc:Work
         rdf:about="">
        <dc:format>image/svg+xml</dc:format>
        <dc:type
           rdf:resource="http://purl.org/dc/dcmitype/StillImage" />
        <dc:title></dc:title>
      </cc:Work>
    </rdf:RDF>
  </metadata>
  <defs
     id="defs6" />
  <sodipodi:namedview
     pagecolor="#ffffff"
     bordercolor="#666666"
     borderopacity="1"
     objecttolerance="10"
     gridtolerance="10"
     guidetolerance="10"
     inkscape:pageopacity="0"
     inkscape:pageshadow="2"
     inkscape:window-width="1920"
     inkscape:window-height="1017"
     id="namedview4"
     showgrid="false"
     fit-margin-top="0"
     fit-margin-left="0"
     fit-margin-right="0"
     fit-margin-bottom="0"
     inkscape:zoom="0.38700475"
     inkscape:cx="755.66784"
     inkscape:cy="752.52334"
     inkscape:window-x="-8"
     inkscape:window-y="-8"
     inkscape:window-maximized="1"
     inkscape:current-layer="g10"
     inkscape:snap-bbox="true"
     inkscape:snap-center="false"
     inkscape:snap-object-midpoints="false"
     inkscape:snap-page="true"
     inkscape:snap-text-baseline="false"
     inkscape:snap-others="false"
     inkscape:snap-bbox-midpoints="true"
     inkscape:snap-bbox-edge-midpoints="true"
     inkscape:bbox-nodes="true"
     inkscape:bbox-paths="true" />
  <g
     inkscape:groupmode="layer"
     inkscape:label="Image"
     id="g10"
     transform="translate(-374.7288,546.75659)">
    <g
       id="g100"
       transform="matrix(1.1631769,0,0,1.1631769,-1667.3461,-395.97914)">
      <path
         style="fill:#2fc1da;fill-opacity:1;fill-rule:evenodd;stroke-width:2.58395"
         d="m 1828.0061,1122.3311 c -14.9223,-3.9647 -114.3397,-32.0813 -220.9275,-62.4815 l -193.7961,-55.2729 -11.8417,-11.77792 c -26.4603,-26.31771 -27.515,-65.40448 -2.4415,-90.478 12.125,-12.12499 25.7708,-18.01612 41.7313,-18.01612 4.8185,0 44.218,10.00814 87.5545,22.24031 43.3364,12.23218 82.5725,23.27855 87.1913,24.54751 4.6188,1.26895 12.7583,3.55086 18.0877,5.07091 5.3294,1.52005 12.0306,3.34712 14.8917,4.06016 4.6424,1.157 5.208,3.43048 5.2593,21.13779 0.097,33.38041 16.0551,59.38926 45.6383,74.38026 16.9179,8.573 47.0434,11.1934 63.2903,5.5052 5.9752,-2.092 38.2326,-19.1685 71.683,-37.9478 66.9202,-37.56952 62.6898,-33.32778 51.0834,-51.21996 l -3.8065,-5.86812 -15.817,8.74117 c -31.6863,17.51132 -42.1549,23.40022 -68.5106,38.5394 -45.7686,26.29031 -55.3585,29.01151 -78.1615,22.17961 -21.9476,-6.5756 -41.0837,-33.31293 -40.9206,-57.17488 0.072,-10.53054 7.7703,-27.35426 15.7521,-34.42401 8.3464,-7.39277 291.4715,-163.42761 305.2629,-168.23532 21.0943,-7.35352 41.954,-3.69814 142.7469,25.01436 192.8593,54.93915 226.0954,64.65595 226.0954,66.10059 0,2.30081 -37.4099,134.74328 -54.4809,192.87936 -4.9802,16.9602 -5.2081,17.2436 -12.1186,15.0681 -3.8737,-1.2194 -13.4383,-4.0521 -21.2547,-6.2948 -126.3642,-36.2567 -168.1141,-48.0222 -170.4069,-48.0222 -1.5161,0 -16.4105,8.5399 -33.0985,18.9777 -39.4425,24.6696 -140.5544,86.6523 -156.2732,95.797 -27.4296,15.9578 -51.7048,17.7898 -92.4123,6.9741 z"
         id="path85"
         transform="translate(374.72868,-546.75658)" />
      <path
         style="fill:#2fc1da;fill-opacity:1;fill-rule:evenodd;stroke-width:2.58395"
         d="m 1549.5406,751.79937 c -54.335,-54.40268 -98.7908,-100.88199 -98.7908,-103.28735 0,-4.00109 67.0747,-80.5226 90.5916,-103.35049 l 9.9822,-9.6898 h 102.0219 102.0219 l 6.2696,5.81388 c 8.3025,7.69911 81.8564,89.02991 89.0507,98.46617 4.6528,6.10286 5.1154,8.34158 2.6694,12.91973 -5.661,10.59577 -195.07,198.04183 -200.1156,198.04183 -3.0181,0 -42.977,-38.11442 -103.7009,-98.91397 z m 124.5511,8.4758 c 9.4157,-22.02815 18.2148,-42.37674 19.5535,-45.21908 10.0833,-21.40976 22.4608,-52.89997 21.2635,-54.09732 -0.8017,-0.80165 -28.589,-1.45755 -61.7497,-1.45755 -67.155,0 -63.8257,-1.10571 -55.4186,18.40515 2.6804,6.22063 14.1923,32.82161 25.5819,59.11327 11.3897,26.29167 22.5953,52.36932 24.9013,57.95033 2.4923,6.03204 5.1165,9.1758 6.4706,7.75184 1.2529,-1.3175 9.9817,-20.41848 19.3975,-42.44664 z m -61.3858,12.27375 c -0.762,-1.77646 -5.3768,-12.53391 -10.2551,-23.90544 -4.8784,-11.37152 -11.2225,-25.90623 -14.098,-32.29934 -2.8755,-6.39311 -9.5695,-21.79813 -14.8754,-34.23338 l -9.6472,-22.60954 h -33.2847 c -18.3066,0 -33.2847,0.86239 -33.2847,1.91641 0,2.71072 111.8779,114.36123 114.5941,114.36123 1.2301,0 1.613,-1.45347 0.851,-3.22994 z m 141.5577,-53.37773 c 30.6102,-30.42363 55.6549,-56.32916 55.6549,-57.56783 0,-1.23868 -15.3132,-1.9277 -34.0292,-1.53116 l -34.0292,0.72099 -23.9654,55.55487 c -13.181,30.55518 -24.0304,56.52386 -24.1097,57.70817 -0.3273,4.88819 7.3359,-2.06628 60.4786,-54.88504 z M 1580.8038,599.84116 c 9.477,-20.0225 17.231,-37.46414 17.231,-38.75922 0,-1.29507 -8.6269,-2.35468 -19.1709,-2.35468 h -19.1709 l -31.8621,35.10266 c -17.5241,19.30647 -32.238,36.74812 -32.6975,38.75922 -0.6883,3.01246 5.2658,3.65655 33.802,3.65655 h 34.6374 z m 133.5086,33.76465 c 0,-1.45193 -4.7887,-12.789 -10.6416,-25.19349 -5.8529,-12.40448 -13.4143,-28.69883 -16.803,-36.20965 l -6.1614,-13.65604 -26.2034,0.7363 c -20.0044,0.56211 -26.7331,1.65324 -28.4426,4.61222 -7.5398,13.0508 -32.4774,68.80691 -31.4929,70.41258 1.8883,3.07948 119.7449,2.38863 119.7449,-0.70192 z m 97.7594,0.19421 c -0.4737,-1.34513 -14.8147,-18.19167 -31.8687,-37.43674 l -31.0074,-34.99106 -20.0256,-0.0305 c -11.0141,-0.0168 -20.0256,1.00577 -20.0256,2.27234 0,1.26657 7.5189,18.12683 16.7086,37.46724 l 16.7086,35.1644 h 35.1857 c 21.015,0 34.8388,-0.98497 34.3244,-2.44568 z"
         id="path87"
         transform="translate(374.72868,-546.75658)" />
      <path
         style="fill:#2fc1da;fill-opacity:1;fill-rule:evenodd;stroke-width:2.58395"
         d="m 1539.4765,503.81837 c -7.9979,-8.94843 -34.4638,-47.63699 -34.4638,-50.37994 0,-4.24497 9.2337,-10.98881 15.0459,-10.98881 4.1991,0 9.2268,5.62948 20.1504,22.56234 20.173,31.27074 20.8963,33.1477 15.2001,39.4419 -6.0362,6.67 -9.5277,6.53073 -15.9326,-0.63549 z"
         id="path89"
         transform="translate(374.72868,-546.75658)" />
      <path
         style="fill:#2fc1da;fill-opacity:1;fill-rule:evenodd;stroke-width:2.58395"
         d="m 1645.2124,488.31469 c -1.4026,-1.77647 -3.301,-16.16763 -4.2188,-31.98037 -1.4854,-25.59306 -1.1461,-29.39578 3.0898,-34.62685 5.9769,-7.38116 17.1456,-5.50678 19.498,3.27224 2.9427,10.98208 1.807,60.19247 -1.4647,63.46417 -4.0478,4.0478 -13.6644,3.97431 -16.9043,-0.12919 z"
         id="path91"
         transform="translate(374.72868,-546.75658)" />
      <path
         style="fill:#2fc1da;fill-opacity:1;fill-rule:evenodd;stroke-width:2.58395"
         d="m 1752.4257,506.84134 c -2.4871,-1.44858 -4.522,-5.4798 -4.522,-8.95827 0,-7.40199 31.5499,-50.60342 39.0075,-53.41329 7.0286,-2.64818 12.47,0.15344 14.2764,7.35038 1.2337,4.91551 -1.82,10.66937 -14.5905,27.49242 -15.7876,20.79734 -24.677,30.39908 -27.9978,30.2411 -0.9085,-0.0432 -3.6866,-1.26377 -6.1736,-2.71234 z"
         id="path93"
         transform="translate(374.72868,-546.75658)" />
    </g>
  </g>
</svg>
