<?xml version="1.0" encoding="UTF-8" standalone="no"?>
<svg
   xmlns:dc="http://purl.org/dc/elements/1.1/"
   xmlns:cc="http://creativecommons.org/ns#"
   xmlns:rdf="http://www.w3.org/1999/02/22-rdf-syntax-ns#"
   xmlns:svg="http://www.w3.org/2000/svg"
   xmlns="http://www.w3.org/2000/svg"
   xmlns:sodipodi="http://sodipodi.sourceforge.net/DTD/sodipodi-0.dtd"
   xmlns:inkscape="http://www.inkscape.org/namespaces/inkscape"
   version="1.1"
   id="svg2"
   width="259.3656"
   height="332.94537"
   viewBox="0 0 259.36559 332.94537"
   sodipodi:docname="proyectos-y-obras-electricas.svg"
   inkscape:version="1.0.1 (3bc2e813f5, 2020-09-07)">
  <metadata
     id="metadata8">
    <rdf:RDF>
      <cc:Work
         rdf:about="">
        <dc:format>image/svg+xml</dc:format>
        <dc:type
           rdf:resource="http://purl.org/dc/dcmitype/StillImage" />
        <dc:title></dc:title>
      </cc:Work>
    </rdf:RDF>
  </metadata>
  <defs
     id="defs6" />
  <sodipodi:namedview
     pagecolor="#ffffff"
     bordercolor="#666666"
     borderopacity="1"
     objecttolerance="10"
     gridtolerance="10"
     guidetolerance="10"
     inkscape:pageopacity="0"
     inkscape:pageshadow="2"
     inkscape:window-width="1920"
     inkscape:window-height="1017"
     id="namedview4"
     showgrid="false"
     fit-margin-top="0"
     fit-margin-left="0"
     fit-margin-right="0"
     fit-margin-bottom="0"
     inkscape:zoom="0.75735985"
     inkscape:cx="637.93713"
     inkscape:cy="113.43697"
     inkscape:window-x="-8"
     inkscape:window-y="-8"
     inkscape:window-maximized="1"
     inkscape:current-layer="g10"
     inkscape:document-rotation="0" />
  <g
     inkscape:groupmode="layer"
     inkscape:label="Image"
     id="g10"
     transform="translate(208.09999,-14.440407)">
    <path
       style="fill:#2ac1db;stroke:none"
       d="m -132.61508,15.406846 c -6.2014,1.5504 -8.7455,8.9699 -12.3333,13.6667 -4.8689,6.3738 -11.2952,12.7995 -17.6667,17.6667 -5.7833,4.4178 -12.8776,8.3183 -20,10 -8.5931,2.0289 -18.5657,-0.0159 -23.5,9.3333 -3.287,6.2279 -1.5,16.1792 -1.5,23 v 51.000004 c 0,25.851 -1.4925,52.363 1,78 3.7862,38.944 23.9149,76.489 55,100.667 10.7037,8.325 22.5108,14.636 35,19.666 20.427003,8.228 39.479003,12.507 61.000003,5.334 40.905,-13.635 80.005,-42.443 94.667,-84.667 5.647,-16.263 8.677,-31.969 10.333,-49 1.097,-11.279 1,-22.581 1,-34 0,-3.936 1.142,-9.931 -2.167,-12.833 -4.131,-3.624 -10.297,0.012 -10.833,4.833 -1.171,10.54 1.026,21.443 0,32 -1.331,13.689 -3.322,26.621 -6.667,40 -9.73,38.921 -39.6529996,70.05 -76.333,85.333 -9.91,4.129 -21.149,8.763 -32,9.667 -6.736,0.561 -14.757,-2.586 -21,-4.667 -14.352003,-4.784 -28.748503,-10.478 -41.000003,-19.666 -9.8868,-7.415 -19.1481,-15.825 -26.6667,-25.667 -33.374,-43.69 -28.3333,-98.984 -28.3333,-151 V 90.073546 c 0,-4.3718 -1.7198,-13.4785 1.1667,-17 2.9458,-3.5939 10.6445,-2.3443 14.8333,-3.3333 6.7482,-1.5934 14.2659,-5.257 20,-9 8.0019,-5.2235 15.7136,-12.3231 21.8333,-19.6667 3.4455,-4.1346 5.6726,-10.759 11.1667,-12.6667 7.388,-2.5652 19.177,-0.3333 27.000003,-0.3333 h 61 c 10.68,0 13.53,8.833 20,16 8.8360004,9.787 19.2230004,17.2722 31,22.8333 4.869,2.2991 9.85,2.8319 15,3.8334 2.814,0.5471 5.784,-0.1665 7.833,2.3333 2.04,2.4885 1.167,6.9903 1.167,10 0,8.3087 -0.346,16.7 0,25.000004 0.19,4.552 3.87,9.582 9,7.5 5.59,-2.268 4,-9.662 4,-14.5 0,-11.384404 4.797,-35.565304 -8,-41.500004 -5.336,-2.4745 -11.557,-1.2459 -17,-2.8333 -7.109,-2.0734 -14.046,-5.4516 -19.9999996,-10 -6.17699997,-4.7188 -12.948,-11.4895 -17.6670004,-17.6667 -3.158,-4.1344 -5.405,-10.7097 -10.333,-13 -3.079,-1.4312 -6.708,-1 -10,-1 h -20 -54.000003 c -8.077,0 -18.1629,-1.6259 -26,0.3333 m 16,33 c -5.0633,1.3209 -8.8922,7.8809 -12.3333,11.5 -4.4493,4.6795 -9.6059,8.9935 -14.6667,13 -5.735,4.5403 -12.3205,8.198 -19,11.1667 -4.022,1.7876 -8.9892,2.0693 -11.6667,6 -2.3548,3.457 -1.3333,9.022 -1.3333,13.000004 v 31 c 0,44.071 -3.9564,88.977 17.1667,129 11.7989,22.356 34.2021,37.218 56.8333,46.333 8.625003,3.474 19.475003,7.583 29.000003,5.334 11.311,-2.671 22.796,-7.448 33,-12.834 6.846,-3.613 12.965,-8.722 19,-13.5 41.831,-33.116 39,-89.449 39,-137.333 v -43 c 0,-4.598 1.598,-12.863004 -0.5,-17.000004 -2.147,-4.2339 -6.633,-4.6091 -10.4999996,-6.1667 -6.93499997,-2.7933 -14.015,-6.678 -20.0000004,-11.1666 -6.577,-4.9325 -12.198,-10.865 -18,-16.6667 -2.496,-2.4955 -4.807,-6.4731 -8,-8 -5.878,-2.8114 -15.6,-1 -22,-1 h -38 c -5.622003,0 -12.547003,-1.0891 -18.000003,0.3333 m 6,12.8334 c 4.273,-1.3056 10.53,-0.1667 15.000003,-0.1667 h 33 c 4.624,0 12.83,-1.5852 17,0.5 3.772,1.8861 7.043,6.5426 10,9.5 5.357,5.3565 10.862,10.2335 17,14.6667 4.976,3.5938 10.5860004,6.4593 16.0000004,9.1663 2.73200003,1.366 6.485,1.954 7.667,5.167004 1.716,4.668 0.333,12.05 0.333,17 v 37 c 0,43.222 1.776,88.224 -31.0000004,121 -5.283,5.283 -11.405,10.261 -18,13.833 -8.855,4.797 -18.224,9.118 -28,11.834 -9.642,2.678 -18.028,-0.72 -27,-4.334 -21.600603,-8.7 -39.789203,-23.407 -50.833303,-44.333 -9.4287,-17.865 -10.2613,-36.402 -12.1667,-56 -1.7627,-18.131 -1,-36.691 -1,-55 v -28 c 0,-3.847 -1.0055,-9.358 0.3333,-13 1.5066,-4.098004 9.9909,-6.278004 13.6667,-8.166704 9.2159,-4.7359 17.6721,-11.5054 25,-18.8333 3.5186,-3.5186 8.159,-10.3541 13,-11.8333 m 18.000003,139.833304 c 1.124,14.236 1,28.605 1,43 0,4.368 -1.613,12.55 2.167,15.667 8.467,6.981 15.72,-11.573 18.833,-16.667 11.044,-18.073 22.095,-36.406 32.167,-55 3.078,-5.682 10.307,-13.177 9.833,-20 -0.404,-5.815 -5.397,-6 -10,-6 h -18 c -3.778,0 -7.177,0.231 -8.667,-4 -1.394,-3.96 -0.333,-9.831 -0.333,-14 v -29 c 0,-5.519 1.096,-13.562 -7,-13 -5.409,0.376 -6.985,6.067 -9.333,10 -5.752,9.631 -11.267,19.399 -17,29 -8.342003,13.967 -16.792003,27.877 -24.833703,42 -2.6199,4.601 -7.7792,11.054 -2.8333,16 2.7043,2.704 6.5036,2 10,2 h 24.000003 m 135,-68.667 c -8.546,2.648 -4.634,15.253 4,12.5 7.335,-2.338 3.184,-14.726 -4,-12.5 m -121,3.667 c 0,9.842 -0.952,20.211 0,30 0.366,3.766 2.239,7.361 6,8.667 7.771,2.698 17.388,-1.872 25,1.333 -1.153,5.478 -5.201,10.202 -8,15 -4.656,7.982 -9.273,15.992 -13.833,24 -2.214,3.887 -4.448,10.461 -9.167,11 v -27 c 0,-3.705 -0.24,-8.509 -4,-10.5 -1.937,-1.025 -4.887,-0.5 -7,-0.5 -6.172,0 -14.385003,1.364 -20.000003,-1 l 10.667003,-20 18.333,-31 z"
       id="path100" />
  </g>
</svg>
