<?xml version="1.0" encoding="UTF-8" standalone="no"?>
<svg
   xmlns:dc="http://purl.org/dc/elements/1.1/"
   xmlns:cc="http://creativecommons.org/ns#"
   xmlns:rdf="http://www.w3.org/1999/02/22-rdf-syntax-ns#"
   xmlns:svg="http://www.w3.org/2000/svg"
   xmlns="http://www.w3.org/2000/svg"
   xmlns:sodipodi="http://sodipodi.sourceforge.net/DTD/sodipodi-0.dtd"
   xmlns:inkscape="http://www.inkscape.org/namespaces/inkscape"
   version="1.1"
   id="svg2"
   width="323.00369"
   height="322.06775"
   viewBox="0 0 323.00368 322.06775"
   sodipodi:docname="sistemas-control-automatizacion.svg"
   inkscape:version="1.0.1 (3bc2e813f5, 2020-09-07)">
  <metadata
     id="metadata8">
    <rdf:RDF>
      <cc:Work
         rdf:about="">
        <dc:format>image/svg+xml</dc:format>
        <dc:type
           rdf:resource="http://purl.org/dc/dcmitype/StillImage" />
        <dc:title></dc:title>
      </cc:Work>
    </rdf:RDF>
  </metadata>
  <defs
     id="defs6" />
  <sodipodi:namedview
     pagecolor="#ffffff"
     bordercolor="#666666"
     borderopacity="1"
     objecttolerance="10"
     gridtolerance="10"
     guidetolerance="10"
     inkscape:pageopacity="0"
     inkscape:pageshadow="2"
     inkscape:window-width="1920"
     inkscape:window-height="1017"
     id="namedview4"
     showgrid="false"
     fit-margin-top="0"
     fit-margin-left="0"
     fit-margin-right="0"
     fit-margin-bottom="0"
     inkscape:zoom="0.75735985"
     inkscape:cx="348.54471"
     inkscape:cy="103.98368"
     inkscape:window-x="-8"
     inkscape:window-y="-8"
     inkscape:window-maximized="1"
     inkscape:current-layer="g10"
     inkscape:document-rotation="0" />
  <g
     inkscape:groupmode="layer"
     inkscape:label="Image"
     id="g10"
     transform="translate(-81.292431,-23.893696)">
    <path
       style="fill:#2ec0d9;stroke:none"
       d="m 91.609461,345.73008 h 85.999999 27 c 4.478,0 9.628,0.699 14,-0.333 18.911,-4.465 35.963,-17.153 54,-24.167 9.004,-3.502 19.77,1.859 29,-2.5 4.189,-1.978 5.696,-7.151 10,-8.667 5.266,-1.854 13.435,-0.333 19,-0.333 h 44 c 8.106,0 18.368,1.965 24.667,-4.333 7.955,-7.955 4.633,-22.018 -5.667,-26.167 -2.912,-1.173 -6.904,-0.5 -10,-0.5 -8.162,0 -16.895,0.901 -25,0 -3.545,-0.394 -9.589,-5.001 -5.833,-8.833 2.222,-2.268 7.914,-1.167 10.833,-1.167 8.244,0 17.266,0.937 25,-2.5 14.923,-6.632 15,-20.535 15,-34.5 v -36 -67 c 0,-9.427 2.224,-22.1692 -1.333,-30.999997 -2.206,-5.4763 -5.628,-9.7807 -10.667,-13 -2.598,-1.66 -6.87,-2.1805 -8.5,-5 -2.696,-4.662902 -2.943,-11.892604 -5,-17.000004 -6.19,-15.3684 -20.768,-27.2967 -36.5,-31.6667 -24.707,-6.86305 -50.638,3.1765 -64.667,24.6667 -2.512,3.8494 -4.655,8.5989 -6,13 -1.102,3.608302 -0.507,9.348104 -4.333,11.500004 -4.461,2.5096 -14.908,0.5 -20,0.5 h -51 c 0,-23.256704 -14.543,-45.868904 -37,-53.666704 -28.9875,-10.06511 -65.975999,4.3804 -74.666699,35.6667 -4.33674,15.612404 -3.7322,32.601904 4.6667,47.000001 2.2309,3.8245 5.0374,7.718 8,11 1.4766,1.636 4.889099,3.715 5.333299,6 0.4442,2.284 -2.789599,4.386 -3.999999,6 -2.8652,3.82 -4.9041,9.359 -6,14 -1.3125,5.559 -0.3333,12.299 -0.3333,18 0,11.701 -1.1106,23.729 2.3333,35 2.7936,9.143 9.240399,17.788 16.666699,23.667 3.7559,2.973 11.2024,5.112 12,10.333 0.3824,2.503 0.6849,7.729 -0.5,10 -1.9834,3.801 -8.377,6.92 -11.5,10 -6.2195,6.133 -11.401299,12.893 -14.666699,21 -4.4848,11.135 -4.3333,22.21 -4.3333,34 v 37 M 138.60946,34.230079 c 11.1225,0.4634 22.5628,3.8831 31,11.5 19.16,17.297 21.383,52.105904 1,69.666701 -1.9961,1.7193 -5.3054,4.7553 -8,5.1663 -3.6772,0.562 -10.1374,-2.749 -14,-3.5 -5.6931,-1.107 -13.2151,-0.895 -19,-0.333 -5.0287,0.489 -11.0197,3.553 -16,3 -4.5455,-0.505 -8.7603,-5.6317 -11.3333,-9 -6.074799,-7.9525 -10.666699,-17.799097 -10.666699,-27.999997 0,-25.450504 20.129399,-49.619604 46.999999,-48.500004 m 179,5.6667 c 36.051,-6.0085 66.697,32.239202 50.833,65.833301 -4.034,8.5423 -9.972,14.76 -17.833,20 -5.517,3.678 -12.343,6.353 -19,7 -7.211,0.701 -15.178,0.036 -22,-2.333 -4.25,-1.476 -8.274,-4.131 -12,-6.667 -33.595,-22.8636 -18.702,-77.383001 20,-83.833301 m -175,1.8333 -15,44.000004 h -2 c -0.6378,-3.0294 -2.0764,-7.8555 -5,-9.500002 -2.088,-1.1745 -5.6894,-0.5 -8,-0.5 -5.8345,0 -12.3005,-1.1575 -11,7.000002 1.0631,6.6688 9.1831,2.0199 12.8333,5.1667 2.159,1.8611 3.0975,5.3616 4.3334,7.8333 2.8315,5.663097 5.464,11.665297 8.8333,16.999997 h 2 l 9.6667,-26.999997 5.3333,-11.000002 6.1667,16.500002 17.8333,0.5 4.833,-0.5 1.167,-7.5 -16.8333,-5 -4.1667,-11.000004 -9,-26 h -2 m 152,19 0.5,8.8333 h 9 l 0.5,-8.8333 h -10 m 21,0 1.167,9.5 8.833,0.5 h 22 l 8.667,-1.1667 0.333,-8.8333 h -41 m -19.833,20.500004 c -5.337,3.8421 1.095,14.7317 7.666,10 5.337,-3.8421 -1.095,-14.731702 -7.666,-10 m 21,0 c -2.313,1.6654 -1.909,9.3444 0.833,10.3333 2.481,0.8949 6.373,0.1667 9,0.1667 h 19 c 2.542,0 7.657,0.9786 9.833,-0.5 2.867,-1.9469 2.449,-9.1498 -0.833,-10.3333 -2.481,-0.8949 -6.373,-0.1667 -9,-0.1667 h -20 c -2.269,0 -6.91,-0.8849 -8.833,0.5 m 65.833,12.5 c 10.536,0.2773 11,13.015497 11,20.999997 v 73 20 c 0,2.307 0.577,5.752 -1.333,7.5 -2.705,2.475 -8.347,1.5 -11.667,1.5 h -31 -123 -34 c -3.255,0 -10.201,1.3 -12.667,-1.333 -1.757,-1.878 -0.247,-5.343 -0.666,-7.667 -1.531,-8.477 -2.667,-18.366 -2.667,-27 0,-2.516 -1.951,-7.76 -0.5,-9.833 1.586,-2.266 7.05,-1.024 9.5,-1.5 8.127,-1.581 15.762,-7.524 15,-16.667 -0.735,-8.817 -8.801,-14.203 -17,-15 -2.424,-0.236 -5.526,0.679 -7.833,-0.167 -2.241,-0.821 -5.535,-6.463 -4.667,-8.833 0.793,-2.165 3.511,-3.573 5.167,-5 3.043,-2.624 5.535,-5.832 8,-9 3.592,-4.6187 6.056,-9.5741 8.166,-14.999997 0.783,-2.0118 0.791,-5.2903 2.334,-6.8333 2.379,-2.3799 8.712,-1.1667 11.833,-1.1667 h 32 21 c 2.186,0 5.909,-0.7152 7.833,0.5 3.778,2.3861 4.381,13.364497 6.334,17.499997 5.112,10.826 14.092,21.165 24.833,26.833 35.479,18.725 76.869,-4.124 84,-42.832997 m -169.833,8.499997 c -2.313,1.6653 -1.909,9.3444 0.833,10.3333 2.997,1.0808 7.82,0.1667 11,0.1667 h 26 c 3.121,0 9.454,1.2131 11.833,-1.1667 1.999,-1.9989 2.081,-8.3057 -0.833,-9.5 -2.995,-1.2275 -7.805,-0.3333 -11,-0.3333 h -26 c -2.876,0 -9.434,-1.2273 -11.833,0.5 m 83,0 c -5.365,3.8627 1.038,14.346 7.666,9.6667 6.242,-4.4061 -1.455,-14.139097 -7.666,-9.6667 m 21,0 c -2.342,1.6863 -1.888,9.0514 0.833,10.1667 2.501,1.0251 6.343,0.3333 9,0.3333 h 20 c 2.702,0 7.459,0.8977 9.5,-1.3333 2.321,-2.5371 2.025,-8.2884 -1.5,-9.5 -2.525,-0.8681 -6.34,-0.1667 -9,-0.1667 h -19 c -2.473,0 -7.75,-1.0002 -9.833,0.5 m -105.167,30.5 h 21 14 l 15.833,-0.5 v -9 l -10.833,-0.5 h -28 l -10.833,0.5 -1.167,9.5 m -49,4 -18,6.167 -10,15.333 -9,0.5 h -23 c 0,-3.87 -0.5593,-8.22 0.3333,-12 3.9518,-16.737 20.4033,-19 34.6667,-19 9.2662,0 20.8942,-1.401 25,9 m 49,7 v 10 h 33 c 5.108,0 10.968,0.814 16,0 3.3,-0.534 4.399,-6.195 2.5,-8.833 -1.824,-2.534 -9.679,-1.167 -12.5,-1.167 h -39 m -64,14 c 0.9081,-2.465 2.0188,-5.926 4.1667,-7.667 2.1621,-1.752 5.2477,-1.333 7.8333,-1.333 h 17 c 4.073,0 12.317,-1.477 13.667,4 1.164,4.725 -4.322,5.954 -7.667,6 -7.663,0.106 -15.3359,0 -23,0 -4.048,0 -8.3281,0.546 -12,-1 m 235,-4 h -42 -29 -16 c -5.666,0 -14.689,-1.749 -20,0.167 -3.31,1.193 -2.749,8.711 0,10.333 2.032,1.199 5.732,0.5 8,0.5 h 18 55 17 c 2.072,0 5.035,0.542 7,-0.167 3.349,-1.207 2,-7.947 2,-10.833 m -171,11 v 41 h 37 l 13.833,-0.5 1.167,-8.5 v -23 l -1.167,-8.667 -12.833,-1.333 -38,1 m -97,5 -1.6667,18 9.1667,15 0.5,14 c -5.6396,-0.445 -9.0497,-4.701 -12.3333,-9 -8.8294,-11.558 -8.0247,-24.398 -7.6667,-38 h 12 m 39,67 -20,2 v -26 c 0,-3.704 0.7792,-8.416 -0.1667,-12 -0.8435,-3.197 -3.4844,-4.66 -5.5,-7 -4.7316,-5.492 -6.5268,-11.237 -3.3333,-18 4.5409,-9.616 21.1092,-6 30,-6 3.6482,0 9.0947,-1.276 10.6667,3 1.9154,5.21 0.8056,11.572 1.3333,17 0.7944,8.171 6.226,23.292 -2,29.333 -5.3106,3.9 -16.7963,-1.712 -20.5,4.667 -0.4871,0.839 -0.5521,2.062 -0.5,3 0.3887,6.997 5.1282,2.832 8.8333,5.5 1.4499,1.044 1.1262,2.959 1.1667,4.5 m 70,-61.833 c 5.568,-2.008 15.058,-0.167 21,-0.167 1.854,0 5.24,-0.647 6.833,0.5 1.442,1.038 1.146,2.958 1.167,4.5 0.048,3.482 1.787,14.115 -2,15.667 -5.423,2.222 -15.15,0.333 -21,0.333 -2.187,0 -5.131,0.536 -6.833,-1.167 -2.698,-2.697 -1.372,-12.194 -1.167,-15.833 0.1,-1.768 0.117,-3.154 2,-3.833 m 159,9.833 v -10 h -82 -20 c -1.925,0 -5.193,-0.649 -6.5,1.167 -1.973,2.74 -0.571,8.371 2.5,9.5 5.435,1.998 14.225,0.333 20,0.333 h 54 c 10.586,0 21.615,0.913 32,-1 m -99,11 c -2.363,0 -5.772,-0.637 -8,0.167 -2.486,0.896 -2.958,6.641 -1.5,8.666 2.911,4.043 10.771,1.043 10.5,-3.833 -0.092,-1.66 -0.699,-3.367 -1,-5 m 99,10 v -10 h -69 c -6.302,0 -22.878,-3.215 -18.833,8 0.905,2.509 3.646,2 5.833,2 h 15 67 m 10,21 c 2.081,11.297 2.477,26.736 -11,30.667 -5.59,1.63 -13.192,0.333 -19,0.333 h -41 -82 c -12.827,0 -27.342,1.934 -40,0 -3.557,-0.543 -5.49,-3.734 -8,-6 -3.667,-3.311 -8.581,-6.624 -13,-8.833 -3.694,-1.847 -9.7151,-1.985 -12.8333,-4.667 -1.9131,-1.645 -1.7074,-6.425 0,-8.167 3.7286,-3.803 9.0233,-3.333 13.8333,-3.333 h 32 34 60 87 m -60,10.333 c -6.661,2.73 0.354,15.768 7.667,10.167 1.987,-1.522 2.215,-8.525 0.166,-10 -1.503,-1.082 -6.183,-0.843 -7.833,-0.167 m 29,10.667 c 0.96,-5.212 1.882,-10.873 -5,-11 -1.162,-0.022 -2.819,-0.23 -3.833,0.5 -1.951,1.404 -1.951,8.596 0,10 1.93,1.39 6.54,0.5 8.833,0.5 m 12.167,-10.5 c -5.337,3.842 1.095,14.732 7.666,10 5.337,-3.842 -1.095,-14.732 -7.666,-10 m -140.167,74.5 c 1.994,2.915 6.585,9.306 4.5,13 -1.557,2.758 -6.761,4.025 -9.5,5.167 -10.287,4.286 -18.722,7.319 -30,4.5 -18.407,-4.602 -21.263,-22.456 -26.333,-37.667 -2.595,-7.784 -4.1213,-7.596 -11.667,-7 0,9.58 4.4422,23.586 9,32 2.367,4.369 6.655,8.353 8,13 -5.134,2.162 -12.3549,1 -18,1 h -39 c -3.8222,0 -14.898,1.859 -17.5,-1.167 -2.1322,-2.479 -1.1667,-5.985 -1.1667,-8.833 0,-4.624 -0.3333,-9.334 -0.3333,-14 0,-9.327 0.065,-18.927 2.3333,-28 3.6928,-14.771 17.1486,-29.029 31.6667,-33.667 26.9466,-8.608 57.566,5.893 65.667,33.667 1.704,5.843 1.518,12.096 2.666,18 0.475,2.441 2.029,6.567 1.5,9 -0.652,3.001 -4.183,2.785 -5.333,5.167 -0.984,2.037 1.613,6.478 3.5,7.333 2.51,1.138 5.848,-1.544 8,-2.5 7.027,-3.123 14.438,-7.607 22,-9 m 3,-43 1,21 -1.5,8.667 -9.5,4.5 -10,3.333 -2.333,-8.5 -3,-16 -4.667,-13 h 30 m 11,20 v -13 l 0.5,-5.833 9.5,-1.167 h 22 l 8.667,0.5 v 9 l -8.667,0.5 -17,2.333 -15,7.667 m 93,-20 c 0.648,3.52 0.563,7.793 2.167,11 5.628,11.256 19.185,10 29.833,10 4.854,0 20.766,-2.767 20,5 -0.417,4.233 -4.508,4.951 -8,5 -8.996,0.125 -18.003,0 -27,0 h -34 c -3.307,0 -9.971,1.276 -12.833,-0.5 -2.36,-1.465 -3.045,-5.271 -4.5,-7.5 -1.783,-2.731 -4.745,-5.075 -6.167,-8 -1.851,-3.808 -0.5,-10.805 -0.5,-15 h 41 m -71,21 c 8.068,0 19.835,-2.364 26,4 3.394,3.504 6.626,12.522 1,15.5 -2.37,1.255 -6.394,0.5 -9,0.5 -2.063,0 -6.073,0.768 -7.833,-0.5 -1.929,-1.389 -0.891,-4.507 -1.5,-6.5 -1.61,-5.268 -6.05,-8.479 -8.667,-13 m -26,17 c 2.829,-1.787 5.928,-3.049 9,-4.5 1.892,-0.893 3.953,-1.935 6,-2.333 6.295,-1.224 12.967,4.519 8.667,10.833 -2.235,3.281 -6.244,4.479 -9.667,6 -2.127,0.945 -5.519,3.66 -8,2.5 -3.093,-1.447 -4.903,-9.523 -6,-12.5 z"
       id="path116" />
  </g>
</svg>
