<?xml version="1.0" encoding="UTF-8" standalone="no"?>
<svg
   xmlns:dc="http://purl.org/dc/elements/1.1/"
   xmlns:cc="http://creativecommons.org/ns#"
   xmlns:rdf="http://www.w3.org/1999/02/22-rdf-syntax-ns#"
   xmlns:svg="http://www.w3.org/2000/svg"
   xmlns="http://www.w3.org/2000/svg"
   xmlns:sodipodi="http://sodipodi.sourceforge.net/DTD/sodipodi-0.dtd"
   xmlns:inkscape="http://www.inkscape.org/namespaces/inkscape"
   version="1.1"
   id="svg2"
   width="355.18347"
   height="355.04678"
   viewBox="0 0 355.18346 355.04678"
   sodipodi:docname="soluciones-electromecanicas.svg"
   inkscape:version="1.0.1 (3bc2e813f5, 2020-09-07)">
  <metadata
     id="metadata8">
    <rdf:RDF>
      <cc:Work
         rdf:about="">
        <dc:format>image/svg+xml</dc:format>
        <dc:type
           rdf:resource="http://purl.org/dc/dcmitype/StillImage" />
        <dc:title></dc:title>
      </cc:Work>
    </rdf:RDF>
  </metadata>
  <defs
     id="defs6" />
  <sodipodi:namedview
     pagecolor="#ffffff"
     bordercolor="#666666"
     borderopacity="1"
     objecttolerance="10"
     gridtolerance="10"
     guidetolerance="10"
     inkscape:pageopacity="0"
     inkscape:pageshadow="2"
     inkscape:window-width="1920"
     inkscape:window-height="1017"
     id="namedview4"
     showgrid="false"
     fit-margin-top="0"
     fit-margin-left="0"
     fit-margin-right="0"
     fit-margin-bottom="0"
     inkscape:zoom="0.75735985"
     inkscape:cx="116.38843"
     inkscape:cy="133.216"
     inkscape:window-x="-8"
     inkscape:window-y="-8"
     inkscape:window-maximized="1"
     inkscape:current-layer="g10"
     inkscape:document-rotation="0" />
  <g
     inkscape:groupmode="layer"
     inkscape:label="Image"
     id="g10"
     transform="translate(-24.946493,5.3386194)">
    <path
       style="fill:#2dc1d9;stroke:none"
       d="m 334.55574,276.18501 15,-1 5.833,-1.167 2.167,-10.833 v -27 l -2.167,-10.667 -6.833,-1.333 -14,-1 v -56 h 22 c 0,3.124 0.973,8.177 -0.5,11 -1.536,2.944 -5.234,4.255 -7.167,7 -4.281,6.079 -4.396,13.712 -0.333,20 10.636,16.461 35.611,3.105 30.833,-15 -1.636,-6.199 -7.495,-7.358 -10.333,-12.167 -3.655,-6.193 4.195,-18.678 -4.5,-22.333 -5.508,-2.315 -15.04,-0.5 -21,-0.5 -2.745,0 -6.837,0.817 -8.5,-2 -1.992,-3.375 -0.5,-11.14 -0.5,-15 V 98.185013 h 22 c 0,3.156997 1.152,9.079997 -0.5,11.832997 -1.189,1.982 -3.854,2.791 -5.5,4.334 -3.953,3.705 -5.589,9.529 -5,14.833 1.781,16.026 22.995,18.562 31.667,7 3.66,-4.88 3.46,-14.017 0,-19 -2.137,-3.076 -6.424,-4.853 -8.167,-8 -2.96,-5.345 1.829,-13.577997 -1,-18.999987 -1.929,-3.697 -5.851,-4 -9.5,-4 h -24 v -37 c 0,-4.9815 -1.364,-12.2682 0.167,-17 1.593,-4.9257 11.684,-3.0576 15.833,-3 2.111,0.0293 4.268,-0.0873 5.5,2 4.458,7.5535 -3.765,12.1524 -7.333,17 -6.252,8.4932 -2.825,21.2073 6.833,25.5 2.659,1.1819 6.099,1.7821 9,1.5 11.585,-1.1263 19.169,-14.328 13.833,-25 -2.235,-4.4716 -8.237,-6.3227 -9.666,-11 -1.636,-5.352 2.848,-15.8029 -2.167,-19.6667 -4.762,-3.6691 -17.205,-1.3333 -23,-1.3333 -2.434,0 -5.876,0.507 -7.833,-1.3333 -5.071,-4.7664 2.918,-16.20979961 -4.167,-20.6666996 -4.275,-2.6891 -13.077,-1 -18,-1 h -46 -173.000003 -53 c -5.0331,0 -14.9317,-1.8951 -16,4.99999999 -1.3708,8.84780001 0,19.03079961 0,27.99999961 v 57 176.999987 63 16 c 0,2.188 -0.3142,5.081 1.3333,6.833 1.4552,1.548 3.7569,1.167 5.6667,1.167 h 14 56.000003 178 36 c 3.943,0 11.514,1.461 15,-0.5 4.095,-2.303 1.364,-7.854 5,-10 5.136,-3.031 14.121,2.509 18.833,-1.833 2.507,-2.311 2.167,-7.591 2.167,-10.667 v -27 c 0,-3.358 0.564,-8.257 -2.167,-10.833 -4.644,-4.381 -16.812,2.799 -20.333,-3.167 -1.32,-2.236 -0.5,-6.481 -0.5,-9 M 38.722437,6.3517234 l 18.8333,-0.1667 h 44.000003 152 50 l 17.833,0.5 1.167,9.4999996 v 28 114.999987 31 l -1.167,10.5 -15.833,0.5 h -42 -162 -47.000003 l -16.8333,-1.167 -1.1667,-10.833 v -28 -111.999987 -32 l 2.1667,-10.8332996 m 13.8333,12.1665996 c -8.2665,2.9108 -5,20.7904 -5,27.6667 v 67.999987 c 0,7.232 -2.5459,20.672 1.5,27 1.9336,3.024 7.3256,3 10.5,3 h 28 94.000003 24 c 3.638,0 8.76,0.572 12,-1.5 2.582,-1.651 2,-4.861 2,-7.5 v -19 -71.999987 -17 c 0,-2.7825 0.488,-5.7499 -2,-7.6667 -3.026,-2.3317 -8.429,-1.3333 -12,-1.3333 h -28 -87.000003 -26 c -3.6087,0 -8.5643,-0.8764 -12,0.3333 m 183.000003,0 c -7.834,2.7586 -3.997,16.6091 -4.333,22.6667 -0.154,2.7688 -0.467,6.6009 1.5,9 1.809,2.2072 4.26,2 6.833,2 6.401,0 15.953,1.796 22,-0.3333 6.807,-2.397 4,-16.8048 4,-22.6667 0,-2.3106 0.674,-5.912 -0.5,-8 -1.111,-1.9746 -3.391,-2.7656 -5.5,-3 -6.287,-0.6985 -18.044,-1.7637 -24,0.3333 m 45,0.1667 c -1.695,0.8845 -3.047,2.7153 -3.667,4.5 -0.733,2.1117 -0.333,4.8022 -0.333,7 0,5.4999 -2.09,16.5091 2.333,20.6667 1.953,1.8357 5.228,1.3333 7.667,1.3333 5.897,0 16.809,2.0868 22,-0.8333 5.608,-3.1547 3,-17.5925 3,-23.1667 0,-2.5682 0.43,-5.6945 -1.333,-7.8333 -3.794,-4.6013 -17.201,-2.1667 -22.667,-2.1667 -2.123,0 -5.05,-0.5175 -7,0.5 m -73,10.5 c 2.77,15.0361 1,31.6752 1,47 0,3.402 1.668,13.201 -1.333,15.5 -6.214,4.75999 -10.601,-3.724 -10.667,-8.5 -0.124,-8.9467 1.999,-20.3391 -0.167,-29 -2.379,-9.5172 -12.739,-14.9453 -21.833,-12.1667 -16.039,4.9009 -12,26.4157 -12,39.1667 0,4.365 1.845,13.72899 -3,15.99999 -8.32,3.899997 -7.987,-7.64099 -10.167,-11.99999 -5.489,-10.9795 -19.642,-12.8306 -27.833,-4 -2.116,2.282 -3.43,5.045 -4.333,8 -1.498,4.901 0.092,10.03299 -0.667,14.999987 -0.67,4.384 -5.355,6.475 -9,3.667 -3.4603,-2.666 -2,-9.782997 -2,-13.666987 0,-13.221 0.2345,-27.4193 -16.000003,-30.1667 -9.4965,-1.607 -16.9572,7.9612 -18.6667,16.1667 -0.6533,3.136 0.6574,7.368 -1.5,10 -2.3311,2.844 -6.5713,2 -9.8333,2 v -47 l 1.3333,-15.5 10.6667,-0.5 h 28 108.000003 m 46,11 c -2.652,0.0698 -5.386,0.8969 -8,0.1667 -3.494,-0.9764 -4.74,-8.313 -1.667,-10.6667 1.154,-0.8839 3.332,-0.5185 4.667,-0.5 1.542,0.0214 3.462,-0.2747 4.5,1.1667 1.507,2.0926 0.5,7.334 0.5,9.8333 m 46,0 h -11 l 0.5,-9.8333 h 10 l 0.5,9.8333 m -120,12.3333 c 5.938,-0.0824 6,6.3717 6,10.6667 0,10.061 -3.09,25.881 4,33.99999 2.871,3.286997 6.84,5.452997 11,6.666997 2.585,0.753 6.391,-0.78 7.667,2.333 2.024,4.94 0.333,13.68 0.333,19 0,1.928 0.447,5.136 -1.333,6.5 -1.823,1.396 -6.487,0.5 -8.667,0.5 h -24 -84.000003 -22 c -2.0631,0 -6.0726,0.768 -7.8333,-0.5 -1.8159,-1.307 -1.1667,-4.576 -1.1667,-6.5 0,-5.39 -1.6561,-13.946 0.1667,-19 1.0477,-2.905 4.4545,-1.704 6.8333,-2.167 3.3825,-0.657 7.4628,-2.48 10,-4.832997 2.9077,-2.697 5.5573,-7.01599 6,-10.99999 0.3155,-2.84 -0.7311,-6.275 0.3333,-9 1.7986,-4.6042 8.9273,-4.9326 10.5,0 0.8255,2.589 0.1667,6.292 0.1667,9 0,11.31199 -1.4944,26.980987 12.000003,31.666987 10.737,3.728 21.945,-4.818 23,-15.667 0.493,-5.074997 -2.653,-16.255987 5,-16.999987 6.679,-0.649 5.931,7.86299 8,11.99999 3.509,7.017997 12.139,12.068997 20,9.666997 16.402,-5.012 12,-26.648987 12,-39.666987 0,-4.8792 -1.553,-16.5617 6,-16.6667 m 183,0 c 6.745,-0.0936 8.196,9.8671 1,10.6667 -7.641,0.8489 -8.027,-10.569 -1,-10.6667 m -125,11 c -2.24,0.5289 -4.74,1.3866 -5.667,3.6667 -2.289,5.6362 -2.084,15.993 -1.166,22 0.317,2.076 0.592,5.229 2,6.83299 2.022,2.306 5.032,2.167 7.833,2.167 6.249,0 13.932,1.205 20,-0.333 7.975,-2.022 5,-16.27599 5,-22.66699 0,-2.8181 0.726,-6.6532 -1.167,-9 -1.387,-1.7203 -3.736,-2.4838 -5.833,-2.8333 -5.908,-0.9847 -15.167,-1.2107 -21,0.1666 m 45,0 c -8.767,2.6788 -6,15.5327 -6,22.6667 0,3.278 -0.252,7.233 2.167,9.83299 2.109,2.269 4.968,2.167 7.833,2.167 6.249,0 13.932,1.205 20,-0.333 7.975,-2.022 5,-16.27599 5,-22.66699 0,-2.8302 0.587,-6.4639 -1.333,-8.8333 -4.222,-5.2094 -14.769,-3.1667 -20.667,-3.1667 -2.25,0 -4.819,-0.3331 -7,0.3333 m -29,11.6667 v 11 l -9.833,-0.5 0.166,-10 9.667,-0.5 m 37,0.1667 c 1.872,-0.6751 7.234,-0.7587 8.5,1 1.499,2.0823 1.079,8.7363 -1.5,9.6663 -1.872,0.675 -7.234,0.759 -8.5,-1 -1.499,-2.082 -1.079,-8.7363 1.5,-9.6663 m -54,34.166287 c -8.464,2.587 -4.441,14.956 -5,21.667 -0.285,3.424 -1.398,7.869 1.333,10.833 1.626,1.764 5.428,2.074 7.667,2.167 6.476,0.27 14.798,1.144 21,-0.833 6.912,-2.204 4,-18.218 4,-24.167 0,-2.439 0.502,-5.714 -1.333,-7.667 -1.626,-1.729 -4.425,-2.24 -6.667,-2.333 -6.144,-0.256 -15.115,-1.465 -21,0.333 m 45,0 c -7.77,2.736 -5,17.272 -5,23.667 0,2.623 -0.078,5.725 1.5,8 1.417,2.043 4.136,2.77 6.5,3 6.198,0.603 17.306,1.647 23,-1 6.764,-3.144 4,-16.684 4,-23 0,-2.629 0.56,-5.79 -1.167,-8 -4.15,-5.313 -15.85,-3 -21.833,-3 -2.191,0 -4.897,-0.407 -7,0.333 m -28,11.667 v 11 l -9.833,-0.5 v -10 l 9.833,-0.5 m 37,0.167 c 1.872,-0.675 7.234,-0.759 8.5,1 1.499,2.082 1.079,8.736 -1.5,9.666 -1.872,0.675 -7.234,0.759 -8.5,-1 -1.499,-2.082 -1.079,-8.736 1.5,-9.666 m 71,0 c 6.643,-1.965 9.577,8.403 3,10.5 -6.763,2.156 -9.907,-8.458 -3,-10.5 m -309.000003,34.166 c -7.4153,2.611 -5.6137,19.355 -5,25.667 0.2569,2.643 1.2045,6.872 4,7.833 4.8905,1.681 12.8161,0.167 18,0.167 h 40.000003 135 46 c 4.633,0 13.928,1.79 18,-0.5 3.397,-1.911 3,-6.209 3,-9.5 0,-6.738 3.078,-21.164 -5,-23.667 -5.221,-1.617 -12.552,-0.333 -18,-0.333 h -39 -127 -48.000003 c -6.401,0 -15.9526,-1.796 -22,0.333 m 247.000003,11.667 c 0,2.566 1.166,8.821 -1.167,10.5 -2.71,1.952 -10.557,0.5 -13.833,0.5 h -36 -138 -36.000003 c -3.2764,0 -11.1228,1.452 -13.8333,-0.5 -4.2771,-3.079 -0.5932,-11.008 3.8333,-11.5 15.8851,-1.765 33.0029,0 49.000003,0 h 122 c 20.689,0 43.7,-2.739 64,1 m 62,23.167 c 6.564,-1.295 9.704,8.31 3,10.166 -6.978,1.933 -10.167,-8.753 -3,-10.166 m -39,32.833 c -9.452,1.741 -19.364,1 -29,1 h -46 -145 -56.000003 c -5.9022,0 -10.1258,-0.206 -10,-7 0.0264,-1.428 0.0927,-2.759 1.1667,-3.833 2.7235,-2.724 11.2034,-1.167 14.8333,-1.167 h 42 168.000003 43 c 3.675,0 12.813,-1.674 15.833,0.5 2.333,1.679 1.167,7.934 1.167,10.5 m -283.833303,12.167 12.8333,-0.167 h 29 l 12.5,1.167 0.5,14.833 v 41 34 l -1.1667,11.5 -6.8333,0.5 h -16 -23 l -8.8333,-0.5 -1.1667,-16.5 v -48 -28 l 2.1667,-9.833 m 192.833303,68.833 c 2.519,0 6.764,0.82 9,-0.5 3.022,-1.783 3.022,-9.217 0,-11 -2.236,-1.32 -6.481,-0.5 -9,-0.5 v -23 c 0,-5.121 1.831,-14.691 -1.333,-19 -1.952,-2.657 -4.737,-2.723 -7.667,-3.333 -6.318,-1.317 -20.26,-2.667 -24.667,3.333 -2.007,2.734 -1.333,6.821 -1.333,10 v 21 c 0,2.473 1,7.75 -0.5,9.833 -1.842,2.559 -6.061,0.227 -8.5,1.667 -2.382,1.406 -2.662,6.089 -1.833,8.5 1.402,4.081 7.467,3 10.833,3 v 24 c 0,2.269 0.885,6.91 -0.5,8.833 -1.414,1.964 -5.409,1.167 -7.5,1.167 h -19 c -2.349,0 -5.843,0.746 -6.833,-2 -2.194,-6.082 -0.167,-16.506 -0.167,-23 0,-2.063 -0.768,-6.073 0.5,-7.833 1.444,-2.005 4.471,-0.853 6.5,-1.167 4.028,-0.624 4.547,-4.469 4,-8 -1.076,-6.947 -9.056,-1.073 -10.833,-6 -0.895,-2.481 -0.167,-6.373 -0.167,-9 v -20 c 0,-2.893 0.839,-7.359 -0.5,-10 -1.641,-3.236 -4.34,-3.675 -7.5,-4.333 -6.584,-1.372 -21.785,-2.993 -25.5,4.333 -1.558,3.073 -0.5,8.617 -0.5,12 0,9.636 0.741,19.548 -1,29 -2.373,0 -5.841,-0.643 -8,0.5 -3.575,1.892 -4.272,7.646 -1,10.167 2.454,1.89 6.114,1.333 9,1.333 v 34 h -16 c -1.742,0 -4.318,0.475 -5.5,-1.167 -1.0224,-1.42 -0.5,-4.194 -0.5,-5.833 v -15 -58 -17 c 0,-1.742 -0.4753,-4.318 1.167,-5.5 2.399,-1.727 8.957,-0.5 11.833,-0.5 h 32 123 35 c 3.076,0 10.278,-1.34 12.833,0.5 1.642,1.182 1.167,3.758 1.167,5.5 v 17 58 15 c 0,1.639 0.522,4.413 -0.5,5.833 -1.307,1.816 -4.575,1.167 -6.5,1.167 -4.838,0 -15.28,2.392 -16,-4 -1.314,-11.662 0,-24.254 0,-36 0,-4.26 -1.294,-11.029 0.333,-15 1.459,-3.558 5.879,-1.208 8.667,-2.167 2.551,-0.876 2.912,-3.47 3,-5.833 0.034,-0.913 -0.014,-2.133 -0.333,-3 -2.045,-5.562 -8.208,-0.52 -10.834,-4.167 -3.406,-4.731 1.464,-12.86 -1.333,-17.833 -3.424,-6.086 -13.281,-3.29 -18.5,-3 -3.287,0.183 -5.639,-1.194 -9,-0.167 -11.483,3.509 -1.717,14.357 -6.5,21 -2.992,4.156 -10.863,-1.303 -11.333,7.167 -0.503,9.042 9.825,2.893 11.666,8 1.174,3.254 0.167,8.544 0.167,12 v 27 c 0,4.009 1.192,10.232 -0.167,14 -0.99,2.746 -4.484,2 -6.833,2 h -19 c -2.091,0 -6.086,0.797 -7.5,-1.167 -1.385,-1.923 -0.5,-6.564 -0.5,-8.833 v -24 m 105,-68.833 c 12.272,-4.426 9,12.869 9,19.833 0,2.625 1.096,7.717 -2,8.833 -12.408,4.475 -9,-12.714 -9,-19.833 0,-2.625 -1.096,-7.717 2,-8.833 m -280.000003,11.166 c -1.9754,0.384 -5.1593,0.524 -6.6667,2 -1.4873,1.457 -2.1407,4.686 -2.3333,6.667 -0.5645,5.806 -2.0394,19.31 2.1667,23.833 2.1092,2.269 4.9686,2.167 7.8333,2.167 6.2494,0 13.9324,1.205 20,-0.333 7.9749,-2.022 5,-16.276 5,-22.667 0,-2.8 0.7369,-6.678 -1.1667,-9 -4.112,-5.017 -19.0922,-3.783 -24.8333,-2.667 m 14,22.667 c -2.4992,0 -7.7406,1.007 -9.8333,-0.5 -6.6829,-4.812 4.4359,-16.135 9.3333,-9.333 1.5067,2.092 0.5,7.334 0.5,9.833 m 80.000003,-11 v 34 l -10.5,-1.167 -0.5,-6.833 v -18 l 1.333,-7.5 9.667,-0.5 m 60,0.167 8.5,1 0.5,6.833 v 16 l -2,9.833 -8.5,-1 -0.5,-6.833 v -16 l 2,-9.833 m 67,10.833 v -11 l 9.667,0.5 0.166,10 -9.833,0.5 m 0,12 9.667,0.5 1.333,12.5 v 31 l -0.833,11.833 h -9.667 l -0.5,-17.833 v -15 -23 m -224.000003,11.333 c -8.5977,2.627 -6,15.644 -6,22.667 0,2.944 -0.021,7.56 2.1667,9.833 1.9198,1.995 5.2752,2.131 7.8333,2.167 6.5887,0.092 14.6823,1.181 21,-0.833 6.9117,-2.204 4,-18.218 4,-24.167 0,-2.439 0.5024,-5.714 -1.3333,-7.667 -1.626,-1.729 -4.4248,-2.24 -6.6667,-2.333 -6.1438,-0.256 -15.1153,-1.465 -21,0.333 m 281.000003,33.667 v -12 -8 c 0,-1.777 -0.658,-5.155 0.5,-6.667 1.597,-2.085 8.403,-2.085 10,0 1.031,1.346 0.5,4.1 0.5,5.667 v 15 c 0,1.877 0.415,4.14 -1.167,5.5 -2.8,2.408 -6.695,0.748 -9.833,0.5 m -264.000003,-22 -0.5,9.833 -4.5,1.167 -4.8333,-0.5 v -10 l 9.8333,-0.5 m 80.000003,0 v 15 9 l -0.5,8.833 h -10 l -0.5,-6.833 v -18 l 1.333,-7.5 9.667,-0.5 m 60,0.167 8.5,1 0.5,6.833 v 16 l -2,9.833 -8.5,-1 -0.5,-6.833 v -16 z"
       id="path36" />
  </g>
</svg>
